<svg width="77" height="84" viewBox="0 0 77 84" fill="none" xmlns="http://www.w3.org/2000/svg">
<path d="M60.7813 17.8139C61.2515 15.1981 60.84 11.6125 59.5469 6.58684C59.4293 6.0872 59.0472 5.70513 58.577 5.52879C58.1068 5.38184 57.5777 5.47001 57.1663 5.76391C56.2258 6.52806 54.1685 6.91013 51.0531 6.91013H51.0237C50.2008 6.93952 48.555 6.88074 46.1156 6.76318L30.7445 5.99903C30.7445 5.99903 30.7445 5.99903 30.7152 5.99903C30.0686 5.96964 29.4514 5.96964 28.893 5.96964C28.6285 5.96964 28.3639 5.96964 28.1288 5.96964C24.2199 5.85208 19.3412 6.82196 17.3133 9.79036C16.0495 11.6713 15.5792 14.6103 15.9025 18.1078C9.78938 24.0446 5.99805 32.3326 5.99805 41.5023C5.99805 59.4597 20.5462 74.0372 38.5329 74.0372C56.4903 74.0372 71.0678 59.4891 71.0678 41.5023C71.0384 32.1563 67.1001 23.7507 60.7813 17.8139Z" fill="white" stroke="white" stroke-width="10" stroke-miterlimit="10"/>
<path d="M50.6713 84.0003H26.1306C24.9843 84.0003 24.0732 83.0892 24.0732 81.943V63.8093C24.0732 62.663 24.9843 61.752 26.1306 61.752H50.6713C51.8175 61.752 52.7286 62.663 52.7286 63.8093V81.943C52.7286 83.0892 51.8175 84.0003 50.6713 84.0003Z" fill="white"/>
<path d="M38.5915 74.0366C56.56 74.0366 71.1264 59.4702 71.1264 41.5017C71.1264 23.5332 56.56 8.9668 38.5915 8.9668C20.623 8.9668 6.05664 23.5332 6.05664 41.5017C6.05664 59.4702 20.623 74.0366 38.5915 74.0366Z" fill="#143453"/>
<path d="M63.9542 28.922C63.9542 28.8926 63.9248 28.8926 63.9248 28.8926C63.9542 28.922 63.9542 28.9514 63.9836 28.9807C63.9542 28.9514 63.9542 28.9514 63.9542 28.922Z" fill="white"/>
<path d="M34.3877 51.3483C34.3289 51.3777 34.2407 51.4071 34.182 51.4071C34.1232 51.4071 34.1232 51.4071 34.0938 51.4071C34.0938 51.4071 34.0938 51.4071 34.0644 51.4071C34.0644 51.4071 34.0644 51.4071 34.035 51.4071C34.035 51.4071 34.035 51.4071 34.0056 51.4071C34.0056 51.4071 34.0056 51.4071 33.9762 51.4071C33.9762 51.4071 33.9762 51.4071 33.9468 51.4071C33.9468 51.4071 33.9468 51.4071 33.9175 51.4071C33.9175 51.4071 33.9175 51.4071 33.8881 51.4071C33.8293 51.3483 33.7411 51.3189 33.6823 51.2895C33.6823 51.2601 32.7712 49.6731 31.1254 49.9964C31.0078 49.8788 30.8609 49.8494 30.7727 49.7612C30.7139 49.7612 30.6258 49.7906 30.5964 49.7906C30.567 49.7612 30.5376 49.7319 30.5376 49.7025C30.4788 49.7612 30.3612 49.7906 30.3612 49.7906C30.3612 49.7906 30.3612 49.7906 30.3319 49.7906C30.3319 49.7906 30.3319 49.7906 30.3025 49.7906C30.3025 49.7906 30.3025 49.7906 30.2731 49.7906C30.2731 49.7906 30.2731 49.7906 30.2437 49.7906C30.2437 49.7906 30.1555 49.7612 30.1849 49.6143C30.1555 49.5849 30.1261 49.5849 30.0967 49.5555C30.0967 49.4967 30.038 49.4086 30.0086 49.3792C30.0086 49.3498 30.0086 49.291 30.0086 49.2616C28.4509 48.3211 28.2452 48.762 28.2745 48.4387C28.1276 48.3211 27.5692 48.0272 27.5104 48.0272C27.5104 47.9978 27.5104 47.9391 27.5104 47.9097C27.5104 47.8509 27.5104 47.8509 27.5104 47.8509C27.5104 47.8509 27.5104 47.8509 27.481 47.8509C27.481 47.8509 27.481 47.8509 27.4516 47.8509C27.4516 47.8509 27.4516 47.7627 27.5104 47.7627C27.5692 47.6158 27.5986 47.4394 27.5692 47.2043C27.5104 47.1749 27.5104 47.1749 27.481 47.1749C27.481 47.1749 27.481 47.1749 27.4516 47.1749C27.4516 47.1749 27.4516 47.1749 27.4222 47.1749C27.4222 47.1749 27.4222 47.1749 27.3928 47.1749C27.3928 47.1749 27.3928 47.1749 27.3635 47.1749C27.3635 47.1749 27.3635 47.1749 27.3341 47.1749C27.3341 47.1749 27.3341 47.1749 27.3047 47.1749C27.3047 47.1749 27.3047 47.1749 27.2753 47.1749C27.3047 47.028 27.3047 46.9986 27.1577 46.9398C27.0402 46.5283 27.0989 46.0875 26.8638 45.7054C26.8344 45.7348 26.805 45.7348 26.7756 45.7642C26.6875 45.5291 26.0409 44.9413 26.0409 44.9413C25.6 44.618 25.4237 44.618 25.1298 44.618C24.6596 44.6474 24.395 44.5592 24.3069 44.4122C24.3069 44.4122 23.6603 43.266 23.2488 43.0015C23.1607 42.9427 23.0725 42.9427 22.9549 42.9133C22.9255 42.6194 22.7492 42.3843 22.6316 42.1492C22.5729 42.1492 22.5729 42.1492 22.2496 42.0316C22.2496 41.9729 22.2202 41.8847 22.1908 41.8259C22.1908 41.7965 22.2202 41.7671 22.2496 41.7377C22.3377 41.7377 22.4259 41.7083 22.5141 41.7083C22.3965 41.6202 22.3965 41.6202 21.6324 41.5614C21.6618 41.5908 21.6912 41.6202 21.7205 41.6202C21.6618 41.6496 21.5736 41.6496 21.5148 41.6496C21.1915 42.061 20.8388 41.532 20.8095 41.4144C19.8984 41.2381 19.8984 41.2381 19.9865 41.0912C19.8984 40.9148 19.8984 40.9148 19.3399 40.6797C19.2812 40.7091 19.2224 40.7679 19.1636 40.7973C18.9579 40.7385 18.664 40.9736 18.664 40.9736C18.6052 40.8266 18.6052 40.8266 18.5758 40.5034C18.8991 40.3564 18.8991 40.3564 18.9579 40.2976C18.9285 40.1801 18.9285 40.1213 18.7815 40.0625C18.7228 40.0625 18.6346 40.0919 18.5758 40.1213C18.5758 40.1213 18.2525 40.6503 17.7823 40.474C17.6941 40.5327 17.6941 40.5327 17.6647 40.7679C17.6353 40.7385 17.6059 40.7385 17.5765 40.7091C17.5765 40.6797 17.6059 40.6209 17.6059 40.5915L16.6654 41.679C16.6067 41.7671 16.6067 41.7671 16.6067 42.1198C16.2246 41.1499 16.2246 41.1499 15.9307 41.0618C15.8425 41.1205 15.8425 41.2087 15.8425 41.3263C15.9601 41.4438 15.9601 41.6496 16.1364 41.7377C16.107 41.7965 16.0776 41.8553 16.0189 41.9141C16.0482 42.3843 16.3128 42.8252 16.3128 42.8252C16.2834 42.884 16.254 42.9721 16.2246 43.0309C16.3128 43.2366 16.2834 43.266 16.1658 43.413C16.1952 43.4424 16.2246 43.4718 16.2246 43.4718C16.1658 44.2359 16.1658 44.2359 16.2246 44.3241C16.1952 44.4122 16.1952 44.4122 15.9601 44.9119C15.9307 44.9413 15.9307 44.9413 15.9307 44.9413C15.9307 44.9413 15.9307 44.9413 15.9013 44.9413C15.9013 44.9413 15.9013 44.9413 15.8719 44.9413C15.8719 44.9413 15.8719 44.9413 15.8425 44.9413C15.8425 44.9413 15.8425 44.9413 15.8131 44.9413C15.8131 44.9413 15.8131 44.9413 15.7837 44.9413C15.7837 44.9413 15.7837 44.9413 15.7543 44.9413C15.7543 44.9413 15.7543 44.9413 15.725 44.9413C15.6074 45.0588 15.6074 45.0588 15.6074 45.3233C15.578 45.3527 15.5486 45.3527 15.5192 45.3821C15.4898 45.6172 15.4898 45.6172 15.4604 45.676V45.7054H15.4311L15.6956 45.7348C15.6662 45.7348 15.6662 45.7348 15.4311 45.823C15.3429 45.9993 15.4017 46.205 15.3723 46.3814C15.3429 46.3814 15.3429 46.3814 15.3135 46.3814C15.3135 46.4108 15.2841 46.4402 15.2547 46.7635C15.1959 46.7635 15.1665 46.7928 15.1078 46.7928C15.1665 46.9986 15.1665 47.1161 15.1959 47.41H15.1665C15.1372 47.4394 15.1372 47.4394 15.1372 47.4982C15.2841 47.5864 15.3429 47.6745 15.4017 47.9391C15.4604 47.8803 15.4604 47.7921 15.5192 47.7627C15.5192 47.8509 15.5192 47.9684 15.4604 48.0272C15.3723 48.1448 15.2547 48.2036 15.1665 48.3211C15.0196 48.5563 15.0196 48.5562 15.2547 49.3792C15.2253 49.3792 15.2253 49.3792 15.1959 49.3792C15.1959 49.4086 15.1959 49.4086 15.1959 49.5261C15.3723 49.6437 15.6074 49.9376 15.6956 50.0845C15.7837 50.2903 15.8131 50.496 15.9601 50.7017C16.0776 50.9075 16.1658 51.2014 16.1658 51.2308C16.1952 51.2601 16.1952 51.2895 16.2246 51.2895C16.2246 51.2895 16.2246 51.2895 16.2246 51.3189C16.2246 51.3189 16.2246 51.3189 16.2246 51.3483C16.2246 51.3483 16.2246 51.3483 16.2246 51.3777C16.2246 51.3777 16.2246 51.3777 16.2246 51.4071C16.2246 51.4071 16.2246 51.4071 16.2246 51.4365C16.2246 51.4365 16.2246 51.4365 16.2246 51.4659C16.2246 51.4659 16.2246 51.4659 16.2246 51.4953L16.6654 52.6121C16.9006 52.759 16.9006 53.0529 17.0769 53.2293V53.2587C17.2532 53.7583 17.6647 54.1698 17.7823 54.6988C18.1056 54.8751 19.4281 56.0507 19.4281 56.0507L20.1335 57.1382C20.3098 57.579 20.3392 58.0493 20.4568 58.4901V58.5195V58.5489V58.5783V58.6077V58.6371V58.6665V58.6958V58.7252C20.4274 58.7252 20.398 58.7546 20.3686 58.7546C20.3686 58.8134 20.3686 58.8722 20.3686 58.931C20.4274 58.9604 20.4862 59.0191 20.4862 59.0779C20.5743 59.2836 20.5743 59.5188 20.6625 59.7539C20.6331 59.8421 20.6331 59.8421 20.6331 59.8421V59.8715V59.9008V59.9302V59.9596V59.989V60.0184V60.0478C20.7213 60.2535 20.6919 60.4886 20.7801 60.6944C20.6331 61.0764 21.2503 61.341 20.9858 61.7524C21.1034 62.1639 21.3679 62.4872 21.4854 62.8986V62.928V62.9574V62.9868V63.0162V63.0456V63.075V63.1044V63.1338C21.456 63.2513 21.456 63.2513 21.603 63.604C21.5442 63.751 21.6324 64.1918 21.6912 64.28C21.6618 64.28 21.6324 64.3094 21.603 64.3094C21.7793 64.6327 22.9549 66.3667 22.9549 66.3667C22.9255 66.3079 22.8962 66.1609 22.661 65.9258C22.6904 65.9258 22.7198 65.9258 22.7492 65.9258C22.808 65.9552 22.808 65.9258 22.808 65.9258C22.808 65.9258 22.808 65.9258 22.808 65.8964C22.808 65.8964 22.808 65.8964 22.808 65.867C22.808 65.867 22.808 65.867 22.808 65.8376C22.808 65.8376 22.808 65.8377 22.808 65.8083C22.808 65.8083 22.808 65.8083 22.808 65.7789C22.808 65.7789 22.808 65.7789 22.808 65.7495C22.808 65.7495 22.808 65.7495 22.808 65.7201C22.9255 65.7789 23.0137 65.8964 23.1019 65.9846C23.1313 66.3667 23.6015 66.543 23.5721 66.9545C23.3076 66.5724 23.3076 66.5724 23.0725 66.4548C23.1607 66.69 23.4252 67.072 23.4546 67.072C23.4546 67.1014 23.4252 67.1308 23.3958 67.1602C23.4252 67.1896 23.484 67.2484 23.5133 67.2778C23.5427 67.2778 23.5721 67.2484 23.6015 67.2484C23.6897 67.2778 23.7779 67.3365 23.8366 67.3659C23.8366 67.4247 23.8954 67.5129 23.9248 67.5717C23.866 67.5423 23.8072 67.5129 23.7485 67.4835C23.7485 67.4835 23.7485 67.4835 23.7485 67.5129C23.7485 67.5129 23.7485 67.5129 23.7485 67.5423C23.7485 67.5423 23.7485 67.5423 23.7485 67.5717C23.8366 67.8656 24.1599 68.0419 24.3657 68.1301C24.3363 68.1301 24.3069 68.1007 24.2775 68.1007C24.3363 68.2183 24.3363 68.2183 24.4538 68.3064C24.4538 68.277 24.4538 68.2476 24.4538 68.2183C24.5126 68.2476 24.5714 68.277 24.6008 68.3064C24.5714 68.3064 24.542 68.277 24.5126 68.277C24.7477 68.5122 24.7477 68.5122 24.7771 68.5122C24.7771 68.4828 24.7771 68.4828 24.8065 68.4828C24.9829 68.5121 25.1004 68.6297 25.218 68.7473C25.2768 68.8061 25.3649 68.8648 25.4531 68.9236C25.3649 68.8942 25.3649 68.8942 25.1592 68.8061C25.2768 68.8942 25.6 69.0412 25.8646 69.1881C25.8352 69.1881 25.8352 69.1587 25.8352 69.1587C25.8352 69.1587 25.8646 69.1587 25.9233 69.2175C26.0409 69.2763 26.1291 69.3057 26.1585 69.3351C26.1291 69.3057 26.1291 69.3057 26.0997 69.2763C26.3642 69.4232 26.3642 69.4232 26.423 69.4232C26.5111 69.5114 26.5111 69.5114 26.805 69.5996C26.7757 69.5702 26.7463 69.5702 26.7463 69.5408C26.7757 69.5408 26.805 69.5702 26.8344 69.5702C26.8638 69.5702 26.8638 69.5702 26.8638 69.5702C27.0108 69.7465 27.2459 69.6878 27.4516 69.7759C27.4222 69.7465 27.3341 69.6878 27.3047 69.6584C27.3047 69.629 27.3047 69.629 27.3047 69.629C27.3635 69.629 27.4516 69.6584 27.5104 69.6584C27.481 69.629 27.4516 69.629 27.4516 69.5996C27.481 69.5996 27.5104 69.629 27.5398 69.629C27.5398 69.629 27.5398 69.629 27.5692 69.629C27.6574 69.6584 27.7455 69.6584 27.8337 69.6584C27.7455 69.5702 26.7463 69.1293 26.1878 68.953C26.3054 68.8942 26.4524 68.9236 26.4817 68.9236C26.3054 68.7473 26.0997 68.6297 25.9527 68.4534C25.9821 68.424 26.0409 68.3652 26.0997 68.3358C26.0997 68.3064 26.0997 68.3064 25.9821 68.1007C26.0409 68.0125 26.1291 67.9831 26.1878 67.895C26.0409 67.4541 25.071 67.6011 25.3061 67.072C25.3355 67.072 25.3649 67.072 25.3943 67.0426C25.4237 67.0133 25.4237 67.0133 25.4531 67.0133H25.4825H25.5119H25.5413H25.5707H25.6H25.6294H25.6588C25.6294 66.9839 25.6 66.9545 25.6 66.9545C25.6294 66.9251 25.6294 66.8957 25.6588 66.8663C25.4825 66.5724 25.4825 66.5724 25.4825 66.5136C25.5119 66.5136 25.5413 66.4842 25.5707 66.4842C25.5707 66.4548 25.5413 66.4255 25.5413 66.3961C25.4825 66.3961 25.4237 66.3667 25.3649 66.3373C25.3943 66.3079 25.3943 66.3079 25.4237 66.2785C25.5413 66.3079 25.6 66.4255 25.747 66.4255C25.747 66.3961 25.747 66.3667 25.747 66.3373C25.6294 66.2197 25.6294 66.2197 25.5413 66.1903C25.5413 66.2197 25.5707 66.2491 25.5707 66.2785C25.5119 66.2785 25.3943 66.2491 25.0122 65.8083C25.0122 65.7789 25.0416 65.7495 25.0416 65.7495C25.7176 65.9258 25.7176 65.9258 25.8352 65.9258C25.8352 65.8964 25.8646 65.867 25.8646 65.8376C25.7176 65.6907 25.747 65.4556 25.5707 65.338C25.5707 65.3086 25.5707 65.2792 25.5413 65.2498C25.5707 65.2792 25.6 65.2792 25.6294 65.3086C26.0115 65.2498 26.3936 65.3968 26.7463 65.2792C26.8344 65.2498 26.8344 65.2498 27.1283 64.809C27.0108 64.2506 26.2466 64.3094 26.1291 63.751C26.1585 63.751 26.1878 63.7216 26.2172 63.7216C26.4524 63.8979 26.7757 63.8979 27.0108 64.1036C27.2165 64.0742 27.8337 63.9861 27.8337 63.9861C27.8337 63.9567 27.8337 63.8979 27.8337 63.8685C27.8631 63.8391 27.9219 63.7803 27.9219 63.7216C27.9513 63.7216 27.9806 63.7216 28.01 63.7216C28.0394 63.5746 28.0394 63.5746 28.2745 63.1338C28.3039 63.1338 28.3333 63.1044 28.3627 63.1044C28.3039 63.075 28.2452 63.075 28.1864 63.075C28.157 63.0162 28.157 62.928 28.1864 62.8692C28.2158 62.8692 28.2158 62.8692 28.3921 62.5166C28.3921 62.4872 28.3627 62.4578 28.3333 62.4578C28.4803 62.5166 28.4803 62.5166 28.5978 62.4872C28.5684 62.546 28.5684 62.546 28.5684 62.546C28.5684 62.5753 28.5978 62.6047 28.6272 62.6341C28.5978 62.6929 28.5391 62.7517 28.5097 62.7811C28.5097 62.8105 28.5097 62.8399 28.5097 62.8692C28.5684 62.8692 28.6566 62.8399 28.686 62.7811C28.8917 62.4872 29.0093 62.1051 29.2738 61.8112C29.215 60.9883 29.215 60.9883 29.0975 60.8119C29.1269 60.7532 29.1563 60.6944 29.1856 60.6356C29.1856 60.6062 29.1562 60.5474 29.1269 60.518C29.1562 60.518 29.1856 60.5474 29.1856 60.5768C29.891 59.989 29.9792 59.9008 30.3612 60.0184C30.3319 59.989 30.3319 59.9596 30.3025 59.9302C30.3906 59.8421 30.3906 59.8421 30.5964 59.8127C30.5964 59.7833 30.5964 59.7539 30.5964 59.7245C30.6258 59.6951 30.6845 59.6657 30.7433 59.6657C30.7433 59.6951 30.7727 59.7245 30.8021 59.7245C30.8315 59.6951 30.8609 59.6951 30.8609 59.6657C30.9197 59.6951 31.0078 59.6951 31.0666 59.7245C31.1254 59.6951 31.1254 59.6951 31.7132 59.6951C31.7426 59.6363 31.7426 59.5775 31.7426 59.5188C32.154 59.1955 32.1247 58.5783 32.5949 58.2844C32.6243 58.0493 32.6243 58.0493 32.5949 57.8141C32.8594 57.4615 32.6831 56.9912 32.9476 56.6385C32.7712 55.6393 32.7712 55.6393 33.359 54.9045C33.7117 54.0522 34.6522 53.582 34.7404 52.5827C34.8873 52.7884 34.9167 51.554 34.3877 51.3483ZM26.3348 69.0706C26.3642 69.0706 26.3642 69.0412 26.3936 69.0412C26.6581 69.2175 26.6581 69.2175 26.805 69.2469C26.7757 69.2469 26.7463 69.2763 26.7169 69.2763C26.7757 69.3351 26.7757 69.3351 27.1283 69.482C26.805 69.3645 26.805 69.3645 26.5699 69.2175C26.5993 69.2469 26.6581 69.3057 26.6581 69.3645C26.6287 69.3351 26.6287 69.3351 26.2172 69.1881C26.3054 69.2175 26.423 69.2469 26.5111 69.2763C26.4524 69.2175 26.3642 69.1587 26.3348 69.0706Z" fill="white"/>
<path d="M11.4344 29.5703C11.3757 29.6585 11.3757 29.6585 11.405 29.6879C11.4344 29.5997 11.4344 29.5997 11.4344 29.5703Z" fill="white"/>
<path d="M11.1404 30.4808C11.1698 30.4221 11.1698 30.4221 11.1698 30.3633C11.111 30.4808 11.111 30.4808 11.1404 30.4808Z" fill="white"/>
<path d="M25.1882 68.6292C25.1295 68.5998 25.1001 68.5704 25.0707 68.541C25.0413 68.541 25.0707 68.5704 25.0707 68.5704L25.1588 68.6292C25.1882 68.6292 25.1882 68.6292 25.2176 68.6586H25.1882C25.1882 68.6586 25.1882 68.6586 25.2176 68.688C25.2176 68.688 25.2176 68.688 25.247 68.688C25.247 68.688 25.3352 68.7174 25.3646 68.7174C25.3352 68.688 25.3058 68.688 25.2764 68.6586C25.2176 68.688 25.1882 68.6586 25.1882 68.6292Z" fill="white"/>
<path d="M67.7752 39.0334V39.004V38.9746V38.9452V38.9159V38.8865V38.8571V38.8277C67.7458 38.7689 67.7458 38.7689 67.7752 38.7395C67.7752 38.7395 67.7752 38.7395 67.7752 38.7101C67.7752 38.7101 67.7752 38.7101 67.7752 38.6807C67.7752 38.6807 67.7752 38.6807 67.7752 38.6513C67.7752 38.6513 67.7752 38.6513 67.7752 38.622C67.7752 38.622 67.7752 38.622 67.7752 38.5926C67.7752 38.5926 67.7752 38.5926 67.7752 38.5632C67.7752 38.5632 67.7752 38.5632 67.7752 38.5338C67.7752 38.5338 67.7752 38.5338 67.7752 38.5044C67.7164 38.0341 67.7164 38.0341 67.6577 37.6227V37.5933C67.6283 37.5933 67.5989 37.5933 67.5695 37.5933C67.5107 37.946 67.5107 37.946 67.4813 38.0048C67.4519 38.0929 67.3344 38.0929 67.305 38.2105C67.2756 38.2399 67.2756 38.2987 67.2462 38.3281C67.2168 38.3574 67.2168 38.3574 67.2168 38.3574C67.2168 38.5632 67.0699 38.7689 66.8054 39.004C66.7172 38.9452 66.7172 38.9452 66.5114 38.5926C66.4821 38.5926 66.4233 38.5632 66.3939 38.5632C66.3351 37.946 66.3351 37.946 66.2763 37.7696C66.2469 37.7696 66.2469 37.7696 65.9824 37.3876C65.953 37.3876 65.953 37.3876 65.953 37.3876C65.6004 37.0055 65.6004 37.0055 65.5122 36.9761C65.4828 36.9173 65.424 36.7998 65.3652 36.741C65.3652 36.7704 65.3652 36.8292 65.3652 36.8585C64.1896 34.8894 64.1896 34.8894 64.1309 34.6249V34.5955V34.5661V34.5367V34.5073V34.4779V34.4486V34.4192V34.3898C63.4549 32.8027 61.8678 31.8034 61.2506 30.187C61.5151 30.4809 61.7209 30.7748 61.9854 31.0393C62.0148 31.0099 62.0441 30.9805 62.1029 30.9805C62.0148 30.7748 61.9854 30.5103 61.8972 30.3045C62.0148 30.4515 62.0148 30.4515 62.1029 30.8336C62.632 30.8336 63.9545 33.0378 64.7187 34.331C64.9832 34.3604 65.1007 34.6249 65.1007 34.6543C65.1007 34.6837 66.3645 37.799 66.5702 37.9754C66.8935 37.7696 67.1286 36.8292 67.1286 36.8292L67.1874 36.7998C67.2756 36.7704 67.3932 36.0944 67.3932 36.0944C67.3932 35.9474 67.5107 35.8005 67.5107 35.6535C67.5107 35.4772 67.4225 35.3009 67.4519 35.1245C67.4813 34.9482 67.5989 34.8012 67.6283 34.6249C67.6283 34.5661 67.5989 33.9489 67.5989 33.9489C67.5989 33.8901 67.5989 33.8607 67.5401 33.6844C67.5107 33.5668 67.4813 33.4787 67.5695 33.3317C67.3932 32.8909 67.3344 32.7145 67.305 32.4794C67.3344 32.5088 67.3344 32.5382 67.3344 32.5676C67.3638 32.5088 67.0699 31.4214 67.0405 31.4214C66.9817 31.245 66.8054 31.1569 66.7466 30.9805C66.4233 30.863 66.4233 30.863 65.9236 29.8049C65.9236 29.8049 66.1882 30.9511 66.2175 31.0099C66.2175 31.0099 66.1882 31.0099 66.1882 30.9805C66.2176 31.0981 66.2176 31.0981 66.1882 31.1275C66.1588 31.1862 66.0118 31.3626 66.0118 31.3626C65.9824 31.3332 65.953 31.2744 65.9236 31.2156C65.9236 31.2156 65.9236 31.245 65.8943 31.245C65.8061 31.0981 65.8061 31.0981 65.5416 30.4515C65.5122 30.4221 65.5122 30.4221 65.5122 30.4221C65.4828 30.3927 65.4534 30.3633 65.4534 30.3339C65.4534 30.3927 65.4534 30.3927 65.6885 31.0687C65.6591 31.0393 65.6004 30.9805 65.3065 30.5103C65.1889 30.2752 64.9832 30.1282 64.8656 29.9225C64.8656 29.9225 64.8362 29.9225 64.8362 29.9519C64.6893 29.8049 64.5717 29.5992 64.4248 29.4228C64.2484 29.1877 64.2484 29.1877 64.1896 29.1289C64.1896 29.0995 64.1896 29.0408 64.1896 28.982C64.1602 28.9232 64.1602 28.8938 64.1309 28.8644C64.1309 28.835 64.1015 28.835 64.1015 28.8056C64.1308 28.8056 64.1308 28.7763 64.1602 28.7763C64.1602 28.7469 64.1602 28.6587 64.1309 28.6293C64.1602 28.6293 64.219 28.6293 64.2484 28.6293C64.2484 28.5999 64.2778 28.5999 64.2778 28.5705C64.6011 28.835 64.7187 29.2759 65.0419 29.511C65.2183 29.4522 65.5416 29.8931 65.571 29.8931C65.6004 29.8637 65.6004 29.8637 65.6004 29.8637C65.6004 29.8637 65.6297 29.8931 65.6591 29.8931C65.6591 29.8637 65.6885 29.8637 65.6885 29.8343C65.6885 29.8049 65.6591 29.7461 65.6591 29.7167C65.6885 29.7461 65.6885 29.7755 65.7179 29.8049C65.7473 29.6874 65.7473 29.658 65.7179 29.5698C65.7179 29.5992 65.6885 29.5992 65.6885 29.6286C65.6591 29.5698 65.6591 29.5698 65.6297 29.4522C65.6591 29.4522 65.6591 29.4228 65.6885 29.4228C65.8943 29.5698 65.9824 29.8637 66.1882 30.04C66.1882 30.0694 66.2175 30.0694 66.2175 30.0988C66.2469 30.04 66.2469 30.04 66.3351 29.9813C66.3645 30.0106 66.3939 30.04 66.4233 30.04C66.4233 30.0106 66.4527 29.9813 66.4821 29.9519C66.4821 29.9225 66.4527 29.8637 66.4527 29.8343C66.4527 29.8343 66.4527 29.8343 66.4821 29.8343C65.2477 26.9541 63.6606 27.777 61.6327 25.4258L59.017 27.1598C59.0464 27.1598 59.1051 27.1304 59.1345 27.1304C59.399 27.2186 59.399 27.2186 59.6048 27.3655C59.8399 27.248 59.8399 27.248 59.8693 26.9541C59.9281 26.9247 60.0456 26.9247 60.1044 26.9541C60.1044 26.9247 60.1044 26.8659 60.1044 26.8365C60.1338 26.8365 60.1926 26.8659 60.222 26.8953C60.3689 27.8652 61.6915 28.453 61.0743 29.658C61.0155 29.658 60.8979 29.6873 60.8392 29.7461C60.4571 29.511 60.222 29.5992 60.1338 30.04C60.1044 30.0694 60.0456 30.0694 60.0162 30.0988C59.9868 30.0694 59.9281 30.0694 59.8987 30.04C59.8987 30.04 59.8987 30.04 59.8693 30.04C59.8399 30.04 59.7811 30.04 59.7517 30.04C59.6635 29.9519 59.6635 29.9519 59.1639 29.9225C59.1345 29.9519 59.1345 30.0106 59.1051 30.04C59.0464 29.9813 58.9582 29.8931 58.8994 29.8343C58.7231 29.8637 58.5173 29.8343 58.341 29.8637C58.2822 29.8049 58.2822 29.8049 58.2822 29.8049V29.7755V29.7461V29.7167V29.6874V29.658V29.6286V29.5992C57.8414 29.5992 57.4005 29.5992 57.5181 30.187C57.5475 30.2458 57.5475 30.2458 57.5475 30.2458C57.5475 30.2458 57.5475 30.2458 57.5475 30.2752C57.5475 30.2752 57.5475 30.2752 57.5475 30.3045C57.5475 30.3045 57.5475 30.3045 57.5475 30.3339C57.5475 30.3339 57.5475 30.3339 57.5475 30.3633C57.5475 30.3633 57.5475 30.3633 57.5475 30.3927C57.5475 30.3927 57.5475 30.3927 57.5475 30.4221C57.5475 30.4221 57.5475 30.4221 57.5475 30.4515C57.7826 30.6866 57.665 30.9511 57.5768 31.0393C57.4593 31.0687 57.4593 31.0687 57.1066 30.863C56.989 30.863 56.989 30.863 56.989 30.863C56.9303 30.8336 56.8127 30.8042 56.7539 30.7748C56.6951 30.7454 56.6951 30.7454 56.6951 30.7454C56.6364 30.7454 56.5188 30.7748 56.46 30.7748C56.2837 30.716 56.2249 30.5397 56.1367 30.4221C55.8428 30.4809 55.4901 30.5397 55.1375 30.5691L54.5203 30.6278L54.3733 30.5984L52.4042 30.7454L52.4336 30.5691C51.6107 31.0393 50.7289 31.3038 49.8472 31.3626C49.7003 31.3626 49.5533 31.392 49.4064 31.392C48.4365 31.392 47.643 31.1275 47.0258 30.6572C46.5262 31.2156 46.0265 31.7153 46.6437 32.3325C46.6437 32.7439 46.6437 32.7439 45.7032 33.5962L44.9391 35.4184C44.6746 36.065 44.2925 36.6234 43.8517 37.0937C43.8517 37.1818 43.8223 37.2406 43.8223 37.2994C43.881 37.3582 43.9692 37.4463 43.9986 37.5051C44.3219 37.6227 44.5276 39.004 44.2337 39.5624C44.2337 39.5624 44.2337 39.5624 44.2337 39.5918C44.2337 39.5918 44.2337 39.5918 44.2337 39.6212C44.2337 39.6212 44.2337 39.6212 44.2337 39.6506C44.2337 39.6506 44.2337 39.6506 44.2337 39.68C44.2337 39.68 44.2337 39.68 44.2337 39.7094C44.2337 39.7094 44.2337 39.7094 44.2337 39.7388C44.2337 39.7388 44.2337 39.7388 44.2337 39.7682C44.2337 39.7682 44.2337 39.7682 44.2337 39.7976C44.1162 40.0621 43.9104 40.8556 43.9104 40.8556C43.9986 40.9144 44.1456 41.0319 44.2337 41.4434C44.2043 41.4728 44.1456 41.5022 44.1162 41.5022C44.1162 41.8255 44.1162 41.8255 44.4395 42.3545C44.5864 42.3251 44.5864 42.3251 44.8509 42.2075C44.8215 42.2369 44.7921 42.2663 44.7627 42.2957C44.7627 42.5014 44.7627 42.5014 45.0567 42.8835C45.9384 43.5889 45.9971 43.7946 46.1441 44.6175C47.0552 45.029 47.643 45.8813 48.5835 46.2046C48.7598 46.2634 48.7598 46.2634 49.5827 45.7931C49.6121 45.7931 49.6121 45.7931 49.6415 45.7931H49.6709H49.7003H49.7297H49.7591H49.7885H49.8179H49.8472C50.1411 45.5286 50.4938 45.705 50.7877 45.6168C50.8465 45.5874 50.8465 45.5874 50.8465 45.6168C51.258 45.6462 51.258 45.6462 51.3755 45.7344C51.6694 45.6462 52.5217 45.0584 52.5217 45.0584C52.5805 45.0584 52.5805 45.0584 52.6099 45.0584H52.6393H52.6687H52.6981H52.7275H52.7569H52.7863H52.8156C52.8156 45.029 52.8156 44.9702 52.845 44.9408C53.2271 44.7057 53.2859 44.6469 53.8737 44.6175C53.9031 44.5881 53.9325 44.5588 53.9619 44.5294C54.0794 44.5881 54.0794 44.5882 54.1088 44.5882H54.1382H54.1676H54.197H54.2264H54.2558H54.2852H54.3145C54.7848 44.7645 54.6378 45.4405 55.1375 45.6168C55.1375 45.6168 55.8722 45.5874 56.1661 45.2347C56.1661 45.2641 56.1955 45.3229 56.1955 45.3523C56.2249 45.3523 56.2837 45.3523 56.3425 45.3523C56.4894 45.6168 56.4894 45.6168 56.5188 45.6462H56.5482H56.5776H56.607H56.6364H56.6658H56.6951H56.7245H56.7539C56.7245 45.705 56.7245 45.7638 56.6951 45.7931C56.7833 45.9695 56.8127 45.9989 56.9009 46.087C56.8715 46.1458 56.8421 46.2634 56.8127 46.3222C56.7833 47.0569 56.7833 47.0569 56.7245 47.439C56.6951 47.4684 56.6658 47.4684 56.6364 47.4978C56.6658 47.5566 56.7245 47.6447 56.7539 47.7035C56.7245 47.7035 56.6658 47.6741 56.6364 47.6741C56.6364 47.6741 56.5776 48.2031 56.4012 48.2619C56.5776 48.9967 56.9597 49.6139 57.2829 49.7314C57.3123 49.7902 57.3711 49.9665 57.7826 50.8482C57.7532 50.8776 57.7532 50.907 57.7238 50.9364C57.9001 51.2891 57.9001 51.2891 57.9295 51.3185C57.9589 52.112 58.1647 52.9056 58.0177 53.7285C57.8414 54.6396 56.9597 55.1686 56.8421 56.1091C56.6951 57.2553 56.6364 57.8431 57.136 58.813C56.7539 59.8122 56.7245 60.4294 56.6951 61.1642C56.9009 61.3699 57.136 61.9283 56.4012 63.3097C56.4306 63.3097 56.46 63.3097 56.4894 63.2803C56.4894 63.3097 56.4894 63.3391 56.4894 63.3684C56.5188 63.3684 56.5482 63.3684 56.607 63.3684C56.607 63.3978 56.6364 63.4272 56.6364 63.4566C57.2242 63.4272 57.6062 62.8982 58.194 62.8982C58.2528 62.8982 58.2528 62.8982 58.2528 62.8688C58.7818 62.8688 59.4284 62.1928 61.1331 60.3707C61.2506 60.2825 61.2506 60.2825 61.956 59.2244V59.195V59.1657V59.1363V59.1069V59.0775V59.0481V59.0187V58.9893C61.9266 59.0187 61.8972 59.0481 61.8972 59.0775L63.0434 57.6668C63.4549 57.1965 63.2785 56.5793 63.543 56.0797C64.1602 54.9335 65.3358 54.1399 65.7179 52.8174C65.7179 52.788 65.7179 52.788 65.7179 52.788C65.7179 52.7586 66.2763 50.9658 66.0118 50.7307C66.0118 50.4368 66.0118 49.7608 66.1588 48.7615C66.1588 48.7909 66.1882 48.8497 66.2175 48.8497C66.2175 48.7909 66.2175 48.7322 66.2175 48.7028C66.2175 48.644 66.2175 48.6146 66.2175 48.5558C66.2175 48.5264 66.2175 48.5264 66.2175 48.5264C66.4233 47.3214 66.8054 45.6756 67.5989 43.7358C67.6283 43.6477 67.6283 43.6477 67.6283 43.6477C67.6577 43.5301 67.7164 43.4125 67.7752 43.2656V43.2362C68.0103 42.2369 68.0103 41.7667 68.0103 41.7667V41.6785C68.0985 40.6793 68.1279 39.2391 68.1279 39.1804C67.7752 39.0334 67.7752 39.0334 67.7752 39.0334ZM65.4534 29.5698C65.4534 29.5992 65.4828 29.5992 65.4828 29.5992C65.4828 29.6286 65.4828 29.6286 65.5122 29.658C65.5122 29.6874 65.5122 29.6874 65.5122 29.6874C65.4828 29.6874 65.4534 29.5698 65.4534 29.5698Z" fill="white"/>
<path d="M15.3142 41.3545C15.2848 41.3545 15.2848 41.3545 15.3142 41.3545H15.2848C15.2554 41.3251 15.1966 41.2369 15.1672 41.2076C15.1378 41.1488 15.1378 41.1488 15.1378 41.1488C15.0791 41.1194 15.0497 41.0606 15.0203 41.0018C15.0497 40.9724 15.0497 40.9724 15.0791 40.943C15.0497 40.943 15.0203 40.9137 14.9909 40.9137C14.7558 39.9732 14.7558 39.9732 14.8145 39.0033C14.8145 39.0327 14.8439 39.0621 14.8439 39.0915C14.8439 39.0915 15.3142 37.9746 15.226 37.622C15.1672 37.5926 15.1085 37.5338 15.0203 37.5044C15.0497 37.4456 15.0497 37.3868 15.0791 37.3574C14.8439 37.1517 14.8145 37.0929 14.7558 37.0929C14.7264 37.0929 14.697 37.1223 14.6676 37.1223C14.6382 37.0929 14.6088 37.0342 14.5794 36.9754C14.5206 36.9754 14.4619 37.0048 14.4325 37.0342C14.2855 37.0048 14.2855 37.0048 14.1974 37.0342C14.0504 36.8872 14.0504 36.8872 14.021 36.8578C13.9916 36.8872 13.9035 36.8872 13.8741 36.8872C13.8741 36.8578 13.8447 36.8284 13.8447 36.799C13.8153 36.799 13.7859 36.8284 13.7565 36.8284C13.7271 36.7696 13.6977 36.7109 13.6977 36.6521C13.7565 36.6227 13.8153 36.5345 13.8741 36.5345C13.9916 36.2112 14.1386 35.8585 14.2561 35.5353C14.2561 35.5353 14.2855 35.5059 14.2855 35.5646C14.4325 35.4177 14.4325 35.1826 14.55 35.0062C14.55 34.9475 14.55 34.8887 14.5794 34.8593C14.6088 34.8593 14.6382 34.8299 14.6676 34.8299C14.7852 34.536 15.0497 34.3009 15.0791 33.9482C14.9909 33.9776 14.9027 34.007 14.7852 33.86C14.7264 33.86 14.7264 33.8894 14.7264 33.8894C14.6676 33.8894 14.6676 33.8894 14.6676 33.8894C14.6382 33.9188 14.5794 33.9482 14.5206 33.9482C14.4619 33.9482 14.4619 33.9482 14.4619 33.9482C14.4619 33.9482 14.4619 33.9482 14.4325 33.9482C14.4325 33.9482 14.4325 33.9482 14.4031 33.9482C14.4031 33.9482 14.4031 33.9482 14.3737 33.9482C14.3737 33.9482 14.3737 33.9482 14.3443 33.9482C14.3443 33.9482 14.3443 33.9482 14.3149 33.9482C14.3149 33.9482 14.3149 33.9482 14.2855 33.9482C14.2855 33.9482 14.2855 33.9482 14.2561 33.9482C13.8153 34.1833 13.7859 34.7417 13.4038 35.0356C13.3744 35.065 13.3744 35.065 13.3744 35.065C13.345 35.1238 13.3157 35.1826 13.2569 35.1826C13.2275 35.1826 13.1981 35.1532 13.1981 35.1532C13.1981 35.1238 13.1981 35.0944 13.2275 35.065C13.0511 35.0062 12.7866 35.0062 12.6103 35.1238C12.5221 35.0356 12.4927 35.0062 12.5221 34.8593C12.0519 34.4184 12.4927 33.0077 12.4927 33.0077C12.4633 33.0371 12.4339 33.0665 12.4339 33.0665C12.4927 32.5081 12.8454 31.8321 12.9924 31.5676C13.0218 31.5088 13.0218 31.4794 13.0218 31.4794C13.0218 31.45 13.0218 31.45 13.0511 31.4206C13.0511 31.3912 13.0511 31.3912 13.0805 31.3619C13.0805 31.3325 13.0805 31.3325 13.1099 31.3031C13.1099 31.2737 13.1099 31.2737 13.1393 31.2443C13.1393 31.2149 13.1393 31.2149 13.1687 31.1855C13.1687 31.1561 13.1687 31.1561 13.1981 31.1267C13.1981 31.0973 13.1981 31.0973 13.2275 31.068C13.2569 31.068 13.2863 31.0973 13.3157 31.0973C13.4038 30.9798 13.4038 30.9798 13.8741 29.863C13.8741 29.8924 13.9035 29.9217 13.9035 29.9511C13.9035 29.9511 13.9035 29.9511 13.9035 29.9217C13.9035 29.9217 13.9035 29.9217 13.9035 29.8924C13.9035 29.8924 13.9035 29.8924 13.9035 29.863C13.9035 29.863 13.9035 29.863 13.9035 29.8336C13.9035 29.8336 13.9035 29.8336 13.9035 29.8042C13.9035 29.8042 13.9035 29.8042 13.9035 29.7748C13.9035 29.7748 13.9035 29.7748 13.9035 29.7454C13.9035 29.7454 13.9035 29.7454 13.9035 29.716C13.9328 29.716 13.9622 29.7454 13.9622 29.7454C13.9622 29.716 13.9916 29.6866 13.9916 29.6572C14.021 29.6572 14.0504 29.6572 14.0798 29.6866C14.1092 29.6278 14.1092 29.5691 14.1386 29.5397C14.1386 29.5691 14.168 29.5984 14.168 29.5984C14.3443 29.5984 14.4619 29.4515 14.6382 29.3927C14.6676 29.2164 14.6676 29.2164 14.7558 29.1576C14.7558 29.2164 14.7264 29.2752 14.697 29.3045C15.0203 29.2164 15.0203 29.2164 15.2554 29.4515C15.2848 29.4515 15.3436 29.4221 15.4024 29.3927C15.4317 29.3927 15.4611 29.4221 15.4611 29.4221C15.4611 29.4515 15.4317 29.4809 15.4317 29.4809C15.4611 29.5103 15.4611 29.5103 15.4905 29.5397C15.4317 29.6866 15.4317 29.6866 15.4905 29.7748C15.5787 29.7748 15.6375 29.8042 15.6963 29.8042C15.7256 29.7748 15.7256 29.7454 15.755 29.7454C15.8726 29.9217 15.8726 29.9217 15.902 29.9805C15.902 29.9217 15.9314 29.863 15.9608 29.8336C15.9608 29.7748 15.9902 29.716 16.0195 29.6866C16.0489 29.6866 16.0783 29.6866 16.1077 29.6866C16.1371 29.6572 16.1371 29.6278 16.1665 29.5984C16.1665 29.5691 16.1371 29.5397 16.1371 29.5103C16.1077 29.5397 16.1077 29.5397 16.0783 29.5691C16.0783 29.5397 16.0783 29.5103 16.0783 29.4809C16.2841 29.4221 16.3428 29.4221 16.5486 29.4515C16.6073 29.4515 16.6073 29.4515 16.6073 29.4515C16.6073 29.4515 16.6073 29.4515 16.6073 29.4221C16.6073 29.4221 16.6073 29.4221 16.6073 29.3927C16.6073 29.3927 16.6073 29.3927 16.6073 29.3633C16.6073 29.3633 16.6073 29.3633 16.6073 29.3339C16.6073 29.3339 16.6073 29.3339 16.6073 29.3045C16.6073 29.3045 16.6073 29.3045 16.6073 29.2752C16.6073 29.2752 16.6073 29.2752 16.6073 29.2458C16.6073 29.3045 16.578 29.3633 16.578 29.3927C16.578 29.4221 16.6073 29.4515 16.6367 29.4515C16.6661 29.4515 16.6955 29.4515 16.7249 29.4515C16.7543 29.4221 16.7837 29.3927 16.8131 29.3927C16.8719 29.4809 16.9012 29.4809 17.0188 29.4515C17.0482 29.5984 17.1658 29.716 17.1364 29.863C17.2833 29.9511 17.4303 29.8336 17.5478 29.8336C17.6066 29.8924 17.636 30.0393 17.636 30.1569C17.783 29.716 18.0181 29.3339 18.4001 28.9813C18.8704 28.5404 19.4288 28.3053 20.0166 28.2465L20.5162 28.2171C20.6338 28.1877 20.7514 28.1289 20.8395 28.0408C20.7807 27.9526 20.7807 27.9526 20.8689 27.7763C20.8689 27.7763 21.0746 27.9526 21.2216 27.5999C21.2216 27.5705 21.2216 27.5705 21.251 27.5411C21.3392 27.2178 21.3392 27.2178 21.3685 27.1591C21.4273 27.0415 21.4567 27.0415 21.4567 27.0415C21.5743 26.7476 21.8976 26.63 22.0739 26.3655C22.0445 26.3361 22.6617 26.0422 22.7205 25.6896C22.7793 25.6602 22.8968 25.6014 23.2201 25.6014L23.9843 20.9577C24.0724 20.3699 24.3663 19.8409 24.8366 19.4001C24.866 19.3707 24.8954 19.3413 24.9541 19.3119C24.8954 19.2531 24.8366 19.2237 24.8072 19.165C24.7484 19.165 24.6602 19.165 24.6015 19.165C24.6015 18.9298 24.5133 18.8417 24.4545 18.7829C24.4545 18.6359 24.4839 18.5184 24.4839 18.3714C24.4545 18.342 24.4251 18.342 24.3957 18.3126C24.3957 18.2832 24.3957 18.2539 24.3957 18.2245C24.3957 18.1657 24.3957 18.1657 24.3957 18.1657C24.2488 18.1363 24.2194 18.1363 24.0431 18.1657C24.2194 17.9893 24.3957 17.7836 24.5721 17.5779C24.5133 17.813 24.5133 17.813 24.5133 17.813C24.4839 17.813 24.4545 17.813 24.4251 17.813C24.5427 17.4603 25.7771 16.8725 26.1004 16.8137C26.3355 16.7256 26.3355 16.7256 26.3943 16.6962C26.7469 16.9019 28.481 16.0202 28.5985 15.9026C28.6279 15.9026 28.6573 15.932 28.6867 15.932C28.6573 15.9614 28.6573 15.9908 28.6279 16.0202C28.6573 16.0202 28.7161 16.0202 28.7455 16.0202C28.6867 16.0496 28.8043 16.079 28.9512 15.932C28.9512 15.9614 28.9218 15.9908 28.9218 16.0202C29.539 16.0496 29.8035 15.4618 30.2738 15.2267C30.3032 15.1091 30.3032 14.9916 30.3325 14.8446C30.3619 14.6977 30.3913 14.5801 30.4207 14.4625C30.3619 14.4919 30.3032 14.5213 30.2444 14.5507C30.2738 14.5801 30.1856 14.6389 30.1562 14.6389V14.9034C30.1268 14.9328 30.0386 15.0797 30.0386 15.0797H30.0092H29.9799H29.9505H29.9211H29.8917H29.8623H29.8329C29.7741 15.1091 29.7153 15.1679 29.6566 15.1973C29.5978 15.2267 29.5978 15.2267 29.5978 15.2267C29.2745 15.403 29.2745 15.2561 29.4214 15.0209C29.3627 15.0209 29.2745 15.0209 29.2157 15.0503C29.2451 15.0209 29.2745 14.9916 29.2745 14.9916C29.3039 14.9916 29.3039 14.9916 29.3039 14.9916C29.3627 14.9622 29.4214 14.9034 29.4214 14.7858C29.4802 14.7564 29.4802 14.7564 29.4508 14.7564C29.4214 14.7858 29.4508 14.727 29.4214 14.7564C29.7153 14.4037 30.1268 14.3156 30.5089 14.1098C30.5089 14.0511 30.5383 13.9923 30.5383 13.9335C30.215 14.0511 29.8917 14.2274 29.7741 14.2862C29.686 14.2862 29.686 14.2862 29.686 14.2862C29.686 14.2862 29.0982 14.6095 29.0394 14.6977C29.0394 14.727 29.0688 14.7564 29.0688 14.7858C28.863 14.874 28.8336 14.9328 28.863 14.9034C28.6279 15.0209 28.5397 14.874 28.6279 14.874C28.7161 14.7564 28.7455 14.727 28.863 14.6683C28.863 14.6389 28.8924 14.6095 28.8924 14.5801C28.8924 14.5801 28.4222 14.5801 28.3046 14.8446C28.1871 14.8446 28.1871 14.8446 28.0107 14.9328C27.9813 14.9328 27.9813 14.9328 27.9813 14.9328C27.9519 14.9328 27.9226 14.9622 27.8932 14.9622C27.8638 14.9328 27.8638 14.9034 27.8344 14.874C27.7462 14.9916 27.7462 14.9916 27.7462 14.9916C27.7168 14.9916 27.658 14.9916 27.6286 14.9916C27.5993 14.9622 27.5699 14.9328 27.5699 14.9034C27.5993 14.874 27.6286 14.8446 27.6286 14.8152C27.5993 14.8152 27.5699 14.8152 27.5405 14.8152C27.5699 14.7858 27.5993 14.7564 27.6286 14.7564C27.658 14.727 27.658 14.727 27.8932 14.5801C27.5993 14.4919 27.3347 14.6095 27.3054 14.6095C27.276 14.6389 27.276 14.6095 27.276 14.5801C27.2466 14.5801 27.1878 14.5801 27.1584 14.5801C27.1584 14.5507 27.1584 14.5507 27.1584 14.5507C27.129 14.5507 27.0996 14.5507 27.0702 14.5213C27.0408 14.4331 27.0408 14.4331 27.0408 14.4331C27.1878 14.2274 27.4229 14.2862 27.5993 14.1392C27.5699 14.1098 27.5699 14.0805 27.5405 14.0511C27.5993 14.0217 27.5993 14.0217 27.5993 14.0217C27.6286 14.0217 27.658 13.9923 27.6874 13.9629C27.6874 13.9335 27.6874 13.9335 27.6874 13.9335C27.7462 13.9041 27.7462 13.9041 27.7462 13.9041C27.805 13.8747 27.8638 13.8159 27.9225 13.7866C27.8932 13.7866 27.9813 13.669 28.1283 13.6102C28.0695 13.6102 28.1577 13.522 28.3634 13.4045C28.0989 13.4045 27.9813 13.4045 28.0401 13.4045C28.0107 13.4045 28.0107 13.3751 27.9813 13.3751C27.9519 13.3751 27.8638 13.4045 27.8344 13.4045C27.8638 13.4045 27.8638 13.3751 27.8932 13.3751C27.8344 13.3751 27.805 13.4045 27.7462 13.4045C27.7756 13.4045 27.7756 13.3751 27.805 13.3751C27.8344 13.3751 27.8344 13.3751 27.8344 13.3751C27.8638 13.3751 27.8932 13.3457 27.8932 13.3457C27.8638 13.3457 27.8638 13.3457 27.8344 13.3457C21.6037 15.7263 16.3722 20.1054 12.8748 25.6896C12.7572 25.9541 12.5809 26.3361 12.3164 26.8652L12.287 26.9239C11.9343 27.6881 11.9343 27.6881 11.9343 27.7469C11.9049 27.8057 11.9049 27.8057 11.5816 28.5698C11.5816 28.511 11.5816 28.4816 11.5522 28.4522C11.4641 28.658 11.4347 28.8637 11.3759 29.0694H11.4053C11.3759 29.2164 11.3759 29.3633 11.3171 29.5103C11.2583 29.716 11.1114 29.8924 11.0232 30.0687C10.9938 30.1569 10.9938 30.2744 10.9644 30.3626C10.9938 30.3332 10.9938 30.3332 11.0232 30.3038C10.9057 30.6271 10.9057 30.9798 10.8175 31.3031C10.8469 31.2443 10.9057 31.2149 10.9644 31.1855C10.9644 31.1855 11.1114 30.921 11.1114 30.5389C11.1114 30.5389 12.1107 27.4824 12.4339 26.9533C12.4339 26.9239 12.4339 26.9239 12.4339 26.9239C12.4927 26.8652 12.5515 26.7476 12.5809 26.6888C12.6103 26.7182 12.6397 26.7182 12.6691 26.7476C12.6397 26.8652 12.6103 26.9827 12.5515 27.1003L12.5221 27.1297C12.4046 27.3354 12.0519 28.0996 12.0519 28.0996C12.0519 28.1583 12.0519 28.1583 12.0519 28.1583L10.9644 32.8608C10.9351 32.8608 10.9057 32.8901 10.8763 32.8901C10.7881 33.3604 10.6999 33.6837 10.9351 34.4478C11.1114 34.536 11.4053 35.6528 11.4053 35.7116C11.5522 35.8586 11.6404 36.0937 11.758 36.27C11.7874 36.27 11.7874 36.27 11.7874 36.27C11.8755 36.2406 11.9343 36.1818 12.0519 36.1818C12.1107 36.0937 12.1107 36.0937 12.3458 36.1818C12.3752 36.2112 12.3752 36.2112 12.3752 36.2112C12.3752 36.2406 12.4339 36.2994 12.4633 36.3288C12.4927 36.7696 12.7572 37.1517 12.7572 37.5926C13.1099 37.7983 13.1393 37.7983 13.1687 38.0334C13.1981 38.0628 13.1981 38.0628 13.1981 38.0628C13.1981 38.0628 13.1981 38.0628 13.2275 38.0628C13.2275 38.0628 13.2275 38.0628 13.2569 38.0628C13.2569 38.0628 13.2569 38.0628 13.2863 38.0628C13.2863 38.0628 13.2863 38.0628 13.3157 38.0628C13.4332 38.2685 13.6683 38.2391 13.8153 38.3861C13.8153 38.4155 13.8153 38.4449 13.8153 38.4743C13.7859 38.4743 13.7565 38.4743 13.7271 38.4449C13.7271 38.4743 13.6683 38.5037 13.6977 38.5331C13.7565 38.8563 14.021 39.4441 14.021 39.4735C14.1974 39.7674 13.9328 40.0319 14.021 40.3259C14.0504 40.414 14.1386 40.4434 14.1386 40.5316C14.168 40.5316 14.1974 40.5022 14.2267 40.5022C14.2267 40.4728 14.2561 40.4434 14.2561 40.3846C14.2561 40.3552 14.2855 40.3258 14.2855 40.2965C14.4913 40.6198 14.4031 41.0312 14.6676 41.3545C14.6676 41.3251 14.6676 41.2957 14.697 41.2663C14.7264 41.2663 14.7558 41.2663 14.7852 41.2663C14.8145 41.3545 14.7852 41.4427 14.8145 41.5308C14.8439 41.5602 14.8439 41.5602 14.8439 41.5602C15.1672 41.7072 15.1966 41.766 15.3142 42.0893C15.3436 42.0599 15.3436 42.0305 15.373 42.0305C15.4317 42.148 15.4024 42.2656 15.4611 42.3538C15.4905 42.3538 15.4905 42.3538 15.7256 42.295C15.7256 42.1186 15.6669 41.9423 15.6669 41.766C15.8138 41.766 15.8138 41.766 15.9608 41.5015C16.0195 41.5015 16.0783 41.5015 16.1371 41.5015C16.1371 41.4133 16.1665 41.2957 16.1665 41.2076C16.1371 41.1782 16.1371 41.1782 16.1077 41.1488C15.7844 41.1194 15.5787 41.3251 15.3142 41.3545Z" fill="white"/>
<path d="M28.45 79.357C29.0378 78.5928 29.3317 78.152 29.3317 77.7111C29.3317 77.2115 28.979 76.947 28.45 76.947C28.0386 76.947 27.5095 77.1233 27.0687 77.476V76.271C27.4214 76.0359 27.8916 75.8008 28.5676 75.8008C29.7138 75.8008 30.6249 76.5061 30.6249 77.623C30.6249 78.2696 30.3016 78.8867 29.7138 79.7097L29.0084 80.6501V80.6795H30.8306V81.7964H26.6572V81.767L28.45 79.357Z" fill="#143453"/>
<path d="M33.7995 81.0323C33.4468 80.5327 33.2705 79.8273 33.2705 78.7987C33.2705 77.77 33.4468 77.0646 33.7995 76.565C34.1816 76.036 34.7694 75.7715 35.416 75.7715C36.0626 75.7715 36.6504 76.036 37.0324 76.565C37.3851 77.0646 37.5615 77.77 37.5615 78.7987C37.5615 79.8273 37.3851 80.5327 37.0324 81.0323C36.6504 81.5613 36.0626 81.8258 35.416 81.8258C34.7694 81.8258 34.1816 81.532 33.7995 81.0323ZM36.0038 80.3563C36.2095 80.0918 36.2683 79.6216 36.2683 78.7987C36.2683 78.0639 36.2095 77.5643 36.0038 77.241C35.8862 77.0647 35.6805 76.9177 35.416 76.9177C35.1515 76.9177 34.9457 77.0353 34.8282 77.241C34.6225 77.5349 34.5637 78.0639 34.5637 78.7987C34.5637 79.5922 34.6518 80.0624 34.8282 80.3563C34.9457 80.5327 35.1515 80.6796 35.416 80.6796C35.6805 80.6502 35.8862 80.5327 36.0038 80.3563Z" fill="#143453"/>
<path d="M41.5291 79.357C42.1169 78.5928 42.4108 78.152 42.4108 77.7111C42.4108 77.2115 42.0581 76.947 41.5291 76.947C41.1177 76.947 40.5886 77.1233 40.1478 77.476V76.271C40.5005 76.0359 40.9707 75.8008 41.6467 75.8008C42.7929 75.8008 43.704 76.5061 43.704 77.623C43.704 78.2696 43.3807 78.8867 42.7929 79.7097L42.0875 80.6501V80.6795H43.9097V81.7964H39.7363V81.767L41.5291 79.357Z" fill="#143453"/>
<path d="M46.3488 80.1211C46.8778 80.4444 47.4656 80.6795 47.9653 80.6795C48.5237 80.6795 48.8764 80.415 48.8764 79.9742C48.8764 79.5627 48.5531 79.2982 47.8771 79.2982H47.2893V78.3283H47.8477C48.4943 78.3283 48.7882 78.0344 48.7882 77.623C48.7882 77.1821 48.4355 76.9176 47.9065 76.9176C47.495 76.9176 47.0248 77.0646 46.7015 77.2703V76.1241C47.0542 75.9183 47.5244 75.8008 47.9947 75.8008C49.1997 75.8008 50.052 76.5061 50.052 77.4172C50.052 78.005 49.7287 78.4753 49.1703 78.681V78.7104C49.8169 78.9455 50.1401 79.4745 50.1401 80.0917C50.1401 81.1204 49.1997 81.8258 47.9947 81.8258C47.3481 81.8258 46.7015 81.6494 46.29 81.3849V80.1211H46.3488Z" fill="#143453"/>
<path d="M28.4508 35.6247C26.805 35.6247 25.5706 35.0663 24.8358 33.9201C24.1011 32.8621 23.9541 31.4219 24.3656 29.6585C24.777 27.9539 25.5706 26.602 26.7168 25.6027C27.9218 24.5446 29.3325 24.0156 30.9196 24.0156C32.3303 24.0156 33.4177 24.3683 34.2113 25.0443L34.2407 25.0737C35.0342 25.8378 35.3869 26.8371 35.2693 28.0715L35.2105 28.718H35.1518L33.5647 35.3602H32.4479C31.8895 35.3602 31.478 35.1545 31.2135 34.8018C30.9784 34.9781 30.7139 35.0957 30.4493 35.2133C29.7734 35.5072 29.1268 35.6247 28.4508 35.6247ZM30.5963 27.2192C29.9497 27.2192 29.4207 27.4543 28.9211 27.8951C28.4214 28.3948 28.0394 29.1295 27.8336 30.0112C27.6279 30.8635 27.6573 31.5101 27.8924 31.951C28.01 32.1861 28.2745 32.4506 29.0974 32.4506C29.597 32.4506 30.0379 32.3036 30.42 32.0391C30.5081 31.9804 30.5963 31.8922 30.6845 31.804C30.0967 31.7746 29.7734 31.4807 29.5676 31.2456C29.3619 30.9811 29.1562 30.5402 29.3031 29.923L29.597 28.718H32.8006C32.2715 28.6005 31.8895 28.2772 31.7425 27.7482C31.7131 27.6306 31.6249 27.5424 31.5368 27.4543C31.3604 27.2779 31.0371 27.2192 30.5963 27.2192Z" fill="white"/>
<path d="M30.9496 24.7507C32.1546 24.7507 33.0951 25.0446 33.7711 25.603C34.4177 26.2202 34.6822 27.0137 34.594 28.013H33.2127C32.8012 28.013 32.5661 27.8366 32.4485 27.4839C32.3604 27.2488 32.2134 27.0431 32.0371 26.8668C31.7138 26.6022 31.2435 26.4847 30.6263 26.4847C29.8034 26.4847 29.098 26.7786 28.4809 27.3664C27.8637 27.9836 27.4228 28.8065 27.1583 29.8352C26.8938 30.8932 26.9526 31.7161 27.3052 32.3039C27.6285 32.8917 28.2457 33.1562 29.1274 33.1562C29.774 33.1562 30.3618 32.9799 30.8615 32.6272C31.3611 32.2451 31.7725 31.7455 32.0371 31.0989H30.8321C30.5382 31.0989 30.3324 31.0108 30.1855 30.805C30.0385 30.5993 29.9798 30.3642 30.0679 30.0997L30.2149 29.4531H34.3001L33.0363 34.6845H32.5073C31.9783 34.6845 31.7138 34.42 31.6844 33.891V33.5383C31.2141 34.0379 30.7145 34.3906 30.1855 34.5964C29.6271 34.8021 29.0687 34.9196 28.4809 34.9196C27.0701 34.9196 26.0709 34.4494 25.4831 33.5383C24.8659 32.6566 24.7483 31.4222 25.1304 29.8352C25.5124 28.2775 26.2178 27.0725 27.2465 26.1614C28.2751 25.2209 29.5095 24.7507 30.9496 24.7507C30.9202 24.7507 30.9202 24.7507 30.9496 24.7507ZM30.9496 23.3105C29.1862 23.3105 27.5992 23.8983 26.2472 25.074C24.9834 26.1614 24.1311 27.6603 23.6903 29.5119C23.22 31.481 23.3964 33.0975 24.2781 34.3612C24.8953 35.2723 26.1003 36.3598 28.4809 36.3598C29.245 36.3598 30.0091 36.2128 30.7145 35.9483H30.7439H30.7733C30.9202 35.8895 31.0378 35.8307 31.1554 35.772C31.508 36.0071 31.9783 36.154 32.4779 36.154H33.0363H34.1825L34.4471 35.0666L35.7108 29.8352L35.7696 29.5413H35.9166L36.0047 28.5126L36.1223 28.0424H36.0635C36.1517 26.6904 35.7108 25.5148 34.7997 24.6331L34.7703 24.6037L34.741 24.5743C33.7711 23.722 32.5073 23.3105 30.9496 23.3105ZM30.1267 27.9836C30.2737 27.9542 30.4206 27.9248 30.5969 27.9248C30.8908 27.9248 31.0378 27.9542 31.0966 27.9836H30.1855H30.1267ZM29.0393 31.7161C28.8629 31.7161 28.5984 31.6867 28.5102 31.5692C28.3633 31.3047 28.3633 30.805 28.5102 30.1584C28.5102 30.1291 28.5396 30.0703 28.5396 30.0409C28.4809 30.6287 28.6278 31.2165 28.9805 31.6867C29.0099 31.6867 29.0393 31.7161 29.0393 31.7161Z" fill="#183257"/>
<path d="M35.5065 24.3086H37.0936C37.7108 24.3086 38.0635 24.6025 38.2692 24.8376C38.4749 25.1021 38.6807 25.5136 38.5337 26.1308L36.3001 35.3887H32.832L35.5065 24.3086Z" fill="white"/>
<path d="M37.1219 25.0143C37.3864 25.0143 37.5921 25.1025 37.7391 25.2788C37.886 25.4552 37.9154 25.6609 37.8566 25.9254L35.7699 34.6249H33.7714L36.0932 24.9849L37.1219 25.0143ZM37.1219 23.5742H36.0932H34.9764L34.7119 24.6617L32.3901 34.3016L31.9492 36.0944H33.7714H35.7699H36.8868L37.1513 35.007L39.238 26.3075C39.4143 25.6021 39.2674 24.9262 38.8265 24.3971C38.415 23.8681 37.7979 23.5742 37.1219 23.5742Z" fill="#183257"/>
<path d="M39.6491 35.5078C39.2964 35.5078 38.9731 35.4784 38.6499 35.3902C37.8857 35.2139 37.3273 34.8906 36.9158 34.4498C36.5044 34.0089 36.2399 33.3917 36.2105 32.657C36.1811 32.0104 36.2399 31.3638 36.3868 30.6584C36.5338 30.1 36.7395 29.5416 37.0334 28.9832C37.3273 28.3954 37.7094 27.8958 38.1796 27.5137C38.9144 26.8671 39.7667 26.4556 40.7072 26.3381C41.0011 26.3087 41.2656 26.2793 41.5301 26.2793C42.1179 26.2793 42.6469 26.3675 43.1172 26.5438C43.9989 26.9259 44.5867 27.5725 44.7924 28.4836C44.9981 29.1889 44.9981 30.0412 44.763 30.9817C44.616 31.6283 44.3809 32.2161 44.1164 32.6863C43.8519 33.1566 43.558 33.5974 43.2347 33.9207C42.5294 34.6555 41.7358 35.0963 40.8541 35.2727C40.472 35.449 40.0606 35.5078 39.6491 35.5078ZM39.6785 32.3924C39.7079 32.3924 39.7373 32.4218 39.8255 32.4806C39.8842 32.51 39.943 32.51 40.0018 32.51C40.0606 32.51 40.1488 32.51 40.2369 32.4806C40.4133 32.4218 40.619 32.2749 40.8247 32.0692C40.9717 31.8928 41.2068 31.5401 41.4125 30.7466C41.5889 30.0412 41.5007 29.7473 41.4713 29.6886C41.4419 29.6004 41.3831 29.4828 41.295 29.4534C41.2362 29.424 41.1774 29.424 41.0892 29.424C41.0305 29.424 40.9423 29.424 40.8541 29.4534C40.5896 29.5416 40.4427 29.6004 40.4133 29.6592C40.0606 29.9531 39.7961 30.4821 39.6785 31.1581C39.5316 32.0692 39.6785 32.3631 39.6785 32.3924Z" fill="white"/>
<path d="M41.5304 27.0143C42.03 27.0143 42.4709 27.1025 42.8824 27.2495C43.5289 27.514 43.9698 28.0136 44.1461 28.6896C44.3225 29.3068 44.3225 30.0121 44.1167 30.8351C43.9698 31.4229 43.7935 31.9519 43.5583 32.3633C43.3232 32.8042 43.0587 33.1569 42.7942 33.4508C42.177 34.068 41.501 34.45 40.7663 34.597C40.3842 34.6852 40.0315 34.7439 39.6788 34.7439C39.3849 34.7439 39.1204 34.7146 38.8265 34.6558C38.2093 34.5088 37.7685 34.2737 37.4746 33.9504C37.1513 33.6271 36.9749 33.1569 36.9456 32.5985C36.9162 32.04 36.9749 31.4229 37.1219 30.8057C37.2395 30.306 37.4452 29.8064 37.7097 29.3068C37.9742 28.8071 38.2975 28.3957 38.6796 28.043C39.2968 27.4846 40.0315 27.1613 40.8251 27.0437C41.0602 27.0437 41.2953 27.0143 41.5304 27.0143ZM40.0315 33.2157C40.1491 33.2157 40.296 33.1863 40.443 33.1569C40.7663 33.0687 41.0602 32.863 41.3835 32.5397C41.7068 32.2164 41.9419 31.658 42.1476 30.9232C42.324 30.2472 42.324 29.7476 42.177 29.4243C42.0301 29.101 41.8243 28.8659 41.5892 28.7777C41.4422 28.719 41.2953 28.719 41.1483 28.719C41.0014 28.719 40.8838 28.7484 40.7369 28.7777C40.443 28.8659 40.2079 28.9835 40.0315 29.101C39.5319 29.5419 39.1792 30.1591 39.0323 31.0114C38.8559 31.8637 38.8853 32.4515 39.091 32.8042C39.1792 32.9511 39.3262 33.0687 39.5907 33.1863C39.7082 33.1863 39.8846 33.2157 40.0315 33.2157ZM41.5304 25.5742C41.2365 25.5742 40.9426 25.6036 40.6193 25.633C39.5319 25.7799 38.5326 26.2208 37.7097 26.9849C37.1807 27.4258 36.7692 28.0136 36.4165 28.6602C36.0932 29.2774 35.8581 29.8946 35.7112 30.5118C35.5348 31.2759 35.4467 32.0107 35.5054 32.716C35.5642 33.6271 35.8581 34.3913 36.4165 34.9497C36.9162 35.5081 37.6215 35.8902 38.5032 36.0959C38.8853 36.1841 39.2674 36.2134 39.6494 36.2134C40.0903 36.2134 40.5605 36.1547 41.0308 36.0371C42.03 35.8314 42.9705 35.3024 43.7641 34.4794C44.1167 34.0974 44.4694 33.6271 44.7633 33.0981C45.0572 32.5691 45.2924 31.9225 45.4687 31.1877C45.7332 30.1297 45.7332 29.1598 45.4981 28.3075C45.2042 27.1907 44.4988 26.3678 43.4114 25.8975H43.382H43.3526C42.853 25.6918 42.2064 25.5742 41.5304 25.5742ZM40.3842 31.4816C40.3842 31.4229 40.4136 31.3347 40.4136 31.2759C40.5018 30.8644 40.6193 30.5412 40.7957 30.3354C40.7957 30.3942 40.7663 30.4824 40.7369 30.5705C40.6193 31.0702 40.4724 31.3347 40.3842 31.4816Z" fill="#183257"/>
<path d="M47.4086 35.5063C46.3505 35.5063 45.41 35.2418 44.6165 34.6834C43.676 34.0368 43.4115 32.8612 43.7936 31.2448L45.4688 24.2793H46.9971C47.4967 24.2793 47.9082 24.485 48.1727 24.8377C48.3784 25.1022 48.5842 25.5137 48.4372 26.1309L48.349 26.5423C48.7605 26.3954 49.2014 26.3366 49.6716 26.3366C50.8472 26.3366 51.7289 26.8362 52.2285 27.8061C52.6988 28.6878 52.787 29.8046 52.4637 31.1566C52.1404 32.4498 51.582 33.5078 50.7296 34.3307C50.2594 34.7716 49.7304 35.0949 49.0838 35.2712C48.5548 35.4182 47.967 35.5063 47.4086 35.5063ZM48.7899 29.4226C48.4372 29.4226 48.1727 29.5401 47.9376 29.7753C47.6731 30.0692 47.438 30.4806 47.3204 31.039C47.1147 31.9207 47.2322 32.2146 47.2616 32.244C47.3204 32.3322 47.3498 32.4498 47.6731 32.4498C48.0258 32.4498 48.2903 32.3322 48.5254 32.0677C48.8193 31.7738 49.025 31.3035 49.172 30.6863C49.3189 30.0398 49.2601 29.7459 49.172 29.6283C49.1132 29.5107 49.0838 29.4226 48.7899 29.4226Z" fill="white"/>
<path d="M47.056 24.985C47.3205 24.985 47.5262 25.0732 47.6732 25.2496C47.8201 25.4259 47.8495 25.661 47.7907 25.9255L47.2617 28.1592C47.5556 27.8065 47.9377 27.5126 48.3785 27.2775C48.7606 27.1011 49.2014 26.9836 49.7011 26.9836C50.5828 26.9836 51.2294 27.3362 51.6408 28.071C52.0229 28.8058 52.0817 29.7462 51.8172 30.8925C51.5526 32.0387 51.0236 33.0085 50.2889 33.7139C49.9068 34.0666 49.466 34.3311 48.9369 34.4781C48.4079 34.625 47.9083 34.7132 47.438 34.7132C46.5269 34.7132 45.7334 34.4781 45.0574 34.0078C44.3815 33.5376 44.2051 32.6559 44.5284 31.3333L46.0861 24.9263L47.056 24.985ZM47.6438 33.1555C48.1728 33.1555 48.643 32.9498 49.0251 32.5677C49.4072 32.1856 49.6717 31.5978 49.8774 30.8631C50.0538 30.1871 50.0244 29.6581 49.8186 29.3054C49.6129 28.9233 49.2896 28.7176 48.79 28.7176C48.261 28.7176 47.7907 28.8939 47.438 29.276C47.056 29.6581 46.7914 30.1871 46.6151 30.8631C46.4388 31.6566 46.4094 32.215 46.6151 32.5677C46.7914 32.9498 47.1441 33.1555 47.6438 33.1555ZM47.056 23.5449H46.0861H44.9693L44.7047 24.6324L43.1471 31.0394C42.5593 33.4788 43.4116 34.6838 44.2345 35.2422C45.1456 35.8888 46.2036 36.1827 47.4086 36.1827C48.0258 36.1827 48.6724 36.0945 49.3484 35.8888C50.0831 35.6537 50.7297 35.301 51.2587 34.772C52.1992 33.8315 52.8458 32.6559 53.1985 31.2451C53.5512 29.7462 53.463 28.4531 52.8752 27.395C52.2286 26.2194 51.0824 25.5435 49.6717 25.5435C49.5247 25.5435 49.3778 25.5435 49.2308 25.5728C49.2014 25.132 49.0545 24.6911 48.79 24.3385C48.3785 23.8388 47.7613 23.5449 47.056 23.5449ZM48.4373 30.2753C48.4667 30.2459 48.4961 30.2165 48.5255 30.2165C48.5255 30.3047 48.4961 30.3928 48.4667 30.5398C48.3197 31.157 48.114 31.4509 47.9964 31.5978C47.9671 31.6272 47.9377 31.6566 47.9377 31.6566C47.9671 31.539 47.9671 31.3921 48.0258 31.2157C48.0846 30.7749 48.2316 30.481 48.4373 30.2753Z" fill="#183257"/>
<path d="M53.8742 35.4783C53.0219 35.4783 52.3166 35.2432 51.7582 34.773C51.3173 34.3909 50.8471 33.6561 51.1997 32.2454C51.4349 31.2755 51.9051 30.5702 52.6399 30.1293C52.8456 30.0118 53.0513 29.8942 53.257 29.806H51.8757L52.2284 28.8361C52.4929 28.1308 52.9631 27.5136 53.6391 27.0727C54.3739 26.5731 55.3144 26.3086 56.4018 26.3086C57.6656 26.3086 58.5473 26.5437 59.1351 26.9846C59.6053 27.3666 60.1343 28.1014 59.8404 29.277L59.2232 31.8339C59.0175 32.6863 58.6648 33.3916 58.224 33.8912C57.7831 34.3909 57.2835 34.7436 56.7839 34.9787C56.2842 35.2138 55.7552 35.3608 55.1968 35.4195C54.6678 35.4783 54.2563 35.4783 53.8742 35.4783ZM54.4327 32.5393C54.462 32.5393 54.4914 32.5393 54.5208 32.5393C54.9029 32.5393 55.1968 32.4511 55.4319 32.2454C55.5495 32.1572 55.6377 32.0691 55.6964 31.9515L55.0792 32.0691C54.8147 32.1278 54.6678 32.216 54.5796 32.2748C54.5208 32.363 54.462 32.4511 54.4327 32.5393Z" fill="white"/>
<path d="M56.4024 27.0143C57.4604 27.0143 58.2246 27.1907 58.6654 27.5434C59.1357 27.9254 59.2826 28.4251 59.1063 29.101L58.4891 31.658C58.3128 32.3927 58.0189 32.9805 57.6662 33.4214C57.2841 33.8328 56.8726 34.1561 56.4612 34.3325C56.0203 34.5382 55.5501 34.6558 55.1092 34.7146C54.639 34.7733 54.2569 34.7733 53.9042 34.7733C53.2283 34.7733 52.6699 34.597 52.229 34.2443C51.7882 33.8916 51.7 33.2744 51.9057 32.4515C52.0821 31.658 52.4641 31.0996 53.0225 30.7763C53.581 30.453 54.2275 30.2179 54.9623 30.1003C55.0505 30.1003 55.168 30.1003 55.315 30.0709C55.4619 30.0415 55.6089 30.0121 55.7852 30.0121C56.6375 29.8946 57.1372 29.6594 57.2253 29.2774C57.2841 28.9835 57.1959 28.8071 56.902 28.719C56.6375 28.6308 56.373 28.6014 56.1085 28.6014C55.844 28.6014 55.6089 28.6308 55.3737 28.719C55.1386 28.8071 54.9623 28.9247 54.8153 29.1304H52.905C53.1107 28.5426 53.4928 28.0724 54.0512 27.6903C54.639 27.2201 55.4325 27.0143 56.4024 27.0143C56.373 27.0143 56.373 27.0143 56.4024 27.0143ZM56.8139 30.8644C56.52 30.982 56.1085 31.129 55.6089 31.2171L54.9035 31.3641C54.5508 31.4522 54.2569 31.5698 54.0806 31.7168C53.9042 31.9225 53.7867 32.1282 53.7279 32.334C53.6691 32.6279 53.6985 32.8336 53.8161 33.0099C53.963 33.1569 54.1688 33.245 54.492 33.245C55.0211 33.245 55.4913 33.0981 55.844 32.8042C56.2261 32.5103 56.4612 32.0988 56.6081 31.5698L56.8139 30.8644ZM56.4024 25.5742C55.1386 25.5742 54.0806 25.8681 53.1989 26.4853C52.4053 27.0143 51.8469 27.7491 51.5236 28.6014L50.7889 30.5412H51.1416C50.8477 30.982 50.6125 31.511 50.4656 32.0988C50.0541 33.8622 50.6713 34.8321 51.2591 35.3317C51.9351 35.9195 52.8168 36.2134 53.8455 36.2134C54.2569 36.2134 54.6978 36.1841 55.1974 36.1253C55.8146 36.0665 56.4024 35.8902 56.9902 35.6256C57.6074 35.3611 58.1658 34.9203 58.6654 34.3619C59.1945 33.7741 59.6059 32.9511 59.841 31.9813L60.4582 29.4243C60.7521 28.1899 60.4289 27.1319 59.5178 26.3971C58.8124 25.8387 57.7837 25.5742 56.4024 25.5742Z" fill="#183257"/>
<path d="M60.1335 24.2793H61.7206C62.3377 24.2793 62.6904 24.5732 62.8962 24.8083C63.1901 25.161 63.2782 25.6312 63.1607 26.1015L60.927 35.3594H57.459L60.1335 24.2793Z" fill="white"/>
<path d="M61.7498 24.985C62.0143 24.985 62.2201 25.0732 62.367 25.2496C62.514 25.4259 62.5433 25.6316 62.4846 25.8961L60.3979 34.5956H58.3993L60.7212 24.9556L61.7498 24.985ZM61.7498 23.5449H60.7212H59.6043L59.3398 24.6324L57.018 34.2723L56.5771 36.0651H58.3993H60.3979H61.5147L61.7792 34.9777L63.8659 26.2782C64.0422 25.5728 63.8953 24.8969 63.4544 24.3678C63.043 23.8094 62.4258 23.5449 61.7498 23.5449Z" fill="#183257"/>
<path d="M16.8735 34.7432C16.991 34.3024 17.2262 33.9203 17.6082 33.6264C17.9903 33.3325 18.4018 33.1855 18.8426 33.1855H22.5752C23.8683 33.1855 24.7794 33.4794 25.3085 34.0966C25.8963 34.7432 26.0432 35.6543 25.7787 36.8005C25.6024 37.5059 25.3085 38.1231 24.8382 38.5933C24.6913 38.7697 24.5149 38.9166 24.3386 39.0636C24.3974 39.1811 24.4561 39.2693 24.4855 39.3575C24.6325 39.7395 24.6325 40.3273 24.4855 41.1503L24.2504 42.3259L24.1622 42.6786C24.1328 42.7667 24.1328 42.8549 24.1328 42.9137C24.1328 42.9431 24.1328 42.9725 24.1328 43.0018L26.102 44.2362H20.8118L20.6648 43.7072C20.5766 43.4133 20.5766 43.1194 20.606 42.8255C20.6648 42.414 20.6942 42.2377 20.7236 42.1495L20.9293 41.1209C20.9881 40.7976 20.9881 40.6213 20.9587 40.5331C20.8705 40.5037 20.753 40.5037 20.5473 40.5037H18.9602L18.0785 44.2656H14.5811L16.8735 34.7432Z" fill="white"/>
<path d="M22.6036 33.8913C23.6617 33.8913 24.3964 34.1264 24.8079 34.5673C25.2194 35.0375 25.3369 35.7135 25.1018 36.6246C24.9549 37.2124 24.7197 37.712 24.3377 38.1235C24.0144 38.5055 23.6029 38.7701 23.0445 38.9464C23.456 39.0933 23.6911 39.3285 23.8086 39.6224C23.9262 39.9163 23.8968 40.3865 23.7792 41.0625L23.5735 42.2087C23.5441 42.3263 23.5147 42.4438 23.4853 42.5614C23.456 42.6789 23.4266 42.8259 23.4266 42.9141C23.3972 43.2373 23.456 43.4725 23.6029 43.5606H21.3693C21.3105 43.3843 21.3105 43.1786 21.3399 42.9728C21.3693 42.6789 21.3986 42.4732 21.428 42.3556L21.6632 41.327C21.7513 40.7686 21.7513 40.3571 21.6044 40.122C21.4574 39.9163 21.1047 39.8281 20.5757 39.8281H18.4302L17.5191 43.59H15.4912L17.5779 34.9493C17.6367 34.6554 17.813 34.4203 18.0482 34.244C18.2833 34.0382 18.5478 33.9501 18.8417 33.9501L22.6036 33.8913ZM18.8123 38.0941H21.1929C21.7219 38.0941 22.104 37.9765 22.3979 37.7708C22.6918 37.5651 22.8975 37.2418 22.9857 36.8303C23.1033 36.3894 23.0445 36.0955 22.8388 35.8898C22.6624 35.6547 22.3391 35.5665 21.8983 35.5665H19.4001L18.8123 38.0941ZM22.6036 32.4512H18.8417C18.2245 32.4512 17.6367 32.6569 17.1371 33.0684C16.6374 33.4504 16.3142 33.9795 16.1672 34.5673L14.0805 43.208L13.6396 45.0008H15.4618H17.4898H18.6066L18.8711 43.9133L19.5177 41.2682H20.1643L19.9879 42.0617C19.9585 42.2381 19.8997 42.4732 19.8704 42.7965C19.8116 43.1786 19.841 43.59 19.9291 43.9427L20.223 45.0008H21.3105H23.5441H28.5698L24.8667 42.7083V42.6789L24.8961 42.532V42.5026V42.4732L25.1018 41.327C25.2488 40.4453 25.2781 39.8281 25.1312 39.2991C25.19 39.2403 25.2781 39.1521 25.3369 39.0933C25.8659 38.5349 26.2186 37.8296 26.4244 36.9773C26.8358 35.2432 26.3068 34.2146 25.7778 33.6268C25.1606 32.8332 24.1025 32.4512 22.6036 32.4512Z" fill="#183257"/>
<path d="M26.5998 44.3826C25.7475 44.3826 25.0422 44.1475 24.4837 43.6773C24.0429 43.2952 23.5726 42.5604 23.9253 41.1497C24.1604 40.1798 24.6307 39.4745 25.3654 39.0336C25.5712 38.916 25.7769 38.7985 25.9826 38.7103H24.6013L24.954 37.7404C25.2185 37.0351 25.6887 36.4179 26.3647 35.977C27.0995 35.4774 28.0399 35.2129 29.1274 35.2129C30.3912 35.2129 31.2729 35.448 31.8607 35.8889C32.3309 36.2709 32.8599 37.0057 32.566 38.1813L31.9488 40.7382C31.7431 41.5906 31.4198 42.2959 30.9496 42.7955C30.5087 43.2952 30.0091 43.6479 29.5095 43.883C29.0098 44.1181 28.4808 44.2651 27.9224 44.3238C27.4228 44.3532 26.9819 44.3826 26.5998 44.3826ZM27.1876 41.4142C27.217 41.4142 27.2464 41.4142 27.2758 41.4142C27.6579 41.4142 27.9518 41.326 28.1869 41.1203C28.3045 41.0321 28.3926 40.944 28.4514 40.8264L27.8342 40.944C27.5697 41.0027 27.4228 41.0909 27.3346 41.1497C27.2464 41.2673 27.217 41.3554 27.1876 41.4142Z" fill="white"/>
<path d="M29.128 35.8893C30.186 35.8893 30.9502 36.0657 31.391 36.4184C31.8613 36.8004 32.0082 37.3001 31.8319 37.976L31.2147 40.533C31.0384 41.2677 30.7444 41.8555 30.3918 42.2964C30.0097 42.7078 29.5982 43.0311 29.1868 43.2075C28.7459 43.4132 28.2757 43.5308 27.8348 43.5896C27.3646 43.6483 26.9825 43.6483 26.6298 43.6483C25.9539 43.6483 25.3954 43.472 24.9546 43.1193C24.5137 42.7666 24.4256 42.1494 24.6313 41.3265C24.8076 40.533 25.1897 39.9746 25.7481 39.6513C26.3065 39.328 26.9531 39.0929 27.6879 38.9753C27.776 38.9753 27.8936 38.9753 28.0406 38.9459C28.1875 38.9165 28.3345 38.8871 28.5108 38.8871C29.3631 38.7696 29.8627 38.5344 29.9509 38.1524C30.0097 37.8585 29.9215 37.6821 29.6276 37.594C29.3631 37.5058 29.0986 37.4764 28.8341 37.4764C28.5696 37.4764 28.3051 37.5058 28.0993 37.594C27.8642 37.6821 27.6879 37.7997 27.5409 38.0054H25.6306C25.8363 37.4176 26.2184 36.9474 26.7768 36.5653C27.394 36.1245 28.1581 35.8893 29.128 35.8893ZM29.5688 39.7688C29.2749 39.8864 28.8635 40.0333 28.3638 40.1215L27.6585 40.2685C27.3058 40.3566 27.0119 40.4742 26.8356 40.6211C26.6592 40.8269 26.5417 41.0326 26.4829 41.2383C26.4241 41.5322 26.4535 41.738 26.571 41.9143C26.718 42.0613 26.9237 42.1494 27.247 42.1494C27.776 42.1494 28.2463 42.0025 28.599 41.7086C28.981 41.4147 29.2162 41.0032 29.3631 40.4742L29.5688 39.7688ZM29.128 34.4492C27.8642 34.4492 26.8062 34.7431 25.9245 35.3603C25.1309 35.8893 24.5725 36.5947 24.2492 37.4764L23.5145 39.4162H23.8672C23.5733 39.857 23.3381 40.386 23.1912 40.9738C22.7797 42.7372 23.3969 43.7071 23.9847 44.2067C24.6901 44.7945 25.5424 45.0884 26.571 45.0884C26.9825 45.0884 27.4234 45.0591 27.923 45.0003C28.5402 44.9415 29.1574 44.7652 29.7158 44.5006C30.333 44.2361 30.8914 43.7953 31.391 43.2369C31.9201 42.6491 32.3315 41.8261 32.5666 40.8563L33.1838 38.2993C33.4777 37.0649 33.1544 36.0069 32.2433 35.2721C31.5674 34.7431 30.5387 34.4492 29.128 34.4492Z" fill="#183257"/>
<path d="M34.3009 44.3534C32.949 44.3534 31.9791 43.8832 31.4207 43.0015C30.8623 42.1785 30.7447 41.0029 31.0974 39.5628C31.4207 38.2403 32.0085 37.1528 32.8902 36.3887C33.8013 35.5658 34.8887 35.1543 36.1525 35.1543C37.5339 35.1543 38.5625 35.5951 39.1503 36.4769L39.1797 36.5062C39.4736 37.0059 39.65 37.6231 39.6793 38.2697L39.7087 39.0044H36.417L36.2701 38.4754C36.2407 38.3578 36.2113 38.299 36.2113 38.299C36.1525 38.2403 36.0056 38.1815 35.8292 38.1815C35.5647 38.1815 35.359 38.2697 35.1533 38.4166C34.8594 38.6811 34.6242 39.1514 34.4479 39.8861C34.2128 40.8266 34.3891 41.0911 34.4185 41.1205L34.4479 41.1499L34.4773 41.1793C34.5067 41.2381 34.6536 41.2674 34.8594 41.2674C35.0651 41.2674 35.2414 41.2381 35.4178 41.1499L35.4766 41.1205H35.5059L35.6529 41.0029C35.7411 40.9148 35.8586 40.8266 36.0056 40.709C36.2701 40.5327 36.5934 40.4445 36.9461 40.4445H39.5618L39.0328 41.5026C38.5625 42.4137 37.9453 43.119 37.1224 43.5893C36.2701 44.1183 35.3296 44.3534 34.3009 44.3534Z" fill="white"/>
<path d="M36.1522 35.8893C37.2984 35.8893 38.0919 36.2126 38.5622 36.8886C38.7973 37.3001 38.9443 37.7703 38.9736 38.3287H36.9751C36.9163 38.1524 36.8576 38.0054 36.7988 37.9173C36.6224 37.6527 36.2991 37.5352 35.8289 37.5352C35.4174 37.5352 35.0354 37.6527 34.7121 37.9173C34.2712 38.2993 33.9479 38.9165 33.7422 39.7688C33.5365 40.6211 33.5659 41.2383 33.8304 41.591C34.0067 41.8849 34.33 42.0319 34.8296 42.0319C35.1529 42.0319 35.4468 41.9731 35.7113 41.8261C35.7701 41.7968 35.8289 41.7674 35.8877 41.738C35.9465 41.6792 36.0052 41.6498 36.0934 41.591C36.1522 41.5322 36.2404 41.4735 36.3873 41.3559C36.5343 41.2677 36.7106 41.209 36.9457 41.209H38.3858C37.9744 42.0025 37.4454 42.5903 36.74 43.0017C36.0346 43.4426 35.2411 43.6483 34.3594 43.6483C33.272 43.6483 32.5078 43.2956 32.067 42.6197C31.6261 41.9437 31.5379 40.9738 31.8612 39.7394C32.1551 38.5344 32.6548 37.6234 33.4189 36.9474C34.1243 36.242 35.0648 35.8893 36.1522 35.8893ZM36.1522 34.4492C34.6827 34.4492 33.4483 34.9195 32.3903 35.8599C31.4204 36.7417 30.7444 37.9173 30.3917 39.3868C30.0097 41.0326 30.1272 42.3846 30.8032 43.3838C31.3028 44.148 32.3021 45.0591 34.3006 45.0591C35.4762 45.0591 36.5343 44.7652 37.4454 44.2067C38.3565 43.6483 39.0912 42.8548 39.6202 41.8261L40.6783 39.7394H38.3271H36.887C36.3579 39.7394 35.9171 39.8864 35.535 40.1215C35.3587 40.2391 35.2117 40.3566 35.1235 40.4448L35.0942 40.4742H35.0648C35.0648 40.3566 35.0942 40.2097 35.1529 40.0333C35.3293 39.328 35.535 39.0635 35.6232 38.9459L35.6526 38.9165L35.8583 39.6807H36.9751H38.9736H40.4725L40.4138 38.1818C40.3844 37.3882 40.1786 36.6829 39.826 36.0657L39.7966 36.0363L39.7672 36.0069C39.2088 35.3309 38.1801 34.4492 36.1522 34.4492Z" fill="#183257"/>
<path d="M41.5607 44.3534C40.2088 44.3534 39.2389 43.8832 38.6805 43.0015C38.1221 42.1785 38.0045 41.0029 38.3572 39.5628C38.6805 38.2403 39.2683 37.1528 40.15 36.3887C41.0611 35.5658 42.1485 35.1543 43.4123 35.1543C44.7936 35.1543 45.8223 35.5951 46.4101 36.4769C46.9685 37.3586 47.0861 38.5048 46.7334 39.9449L46.6452 40.2388C46.6158 40.327 46.5864 40.4151 46.5864 40.4739H46.7628L46.2337 41.532C45.7635 42.443 45.1463 43.1484 44.3234 43.6187C43.5299 44.0889 42.6188 44.3534 41.5607 44.3534ZM41.6195 41.0029C41.6195 41.0911 41.6489 41.1499 41.6783 41.1499L41.7077 41.1793L41.7371 41.2087C41.7664 41.2674 41.9134 41.2968 42.1191 41.2968C42.3249 41.2968 42.5012 41.2674 42.6775 41.1793L42.7363 41.1499H42.7657L42.8833 41.0617C42.9127 41.0323 42.9127 41.0323 42.942 41.0029H41.6195Z" fill="white"/>
<path d="M43.4422 35.8893C44.5884 35.8893 45.382 36.2126 45.8522 36.8886C46.2931 37.5646 46.3812 38.5344 46.058 39.7688C46.0286 39.857 46.0286 39.9158 45.9992 39.9746C45.9992 40.0333 45.9698 40.0627 45.9698 40.0921C45.9404 40.1803 45.911 40.2391 45.8816 40.2979H40.9441C40.8265 40.8857 40.8559 41.2971 41.0616 41.591C41.238 41.8849 41.5613 42.0319 42.0609 42.0319C42.3842 42.0319 42.6781 41.9731 42.9426 41.8261C43.0014 41.7968 43.0602 41.7674 43.1189 41.738C43.1777 41.6792 43.2365 41.6498 43.3247 41.591C43.3541 41.5322 43.4422 41.4735 43.5892 41.3559C43.7361 41.2677 43.9125 41.209 44.1476 41.209H45.5877C45.1763 42.0025 44.6472 42.5903 43.9419 43.0017C43.2365 43.4426 42.443 43.6483 41.5613 43.6483C40.4738 43.6483 39.7097 43.2956 39.2688 42.6197C38.828 41.9437 38.7398 40.9738 39.0631 39.7394C39.357 38.5344 39.8566 37.6234 40.6208 36.9474C41.4143 36.2126 42.3254 35.8893 43.4422 35.8893ZM41.2674 39.0047H44.177C44.2652 38.5051 44.2064 38.123 44.0594 37.8879C43.8831 37.6234 43.5598 37.5058 43.0896 37.5058C42.6781 37.5058 42.296 37.6234 41.9727 37.8879C41.6494 38.1524 41.4143 38.5344 41.2674 39.0047ZM43.4422 34.4492C41.9727 34.4492 40.7383 34.9195 39.6803 35.8599C38.7104 36.7417 38.0345 37.9173 37.6818 39.3868C37.2997 41.0326 37.4173 42.3846 38.0932 43.3838C38.5929 44.148 39.5921 45.0591 41.5907 45.0591C42.7663 45.0591 43.8243 44.7652 44.7354 44.2067C45.6465 43.6483 46.3812 42.8548 46.9103 41.8261L47.9683 39.7394H47.5569C47.8508 38.2699 47.6744 37.0356 47.0572 36.0951V36.0657L47.0278 36.0363C46.4988 35.3309 45.4702 34.4492 43.4422 34.4492Z" fill="#183257"/>
<path d="M31.656 33.5084C31.1858 34.008 30.6862 34.3607 30.1571 34.5664C29.5987 34.7721 29.0403 34.8897 28.4525 34.8897C27.0418 34.8897 26.0425 34.4488 25.4253 33.5084C24.8081 32.6266 24.6906 31.3923 25.0726 29.8052C25.4547 28.2475 26.1601 27.0425 27.1887 26.1314C28.2762 25.1909 29.5106 24.7207 30.9213 24.7207C32.1263 24.7207 33.0668 25.0146 33.7427 25.573C34.3893 26.1902 34.6538 26.9837 34.5657 27.983H33.1843C32.7729 27.983 32.5377 27.8067 32.4202 27.454C32.332 27.2189 32.1851 27.0131 32.0087 26.8368C31.6854 26.5723 31.2152 26.4547 30.598 26.4547C29.7751 26.4547 29.0697 26.7486 28.4525 27.3364C27.8353 27.9536 27.3945 28.7765 27.13 29.8052C26.8654 30.8632 26.9242 31.6862 27.2769 32.274C27.6002 32.8618 28.2174 33.1263 29.0991 33.1263C29.7457 33.1263 30.3335 32.9499 30.8331 32.5973C31.3327 32.2152 31.7442 31.7156 32.0087 31.069H30.8037C30.5098 31.069 30.3041 30.9808 30.1571 30.7751C30.0102 30.5693 29.9514 30.3342 30.0396 30.0697L30.1865 29.4231H34.2718L33.008 34.6546H32.479C31.9499 34.6546 31.6854 34.3901 31.656 33.861V33.5084Z" fill="white"/>
<path d="M36.0943 25.0137H37.1229C37.3874 25.0137 37.5932 25.1018 37.7401 25.2782C37.8871 25.4545 37.9165 25.6603 37.8577 25.9248L35.771 34.6242H33.7725L36.0943 25.0137Z" fill="white"/>
<path d="M37.4456 33.9791C37.1223 33.6558 36.9459 33.1856 36.9165 32.6272C36.8871 32.0688 36.9459 31.4516 37.0929 30.8344C37.2104 30.3348 37.4162 29.8351 37.6807 29.3355C37.9452 28.8359 38.2685 28.4244 38.6505 28.0717C39.2677 27.5133 40.0025 27.19 40.796 27.0725C41.5896 26.9549 42.2949 27.0137 42.8533 27.2488C43.4999 27.5133 43.9408 28.0129 44.1171 28.6889C44.2935 29.3061 44.2935 30.0115 44.0877 30.8344C43.9408 31.4222 43.7644 31.9512 43.5293 32.3627C43.2942 32.8035 43.0297 33.1562 42.7652 33.4501C42.148 34.0673 41.472 34.4494 40.7372 34.5963C40.0613 34.7727 39.4441 34.7727 38.8269 34.6551C38.2097 34.5669 37.7688 34.3318 37.4456 33.9791ZM40.0025 29.0416C39.5029 29.4824 39.1502 30.0996 39.0032 30.9519C38.8269 31.8043 38.8563 32.3921 39.062 32.7447C39.1502 32.8917 39.2971 33.0093 39.5616 33.1268C39.8262 33.215 40.1201 33.2444 40.414 33.1562C40.7372 33.068 41.0311 32.8623 41.3544 32.539C41.6777 32.2157 41.9129 31.6573 42.1186 30.9226C42.2949 30.2466 42.2949 29.747 42.148 29.4237C42.001 29.1004 41.7953 28.8653 41.5602 28.7771C41.2957 28.6889 41.0018 28.6889 40.7079 28.7771C40.414 28.8065 40.1788 28.924 40.0025 29.0416Z" fill="white"/>
<path d="M47.7913 25.925L47.2622 28.1587C47.5561 27.806 47.9382 27.5121 48.3791 27.277C48.7611 27.1007 49.202 26.9831 49.7016 26.9831C50.5833 26.9831 51.2299 27.3358 51.6414 28.0705C52.0234 28.8053 52.0822 29.7458 51.8177 30.892C51.5532 32.0382 51.0242 33.0081 50.2894 33.7134C49.9074 34.0661 49.4665 34.3306 48.9375 34.4776C48.4085 34.6245 47.9088 34.7127 47.4386 34.7127C46.5275 34.7127 45.734 34.4776 45.058 34.0073C44.382 33.5371 44.2057 32.6554 44.529 31.3328L46.0866 24.9258H47.0565C47.321 24.9258 47.5268 25.014 47.6737 25.1903C47.8207 25.4548 47.85 25.6605 47.7913 25.925ZM49.8486 30.8626C50.0249 30.1866 49.9955 29.6576 49.7898 29.3049C49.5841 28.9228 49.2608 28.7171 48.7611 28.7171C48.2321 28.7171 47.7619 28.8935 47.4092 29.2755C47.0271 29.6576 46.7626 30.1866 46.5863 30.8626C46.4099 31.6561 46.3805 32.2145 46.5863 32.5672C46.792 32.9493 47.1447 33.155 47.6443 33.155C48.1733 33.155 48.6436 32.9493 49.0257 32.5672C49.4077 32.1851 49.6722 31.5973 49.8486 30.8626Z" fill="white"/>
<path d="M56.4326 34.3317C55.9917 34.5375 55.5215 34.655 55.0806 34.7138C54.6104 34.7726 54.2283 34.7726 53.8756 34.7726C53.1996 34.7726 52.6412 34.5962 52.2004 34.2436C51.7595 33.8909 51.6714 33.2737 51.8771 32.4508C52.0534 31.6572 52.4355 31.0988 52.9939 30.7755C53.5523 30.4522 54.1989 30.2171 54.9337 30.0995C55.0218 30.0995 55.1394 30.0995 55.2864 30.0702C55.4333 30.0408 55.5803 30.0114 55.7566 30.0114C56.6089 29.8938 57.1085 29.6587 57.1967 29.2766C57.2555 28.9827 57.1673 28.8064 56.8734 28.7182C56.6089 28.63 56.3444 28.6006 56.0799 28.6006C55.8154 28.6006 55.5803 28.63 55.3451 28.7182C55.11 28.8064 54.9337 28.9239 54.7867 29.1297H52.8764C53.0821 28.5419 53.4642 28.0716 54.0226 27.6896C54.6398 27.2487 55.4333 27.043 56.3738 27.043C57.4318 27.043 58.196 27.2193 58.6368 27.572C59.1071 27.9541 59.254 28.4537 59.0777 29.1297L58.4605 31.6866C58.2841 32.4214 57.9902 33.0092 57.6376 33.45C57.2849 33.8321 56.8734 34.126 56.4326 34.3317ZM56.8146 30.8637C56.5207 30.9812 56.1093 31.1282 55.6096 31.2164L54.9043 31.3633C54.5516 31.4515 54.2577 31.569 54.0814 31.716C53.905 31.9217 53.7875 32.1275 53.7287 32.3332C53.6699 32.6271 53.6993 32.8328 53.8168 33.0092C53.9638 33.1561 54.1695 33.2443 54.4928 33.2443C55.0218 33.2443 55.4921 33.0973 55.8448 32.8034C56.2268 32.5095 56.462 32.0981 56.6089 31.569L56.8146 30.8637Z" fill="white"/>
<path d="M60.7222 24.9844H61.7509C62.0154 24.9844 62.2211 25.0725 62.3681 25.2489C62.515 25.4252 62.5444 25.631 62.4856 25.8955L60.3989 34.5949H58.4004L60.7222 24.9844Z" fill="white"/>
<path d="M15.4912 43.5306L17.5779 34.8899C17.6367 34.596 17.813 34.3609 18.0482 34.1845C18.2833 33.9788 18.5478 33.8906 18.8417 33.8906H22.5742C23.6323 33.8906 24.367 34.1257 24.7785 34.5666C25.19 35.0368 25.3075 35.7128 25.0724 36.6239C24.9254 37.2117 24.6903 37.7113 24.3083 38.1228C23.985 38.5049 23.5735 38.7694 23.0151 38.9457C23.4265 39.0927 23.6617 39.3278 23.7792 39.6217C23.8968 39.9156 23.8674 40.3858 23.7498 41.0618L23.5441 42.208C23.5147 42.3256 23.4853 42.4432 23.4559 42.5607C23.4265 42.6783 23.3972 42.8252 23.3972 42.9134C23.3678 43.2367 23.4265 43.4718 23.5735 43.56H21.3398C21.2811 43.3836 21.2811 43.1779 21.3105 42.9722C21.3398 42.6783 21.3692 42.4725 21.3986 42.355L21.6337 41.3263C21.7219 40.7679 21.7219 40.3565 21.575 40.1213C21.428 39.9156 21.0753 39.8274 20.5463 39.8274H18.4008L17.4897 43.5894L15.4912 43.5306ZM18.8123 38.0934H21.1929C21.7219 38.0934 22.104 37.9759 22.3979 37.7701C22.6918 37.5644 22.8975 37.2411 22.9857 36.8296C23.1033 36.3888 23.0445 36.0949 22.8387 35.8892C22.6624 35.654 22.3391 35.5659 21.8983 35.5659H19.4001L18.8123 38.0934Z" fill="white"/>
<path d="M29.1875 43.2067C28.7466 43.4125 28.2764 43.53 27.8355 43.5888C27.3653 43.6476 26.9832 43.6476 26.6305 43.6476C25.9545 43.6476 25.3961 43.4712 24.9553 43.1186C24.5144 42.7659 24.4262 42.1487 24.632 41.3258C24.8083 40.5322 25.1904 39.9738 25.7488 39.6505C26.3072 39.3272 26.9538 39.0921 27.6886 38.9745C27.7767 38.9745 27.8943 38.9745 28.0412 38.9452C28.1882 38.9158 28.3351 38.8864 28.5115 38.8864C29.3638 38.7688 29.8634 38.5337 29.9516 38.1516C30.0104 37.8577 29.9222 37.6814 29.6283 37.5932C29.3638 37.505 29.0993 37.4756 28.8348 37.4756C28.5703 37.4756 28.3351 37.505 28.1 37.5932C27.8649 37.6814 27.6886 37.7989 27.5416 38.0047H25.6312C25.837 37.4169 26.219 36.9466 26.7775 36.5646C27.3947 36.1237 28.1882 35.918 29.1287 35.918C30.1867 35.918 30.9509 36.0943 31.3917 36.447C31.862 36.8291 32.0089 37.3287 31.8326 38.0047L31.2154 40.5616C31.039 41.2964 30.7451 41.8842 30.3924 42.325C30.0104 42.7071 29.5989 43.0304 29.1875 43.2067ZM29.5695 39.7681C29.2756 39.8856 28.8642 40.0326 28.3645 40.1208L27.6592 40.2677C27.3065 40.3559 27.0126 40.4734 26.8362 40.6204C26.6599 40.8261 26.5423 41.0319 26.4836 41.2376C26.4248 41.5315 26.4542 41.7372 26.5717 41.9136C26.7187 42.0605 26.9244 42.1487 27.2477 42.1487C27.7767 42.1487 28.247 42.0017 28.5996 41.7078C28.9817 41.4139 29.2168 41.0025 29.3638 40.4734L29.5695 39.7681Z" fill="white"/>
<path d="M36.8871 41.2082H38.3272C37.9158 42.0017 37.3868 42.5895 36.6814 43.001C35.976 43.4418 35.1825 43.6476 34.3008 43.6476C33.2134 43.6476 32.4492 43.2949 32.0084 42.6189C31.5675 41.9429 31.4793 40.9731 31.8026 39.7387C32.0965 38.5337 32.5962 37.6226 33.3603 36.9466C34.1245 36.2413 35.0649 35.918 36.1524 35.918C37.2986 35.918 38.0921 36.2413 38.5624 36.9172C38.7975 37.3287 38.9444 37.7989 38.9738 38.3574H36.9753C36.9165 38.181 36.8577 38.0341 36.799 37.9459C36.6226 37.6814 36.2993 37.5638 35.8291 37.5638C35.4176 37.5638 35.0355 37.6814 34.7123 37.9459C34.2714 38.328 33.9481 38.9452 33.7424 39.7975C33.5367 40.6498 33.566 41.267 33.8306 41.6197C34.0069 41.9136 34.3302 42.0605 34.8298 42.0605C35.1531 42.0605 35.447 42.0017 35.7115 41.8548C35.7703 41.8254 35.8291 41.796 35.8879 41.7666C35.9466 41.7078 36.0054 41.6784 36.0936 41.6197C36.1524 41.5609 36.2405 41.5021 36.3875 41.3845C36.4757 41.267 36.652 41.2082 36.8871 41.2082Z" fill="white"/>
<path d="M44.1762 41.2082H45.6163C45.2048 42.0017 44.6758 42.5895 43.9705 43.001C43.2651 43.4418 42.4716 43.6476 41.5899 43.6476C40.5024 43.6476 39.7383 43.2949 39.2974 42.6189C38.8566 41.9429 38.7684 40.9731 39.0917 39.7387C39.3856 38.5337 39.8852 37.6226 40.6494 36.9466C41.4135 36.2413 42.354 35.918 43.4414 35.918C44.5876 35.918 45.3812 36.2413 45.8514 36.9172C46.2923 37.5932 46.3804 38.5631 46.0572 39.7975C46.0278 39.8856 46.0278 39.9444 45.9984 40.0032C45.9984 40.062 45.969 40.0914 45.969 40.1208C45.9396 40.2089 45.9102 40.2677 45.8808 40.3265H40.9433C40.8257 40.9143 40.8551 41.3258 41.0608 41.6197C41.2372 41.9136 41.5605 42.0605 42.0601 42.0605C42.3834 42.0605 42.6773 42.0017 42.9418 41.8548C43.0006 41.8254 43.0594 41.796 43.1181 41.7666C43.1769 41.7078 43.2357 41.6784 43.3239 41.6197C43.3533 41.5609 43.4414 41.5021 43.5884 41.3845C43.7647 41.2376 43.9411 41.2082 44.1762 41.2082ZM41.2666 39.0039H44.1762C44.2644 38.5043 44.2056 38.1222 44.0586 37.8871C43.8823 37.6226 43.559 37.505 43.0888 37.505C42.6773 37.505 42.2952 37.6226 41.9719 37.8871C41.6486 38.1516 41.4135 38.5337 41.2666 39.0039Z" fill="white"/>
<path d="M54.4322 68.3637C49.2889 71.6848 43.0582 73.1249 37.0038 72.9779L35.7988 72.9486H37.0038C41.4123 72.9192 45.8503 71.9787 49.8767 70.1565C51.3168 69.5099 52.7569 68.7164 54.0207 67.8053C54.4028 67.482 54.8436 68.0698 54.4322 68.3637Z" fill="white"/>
<path d="M51.8173 67.2773C46.5564 70.6865 40.2082 72.156 34.0068 71.9797L32.7725 71.9503H34.0068C38.5329 71.9209 43.0296 70.9804 47.1442 69.0995C48.6137 68.4235 50.0832 67.63 51.3764 66.6895C51.7585 66.3956 52.2287 66.9834 51.8173 67.2773Z" fill="white"/>
<path d="M48.6721 66.3363C43.47 69.7162 37.2099 71.1563 31.0674 71.0094L29.833 70.98H31.0674C35.5347 70.9506 40.002 70.0101 44.0578 68.1585C45.5273 67.4826 46.9675 66.7184 48.2312 65.7779C48.6427 65.4546 49.0835 66.0424 48.6721 66.3363Z" fill="white"/>
<path d="M44.9981 63.0756C44.4397 63.4283 43.8813 63.4283 43.7931 63.105C43.7049 62.8111 43.3817 60.0778 43.2641 59.8133C42.9702 59.1079 42.206 58.285 42.1179 57.8735C42.0297 57.4914 42.2942 56.8743 42.2942 56.8743L43.4992 55.875C43.4992 55.875 43.6168 55.9044 43.9988 55.6399C44.3809 55.3754 44.2046 54.7876 43.9107 54.8463C43.6168 54.9051 43.411 55.4341 43.411 55.4341L42.5587 55.8456C42.5587 55.8456 42.7057 55.2578 42.7645 54.6994C42.8232 54.141 42.6469 54.0528 42.4118 53.7883C42.1767 53.5238 42.1179 53.3768 42.1767 53.2005C42.2354 52.9948 42.4706 52.9948 42.5881 52.936C42.7939 52.8184 42.8232 52.6715 42.7645 51.9367C42.7057 51.1138 42.2942 51.1138 42.0885 51.1726C41.8828 51.2313 41.148 51.4665 41.148 52.1718C41.148 52.8772 41.6476 53.0535 41.295 53.4062C41.2068 53.4944 40.2663 54.0822 40.1193 54.2585C39.7079 54.7288 39.1495 55.7574 38.9144 56.1983C38.7086 56.5804 38.7086 56.8449 38.885 56.933C39.0319 56.9918 40.3839 57.5502 40.3839 57.5502C40.3839 57.5502 40.1487 58.1674 40.09 58.8434C40.0606 59.4018 39.9136 60.6068 39.9136 61.1064C39.9136 61.2534 39.7961 61.4003 39.6785 61.3709C39.2964 61.3122 38.7086 61.4885 37.9151 61.7236C37.8269 61.753 37.7681 61.7236 37.7387 61.6648L37.4155 61.3416C37.3567 61.2828 37.2391 61.3122 37.1509 61.4297C36.857 61.8412 36.3574 62.6641 36.2105 62.9874C36.0341 63.3401 36.3574 63.3401 36.5044 63.1637C36.6807 62.958 37.0334 62.6053 37.3861 62.4584C38.0033 62.1939 39.8842 62.4878 40.09 62.4878C40.2957 62.4878 40.472 62.3114 40.5602 62.1351C40.6484 61.9587 41.5301 60.1072 41.5301 60.1072L42.353 60.7538C42.4118 60.8125 42.4412 60.8713 42.4706 60.9889C42.4706 61.2534 42.5 61.753 42.6175 61.9881C42.7057 62.1939 43.2935 63.3401 43.3523 63.8691C43.4404 64.5157 43.5874 64.5451 43.5874 64.5745C43.6462 64.6039 44.9099 63.7222 45.2332 63.3989C45.4684 63.105 45.2038 62.958 44.9981 63.0756ZM39.6491 56.2571L40.2663 55.5223L40.5308 56.9036L39.6491 56.2571Z" stroke="#143453" stroke-width="6.526" stroke-miterlimit="10" stroke-linecap="round" stroke-linejoin="round"/>
<path d="M51.2578 61.2819C51.2284 61.1938 51.0814 61.2819 50.8169 61.4877C50.5524 61.6934 50.1997 61.6934 49.9058 61.5758C49.6119 61.4583 49.5531 59.4304 49.5531 58.9895C49.5531 58.5487 49.318 58.2548 49.0829 57.9902C48.8478 57.7257 48.113 57.2555 48.113 57.2555L48.3187 56.1387C48.3481 56.1387 49.3768 55.0512 49.5237 54.8161C49.6707 54.6104 49.9058 54.4634 50.1703 54.1989C50.4054 53.9344 50.0821 53.4936 49.994 53.5523C49.8764 53.6111 49.7882 53.6993 49.7001 53.8756C49.6119 54.052 49.5825 54.2871 49.3474 54.5516C49.1123 54.8161 48.7302 55.0512 48.7302 55.0512C48.7302 55.0512 48.8184 54.581 48.789 54.0814C48.7596 53.5817 48.3187 53.4642 48.3481 53.2584C48.4069 53.0821 48.6714 52.9939 48.789 52.9058C48.9359 52.8176 48.9653 52.4061 48.9359 51.9359C48.9065 51.495 48.7008 51.0836 48.1424 51.1423C47.6134 51.2011 47.1725 51.7301 47.055 52.1416C47.0256 52.2004 46.9962 52.2592 46.908 52.2592C46.7905 52.2886 46.7905 52.2298 46.7317 52.2004C46.5847 52.0828 46.379 52.2298 46.3202 52.3179C46.5259 52.2592 46.6141 52.5237 46.7905 52.5237C46.908 52.5237 46.8198 52.5531 46.7905 52.5531C46.6435 52.5531 46.5553 52.4649 46.379 52.4061C46.2908 52.3767 46.1439 52.3767 46.0263 52.4649C45.8794 52.5531 45.7618 52.7588 45.7912 52.9058C45.85 52.7294 45.9969 52.6412 46.1439 52.6706C46.2908 52.7 46.379 52.8764 46.4966 52.9351C46.6729 52.9939 46.8492 52.9351 46.9668 52.8176C47.055 52.7294 47.1431 52.7 47.2313 52.7588C47.2901 52.8176 47.3489 52.8764 47.4076 52.9058C47.5546 52.9939 47.6722 53.0233 47.6428 53.1409C47.6134 53.2584 47.3489 53.4348 46.9962 53.6699C46.6435 53.905 46.1145 54.3165 45.7324 54.5516C45.3503 54.7867 45.174 55.0806 45.0858 55.3157C44.9977 55.5509 44.5568 56.6677 44.5568 56.7853C44.5274 56.9028 44.1747 57.667 44.2629 57.8433C44.3217 58.0196 44.5274 57.9315 44.6744 57.8433C44.8213 57.7551 44.9683 57.6963 44.9683 57.4024C44.9683 57.1379 44.8801 56.7853 44.9683 56.6383C45.027 56.4914 45.4091 55.7272 45.5561 55.4627C45.6736 55.1982 45.85 55.0512 45.9381 55.0218C45.9969 54.9925 46.232 54.9043 46.4672 54.8161C46.7023 54.7279 46.7611 54.8455 46.7611 54.9925C46.7905 55.1394 46.8492 55.9329 46.8198 56.2856C46.7611 56.6383 46.6435 56.7853 46.3496 57.3731C46.0557 57.9609 46.0557 58.6368 45.9088 59.0777C45.7324 59.5185 45.6442 60.1357 45.4973 60.4002C45.3503 60.6941 44.9095 60.6941 44.5568 60.8705C44.2041 61.0468 43.0873 62.0167 42.911 62.1343C42.7346 62.2518 42.2938 62.1343 42.1762 62.1049C42.0586 62.1049 41.9705 62.193 41.9411 62.3106C41.9411 62.3106 41.7354 63.6919 41.7354 64.1328C41.7354 64.5736 42.0586 64.3973 42.1468 64.074C42.2056 63.8977 42.3525 63.5156 42.5877 63.1629C42.8228 62.8102 43.5869 62.34 44.0572 62.0755C44.5274 61.811 45.7912 61.2526 45.9381 61.135C46.1145 61.0174 46.379 60.6941 46.6729 60.2827C46.9668 59.8712 47.3783 58.9895 47.3783 58.9895C47.3783 58.9895 48.4363 59.3128 48.6714 59.3716C48.9065 59.401 48.8772 59.6655 48.8478 60.1063C48.8478 60.5178 49.2004 61.2819 49.318 61.6052C49.4356 61.9285 49.4062 62.1343 49.4062 62.2518C49.4356 62.3988 49.5531 62.8396 49.5531 62.8396C49.6119 62.8984 49.7589 62.9572 49.847 62.8396C49.9352 62.7514 50.9639 61.8697 51.1696 61.6346C51.2871 61.5465 51.2871 61.3995 51.2578 61.2819Z" stroke="#143453" stroke-width="6.526" stroke-miterlimit="10" stroke-linecap="round" stroke-linejoin="round"/>
<path d="M56.0198 56.9326C56.0198 56.9326 56.5782 56.6975 56.4607 56.4918C56.3431 56.286 56.2256 56.0803 56.0198 56.286C55.8141 56.4918 55.8729 56.6681 55.6378 56.8445C55.4026 57.0208 55.1087 57.1677 54.903 57.4029C54.903 57.4029 54.8736 56.7563 54.756 56.1097C54.756 56.1097 54.6679 55.9628 54.8148 55.904C54.8148 55.904 54.9324 56.0803 55.05 55.9921C55.1675 55.904 55.5202 55.5807 55.6671 54.9047C55.8141 54.2287 54.6679 54.1993 54.3446 54.6696C54.3446 54.6696 54.2564 54.7871 54.1976 55.4925C54.1976 55.4925 54.227 55.6689 54.0801 55.6689C53.9331 55.6689 52.7281 55.7276 52.6106 55.7864C52.493 55.8452 52.3755 55.757 52.2285 56.0803C52.0816 56.4036 51.8758 56.6975 51.7876 57.3735C51.7876 57.3735 51.435 57.638 51.4644 57.7849C51.5231 57.9319 51.7289 58.0201 51.7876 58.0201C51.817 58.0201 52.0228 57.9613 52.0228 57.8437C52.0228 57.7262 52.1109 57.1384 52.2579 57.0208C52.4048 56.8738 52.6694 56.3448 52.7281 56.286C52.7281 56.286 53.2865 56.3154 53.3453 56.286C53.3453 56.286 53.2278 56.5212 52.9926 58.1082C52.9926 58.1082 52.4048 58.6666 52.5224 59.4602C52.5224 59.4602 52.3755 60.5476 52.2285 60.9003C52.0816 61.253 51.9934 61.3411 51.9934 61.3411C51.9934 61.3411 51.5819 61.5763 51.2586 62.1935C51.1705 62.3404 50.8178 62.7225 50.7002 62.8694C50.5533 63.0458 50.0536 63.1927 50.2006 63.3691C50.3769 63.5454 50.9353 63.9569 51.2292 64.1626C51.3174 64.2214 51.5819 64.2802 51.4937 64.0156C51.435 63.7511 50.9941 63.3397 51.0235 63.1339C51.0529 62.9282 52.1991 61.8702 52.3461 61.7232C52.4342 61.635 52.64 61.5469 52.7575 61.3999C52.8751 61.253 53.2865 60.7827 53.5804 59.9892C53.5804 59.9892 54.3152 60.1655 54.5797 60.2831C54.6679 60.3125 54.903 60.4007 54.6091 60.577C54.4328 60.6946 54.2564 60.8709 53.8743 61.3411C53.8743 61.3411 53.5511 61.6644 53.4629 61.7232C53.3747 61.782 52.8457 61.8996 52.9926 62.1641C53.169 62.3992 53.8743 62.9576 54.0213 63.0164C54.1682 63.0752 54.3446 63.0752 54.2564 62.84C54.1682 62.6049 53.9919 62.4874 53.9037 62.1053C53.9037 62.1053 53.9331 61.8996 54.1095 61.7526C54.2858 61.6057 55.4026 60.7533 55.5496 60.577C55.6965 60.4007 55.7553 60.1655 55.5496 59.8716C55.3439 59.6071 54.9912 59.4308 54.2564 58.9018C54.2564 58.9018 54.2564 58.1964 54.5503 57.7555C54.5503 57.7555 54.6679 57.8143 54.8148 57.7262C54.9618 57.638 55.1675 57.5792 55.6965 57.0502C55.7259 57.1677 55.9317 56.9032 56.0198 56.9326Z" stroke="#143453" stroke-width="6.526" stroke-miterlimit="10" stroke-linecap="round" stroke-linejoin="round"/>
<path d="M39.5315 63.3979C39.0319 63.6918 38.5616 63.6918 38.5028 63.4272C38.4441 63.1627 38.1502 60.8703 37.9738 60.7234C37.4448 60.1943 36.5631 60.3707 36.5631 59.4302C36.5631 59.0775 36.7394 58.4603 36.7394 58.4603L37.5624 59.4008C37.5624 59.4008 37.6799 59.7241 37.915 59.7829C38.1502 59.8417 38.4441 59.4596 38.2677 59.2832C38.1208 59.1363 37.7387 58.9893 37.7387 58.9893L36.9452 57.7256C36.9452 57.7256 37.0333 57.4023 37.0921 56.932C37.1509 56.4618 37.004 56.3736 36.7982 56.1385C36.5925 55.9328 36.5337 55.874 36.5925 55.727C36.6513 55.5507 36.9452 55.5507 37.0333 55.4919C37.2097 55.4037 37.2685 55.198 37.2097 54.5514C37.1509 53.8461 36.6807 53.8167 36.5043 53.8755C36.3574 53.9048 35.7402 54.1106 35.7108 54.6396C35.652 54.669 35.5638 54.6984 35.5344 54.6984C35.4463 54.6984 35.3287 54.6396 35.1818 54.7572C35.0348 54.9041 35.1524 55.1098 34.976 55.3156C34.7997 55.5213 34.594 55.5801 34.5352 55.5801C34.5352 55.5801 34.976 55.8152 35.2699 55.5801C35.5932 55.345 35.3875 55.0511 35.5051 54.9335C35.5932 54.8453 35.6814 54.8159 35.7402 54.8453C35.799 55.345 36.1222 55.4919 35.8577 55.7564C35.7696 55.8446 35.123 56.0209 35.0054 56.1679C34.6527 56.5793 34.3001 57.1084 34.0943 57.461C33.918 57.7843 33.7123 58.2252 33.8592 58.284C34.0062 58.3428 35.0348 58.813 35.0348 58.813C35.0348 58.813 34.8879 59.2538 34.7115 59.7535C34.5646 60.1943 34.6821 61.1936 34.6821 61.6345C34.6821 61.7814 34.5646 61.8696 34.4764 61.8696C34.1531 61.8402 33.6535 61.9871 32.9481 62.1635C32.8893 62.1929 32.8306 62.1635 32.7718 62.1047L32.5073 61.8402C32.4485 61.7814 32.3603 61.8108 32.2721 61.899C32.037 62.2516 31.5962 62.957 31.4786 63.2215C31.3317 63.5154 31.5962 63.5448 31.7431 63.3685C31.8901 63.1921 32.2134 62.8982 32.4779 62.7807C33.0069 62.5749 34.594 62.8101 34.7997 62.8101C34.976 62.8101 35.123 62.6631 35.2112 62.5162C35.2993 62.3692 36.0635 60.7821 36.0635 60.7821L37.2979 61.4287C37.3566 61.4581 37.386 61.5463 37.386 61.6345C37.386 61.8402 37.4154 62.281 37.5036 62.4868C37.5918 62.6631 38.0914 63.633 38.1208 64.1032C38.1796 64.6616 38.2971 64.691 38.3265 64.691C38.3853 64.691 39.4727 63.9563 39.7372 63.6918C39.943 63.3979 39.7372 63.2803 39.5315 63.3979ZM34.447 57.9019L35.0936 57.0496V58.3428L34.447 57.9019Z" stroke="#143453" stroke-width="6.526" stroke-miterlimit="10" stroke-linecap="round" stroke-linejoin="round"/>
<path d="M44.9981 63.0756C44.4397 63.4283 43.8813 63.4283 43.7931 63.105C43.7049 62.8111 43.3817 60.0778 43.2641 59.8133C42.9702 59.1079 42.206 58.285 42.1179 57.8735C42.0297 57.4914 42.2942 56.8743 42.2942 56.8743L43.4992 55.875C43.4992 55.875 43.6168 55.9044 43.9988 55.6399C44.3809 55.3754 44.2046 54.7876 43.9107 54.8463C43.6168 54.9051 43.411 55.4341 43.411 55.4341L42.5587 55.8456C42.5587 55.8456 42.7057 55.2578 42.7645 54.6994C42.8232 54.141 42.6469 54.0528 42.4118 53.7883C42.1767 53.5238 42.1179 53.3768 42.1767 53.2005C42.2354 52.9948 42.4706 52.9948 42.5881 52.936C42.7939 52.8184 42.8232 52.6715 42.7645 51.9367C42.7057 51.1138 42.2942 51.1138 42.0885 51.1726C41.8828 51.2313 41.148 51.4665 41.148 52.1718C41.148 52.8772 41.6476 53.0535 41.295 53.4062C41.2068 53.4944 40.2663 54.0822 40.1193 54.2585C39.7079 54.7288 39.1495 55.7574 38.9144 56.1983C38.7086 56.5804 38.7086 56.8449 38.885 56.933C39.0319 56.9918 40.3839 57.5502 40.3839 57.5502C40.3839 57.5502 40.1487 58.1674 40.09 58.8434C40.0606 59.4018 39.9136 60.6068 39.9136 61.1064C39.9136 61.2534 39.7961 61.4003 39.6785 61.3709C39.2964 61.3122 38.7086 61.4885 37.9151 61.7236C37.8269 61.753 37.7681 61.7236 37.7387 61.6648L37.4155 61.3416C37.3567 61.2828 37.2391 61.3122 37.1509 61.4297C36.857 61.8412 36.3574 62.6641 36.2105 62.9874C36.0341 63.3401 36.3574 63.3401 36.5044 63.1637C36.6807 62.958 37.0334 62.6053 37.3861 62.4584C38.0033 62.1939 39.8842 62.4878 40.09 62.4878C40.2957 62.4878 40.472 62.3114 40.5602 62.1351C40.6484 61.9587 41.5301 60.1072 41.5301 60.1072L42.353 60.7538C42.4118 60.8125 42.4412 60.8713 42.4706 60.9889C42.4706 61.2534 42.5 61.753 42.6175 61.9881C42.7057 62.1939 43.2935 63.3401 43.3523 63.8691C43.4404 64.5157 43.5874 64.5451 43.5874 64.5745C43.6462 64.6039 44.9099 63.7222 45.2332 63.3989C45.4684 63.105 45.2038 62.958 44.9981 63.0756ZM39.6491 56.2571L40.2663 55.5223L40.5308 56.9036L39.6491 56.2571Z" fill="white"/>
<path d="M51.2578 61.2819C51.2284 61.1938 51.0814 61.2819 50.8169 61.4877C50.5524 61.6934 50.1997 61.6934 49.9058 61.5758C49.6119 61.4583 49.5531 59.4304 49.5531 58.9895C49.5531 58.5487 49.318 58.2548 49.0829 57.9902C48.8478 57.7257 48.113 57.2555 48.113 57.2555L48.3187 56.1387C48.3481 56.1387 49.3768 55.0512 49.5237 54.8161C49.6707 54.6104 49.9058 54.4634 50.1703 54.1989C50.4054 53.9344 50.0821 53.4936 49.994 53.5523C49.8764 53.6111 49.7882 53.6993 49.7001 53.8756C49.6119 54.052 49.5825 54.2871 49.3474 54.5516C49.1123 54.8161 48.7302 55.0512 48.7302 55.0512C48.7302 55.0512 48.8184 54.581 48.789 54.0814C48.7596 53.5817 48.3187 53.4642 48.3481 53.2584C48.4069 53.0821 48.6714 52.9939 48.789 52.9058C48.9359 52.8176 48.9653 52.4061 48.9359 51.9359C48.9065 51.495 48.7008 51.0836 48.1424 51.1423C47.6134 51.2011 47.1725 51.7301 47.055 52.1416C47.0256 52.2004 46.9962 52.2592 46.908 52.2592C46.7905 52.2886 46.7905 52.2298 46.7317 52.2004C46.5847 52.0828 46.379 52.2298 46.3202 52.3179C46.5259 52.2592 46.6141 52.5237 46.7905 52.5237C46.908 52.5237 46.8198 52.5531 46.7905 52.5531C46.6435 52.5531 46.5553 52.4649 46.379 52.4061C46.2908 52.3767 46.1439 52.3767 46.0263 52.4649C45.8794 52.5531 45.7618 52.7588 45.7912 52.9058C45.85 52.7294 45.9969 52.6412 46.1439 52.6706C46.2908 52.7 46.379 52.8764 46.4966 52.9351C46.6729 52.9939 46.8492 52.9351 46.9668 52.8176C47.055 52.7294 47.1431 52.7 47.2313 52.7588C47.2901 52.8176 47.3489 52.8764 47.4076 52.9058C47.5546 52.9939 47.6722 53.0233 47.6428 53.1409C47.6134 53.2584 47.3489 53.4348 46.9962 53.6699C46.6435 53.905 46.1145 54.3165 45.7324 54.5516C45.3503 54.7867 45.174 55.0806 45.0858 55.3157C44.9977 55.5509 44.5568 56.6677 44.5568 56.7853C44.5274 56.9028 44.1747 57.667 44.2629 57.8433C44.3217 58.0196 44.5274 57.9315 44.6744 57.8433C44.8213 57.7551 44.9683 57.6963 44.9683 57.4024C44.9683 57.1379 44.8801 56.7853 44.9683 56.6383C45.027 56.4914 45.4091 55.7272 45.5561 55.4627C45.6736 55.1982 45.85 55.0512 45.9381 55.0218C45.9969 54.9925 46.232 54.9043 46.4672 54.8161C46.7023 54.7279 46.7611 54.8455 46.7611 54.9925C46.7905 55.1394 46.8492 55.9329 46.8198 56.2856C46.7611 56.6383 46.6435 56.7853 46.3496 57.3731C46.0557 57.9609 46.0557 58.6368 45.9088 59.0777C45.7324 59.5185 45.6442 60.1357 45.4973 60.4002C45.3503 60.6941 44.9095 60.6941 44.5568 60.8705C44.2041 61.0468 43.0873 62.0167 42.911 62.1343C42.7346 62.2518 42.2938 62.1343 42.1762 62.1049C42.0586 62.1049 41.9705 62.193 41.9411 62.3106C41.9411 62.3106 41.7354 63.6919 41.7354 64.1328C41.7354 64.5736 42.0586 64.3973 42.1468 64.074C42.2056 63.8977 42.3525 63.5156 42.5877 63.1629C42.8228 62.8102 43.5869 62.34 44.0572 62.0755C44.5274 61.811 45.7912 61.2526 45.9381 61.135C46.1145 61.0174 46.379 60.6941 46.6729 60.2827C46.9668 59.8712 47.3783 58.9895 47.3783 58.9895C47.3783 58.9895 48.4363 59.3128 48.6714 59.3716C48.9065 59.401 48.8772 59.6655 48.8478 60.1063C48.8478 60.5178 49.2004 61.2819 49.318 61.6052C49.4356 61.9285 49.4062 62.1343 49.4062 62.2518C49.4356 62.3988 49.5531 62.8396 49.5531 62.8396C49.6119 62.8984 49.7589 62.9572 49.847 62.8396C49.9352 62.7514 50.9639 61.8697 51.1696 61.6346C51.2871 61.5465 51.2871 61.3995 51.2578 61.2819Z" fill="white"/>
<path d="M56.0198 56.9326C56.0198 56.9326 56.5782 56.6975 56.4607 56.4918C56.3431 56.286 56.2256 56.0803 56.0198 56.286C55.8141 56.4918 55.8729 56.6681 55.6378 56.8445C55.4026 57.0208 55.1087 57.1677 54.903 57.4029C54.903 57.4029 54.8736 56.7563 54.7561 56.1097C54.7561 56.1097 54.6679 55.9628 54.8148 55.904C54.8148 55.904 54.9324 56.0803 55.05 55.9921C55.1675 55.904 55.5202 55.5807 55.6671 54.9047C55.8141 54.2287 54.6679 54.1993 54.3446 54.6696C54.3446 54.6696 54.2564 54.7871 54.1976 55.4925C54.1976 55.4925 54.227 55.6689 54.0801 55.6689C53.9331 55.6689 52.7281 55.7276 52.6106 55.7864C52.493 55.8452 52.3755 55.757 52.2285 56.0803C52.0816 56.4036 51.8758 56.6975 51.7876 57.3735C51.7876 57.3735 51.435 57.638 51.4644 57.7849C51.5231 57.9319 51.7289 58.0201 51.7876 58.0201C51.817 58.0201 52.0228 57.9613 52.0228 57.8437C52.0228 57.7262 52.1109 57.1384 52.2579 57.0208C52.4048 56.8738 52.6694 56.3448 52.7281 56.286C52.7281 56.286 53.2865 56.3154 53.3453 56.286C53.3453 56.286 53.2278 56.5212 52.9926 58.1082C52.9926 58.1082 52.4048 58.6666 52.5224 59.4602C52.5224 59.4602 52.3755 60.5476 52.2285 60.9003C52.0816 61.253 51.9934 61.3411 51.9934 61.3411C51.9934 61.3411 51.5819 61.5763 51.2586 62.1935C51.1705 62.3404 50.8178 62.7225 50.7002 62.8694C50.5533 63.0458 50.0536 63.1927 50.2006 63.3691C50.3769 63.5454 50.9353 63.9569 51.2292 64.1626C51.3174 64.2214 51.5819 64.2802 51.4937 64.0156C51.435 63.7511 50.9941 63.3397 51.0235 63.1339C51.0529 62.9282 52.1991 61.8702 52.3461 61.7232C52.4342 61.635 52.64 61.5469 52.7575 61.3999C52.8751 61.253 53.2865 60.7827 53.5804 59.9892C53.5804 59.9892 54.3152 60.1655 54.5797 60.2831C54.6679 60.3125 54.903 60.4007 54.6091 60.577C54.4328 60.6946 54.2564 60.8709 53.8743 61.3411C53.8743 61.3411 53.5511 61.6644 53.4629 61.7232C53.3747 61.782 52.8457 61.8996 52.9926 62.1641C53.169 62.3992 53.8743 62.9576 54.0213 63.0164C54.1682 63.0752 54.3446 63.0752 54.2564 62.84C54.1682 62.6049 53.9919 62.4874 53.9037 62.1053C53.9037 62.1053 53.9331 61.8996 54.1095 61.7526C54.2858 61.6057 55.4026 60.7533 55.5496 60.577C55.6965 60.4007 55.7553 60.1655 55.5496 59.8716C55.3439 59.6071 54.9912 59.4308 54.2564 58.9018C54.2564 58.9018 54.2564 58.1964 54.5503 57.7555C54.5503 57.7555 54.6679 57.8143 54.8148 57.7262C54.9618 57.638 55.1675 57.5792 55.6965 57.0502C55.7259 57.1677 55.9317 56.9032 56.0198 56.9326Z" fill="white"/>
<path d="M39.5315 63.3979C39.0319 63.6918 38.5616 63.6918 38.5028 63.4272C38.4441 63.1627 38.1502 60.8703 37.9738 60.7234C37.4448 60.1943 36.5631 60.3707 36.5631 59.4302C36.5631 59.0775 36.7394 58.4603 36.7394 58.4603L37.5624 59.4008C37.5624 59.4008 37.6799 59.7241 37.915 59.7829C38.1502 59.8417 38.4441 59.4596 38.2677 59.2832C38.1208 59.1363 37.7387 58.9893 37.7387 58.9893L36.9452 57.7256C36.9452 57.7256 37.0333 57.4023 37.0921 56.932C37.1509 56.4618 37.004 56.3736 36.7982 56.1385C36.5925 55.9328 36.5337 55.874 36.5925 55.727C36.6513 55.5507 36.9452 55.5507 37.0333 55.4919C37.2097 55.4037 37.2685 55.198 37.2097 54.5514C37.1509 53.8461 36.6807 53.8167 36.5043 53.8755C36.3574 53.9048 35.7402 54.1106 35.7108 54.6396C35.652 54.669 35.5638 54.6984 35.5344 54.6984C35.4463 54.6984 35.3287 54.6396 35.1818 54.7572C35.0348 54.9041 35.1524 55.1098 34.976 55.3156C34.7997 55.5213 34.594 55.5801 34.5352 55.5801C34.5352 55.5801 34.976 55.8152 35.2699 55.5801C35.5932 55.345 35.3875 55.0511 35.5051 54.9335C35.5932 54.8453 35.6814 54.8159 35.7402 54.8453C35.799 55.345 36.1222 55.4919 35.8577 55.7564C35.7696 55.8446 35.123 56.0209 35.0054 56.1679C34.6527 56.5793 34.3001 57.1084 34.0943 57.4611C33.918 57.7843 33.7123 58.2252 33.8592 58.284C34.0062 58.3428 35.0348 58.813 35.0348 58.813C35.0348 58.813 34.8879 59.2538 34.7115 59.7535C34.5646 60.1943 34.6821 61.1936 34.6821 61.6345C34.6821 61.7814 34.5646 61.8696 34.4764 61.8696C34.1531 61.8402 33.6535 61.9871 32.9481 62.1635C32.8893 62.1929 32.8306 62.1635 32.7718 62.1047L32.5073 61.8402C32.4485 61.7814 32.3603 61.8108 32.2721 61.899C32.037 62.2516 31.5962 62.957 31.4786 63.2215C31.3317 63.5154 31.5962 63.5448 31.7431 63.3685C31.8901 63.1921 32.2134 62.8982 32.4779 62.7807C33.0069 62.5749 34.594 62.8101 34.7997 62.8101C34.976 62.8101 35.123 62.6631 35.2112 62.5162C35.2993 62.3692 36.0635 60.7821 36.0635 60.7821L37.2979 61.4287C37.3566 61.4581 37.386 61.5463 37.386 61.6345C37.386 61.8402 37.4154 62.281 37.5036 62.4868C37.5918 62.6631 38.0914 63.633 38.1208 64.1032C38.1796 64.6616 38.2971 64.691 38.3265 64.691C38.3853 64.691 39.4727 63.9563 39.7372 63.6918C39.943 63.3979 39.7372 63.2803 39.5315 63.3979ZM34.447 57.9019L35.0936 57.0496V58.3428L34.447 57.9019Z" fill="white"/>
<path d="M59.6348 6.58684C59.5173 6.0872 59.1352 5.70513 58.665 5.52879C58.1947 5.38184 57.6657 5.47001 57.2542 5.76391C56.3137 6.52806 54.2564 6.91013 51.1411 6.91013H51.1117C50.2888 6.93952 48.6429 6.88074 46.2035 6.76318L30.8031 5.99903C30.8031 5.99903 30.8031 5.99903 30.7737 5.99903C30.1271 5.96964 29.5099 5.96964 28.9515 5.96964C28.687 5.96964 28.4225 5.96964 28.1874 5.96964C24.2785 5.88147 19.3997 6.85135 17.3718 9.81975C15.4027 12.7294 15.3439 18.1665 17.2249 24.3091C17.3718 24.7499 17.6951 25.132 18.136 25.279C18.3123 25.3377 18.4886 25.3671 18.6356 25.3671C18.9295 25.3671 19.194 25.279 19.4585 25.132C21.5452 23.7507 24.9251 23.8095 26.953 23.8388C27.3351 23.8388 27.6878 23.8388 27.9817 23.8388C28.8046 23.8388 32.978 24.074 37.0044 24.2797C42.1183 24.5736 47.4085 24.8675 48.7311 24.8381C52.7575 24.7499 57.1954 24.1915 59.576 20.9292C61.5452 18.1959 61.5452 13.9344 59.6348 6.58684Z" fill="#003057"/>
<path d="M30.7415 7.46838C29.801 7.43899 28.9487 7.43899 28.1846 7.4096C24.5108 7.35082 20.2492 8.23253 18.6328 10.6425C17.0457 12.9937 16.84 17.8137 18.6915 23.8387C21.5718 21.9577 26.0979 22.3398 28.0082 22.281C29.9186 22.2516 46.3771 23.3391 48.7577 23.2803C52.5784 23.1921 56.4579 22.6925 58.3976 20.018C59.5732 18.3427 60.3374 15.2862 58.1919 6.96875C56.6636 8.17375 53.7834 8.43826 51.1676 8.43826C50.2565 8.46765 48.405 8.40887 46.1419 8.29131L30.7415 7.46838Z" fill="white"/>
<path d="M19.1621 11.4071C20.661 8.73261 25.481 8.1742 28.2143 8.26237C31.1533 8.32115 48.7286 9.3792 51.1386 9.26164C53.7837 9.26164 56.5757 8.93834 57.9571 8.05664C56.6639 9.99639 53.2841 10.3197 50.4626 10.4666C48.3759 10.496 29.8895 9.43798 27.9791 9.43798C26.4509 9.40859 21.6603 9.55554 19.1621 11.4071Z" fill="#0058A2"/>
<path d="M19.0146 22.751C20.8074 20.341 25.4217 20.3116 28.155 20.3704C31.094 20.4291 46.9941 21.3696 49.404 21.2521C52.0492 21.2521 56.0168 20.9582 57.8978 19.3711C55.6935 22.3983 51.5789 22.3689 48.7575 22.5158C46.3769 22.6628 29.9478 21.4578 28.0374 21.4872C26.0977 21.5166 21.601 21.2815 19.0146 22.751Z" fill="#0058A2"/>
<path d="M27.2725 15.4323C27.7134 15.0796 28.0367 14.5506 28.0367 13.9334V13.375C28.0367 12.3464 27.2137 11.5234 26.1851 11.5234H21.1006V15.4323V19.2824H26.1851C27.2137 19.2824 28.0367 18.4595 28.0367 17.4309V16.9312C28.0367 16.314 27.7428 15.7556 27.2725 15.4323ZM23.9808 16.2259H25.1564C25.5091 16.2259 25.7736 16.5198 25.7736 16.8431C25.7736 17.1957 25.4797 17.4602 25.1564 17.4602H23.3342V15.0796V13.4926H25.1564C25.5091 13.4926 25.7736 13.7865 25.7736 14.1098C25.7736 14.4625 25.4797 14.727 25.1564 14.727H24.4217L23.54 16.1965H23.9808V16.2259Z" fill="#E73137"/>
<path d="M41.0277 11.5234H38.3532C37.7066 11.5234 37.3833 12.0525 37.1775 12.7872L36.5016 15.8732L35.855 12.8166C35.6786 12.0525 35.326 11.5528 34.6794 11.5528H32.0049V19.3118H34.2385V13.9334L35.4141 19.3118H37.589L38.7646 13.9334V19.3118H40.9983L41.0277 11.5234Z" fill="#E73137"/>
<path d="M53.7832 11.3184C55.2821 11.3184 56.4871 12.5527 56.4871 14.081V16.6674C56.4871 18.1957 55.2821 19.43 53.7832 19.43H52.1668C50.6679 19.43 49.4629 18.1957 49.4629 16.6674V14.081C49.4629 12.5527 50.6679 11.3184 52.1668 11.3184H53.7832ZM52.5782 13.3463C52.0786 13.3463 51.6672 13.7577 51.6672 14.2574V16.491C51.6672 16.9907 52.0786 17.4021 52.5782 17.4021H53.4012C53.9008 17.4021 54.3123 16.9907 54.3123 16.491V14.2574C54.3123 13.7577 53.9008 13.3463 53.4012 13.3463H52.5782Z" fill="#E73137"/>
<path d="M31.0061 11.5234H28.7725V19.2824H31.0061V11.5234Z" fill="#E73137"/>
<path d="M48.9038 13.9333V13.3749C48.9038 12.3463 48.0809 11.5527 47.0523 11.5527H41.9678V15.4616V19.3117H47.0523C48.0809 19.3117 48.9038 18.4888 48.9038 17.4602V16.9311C48.9038 16.3139 48.6099 15.7849 48.1397 15.4322V15.4028C48.6099 15.0796 48.9038 14.5505 48.9038 13.9333ZM46.0236 17.4602H44.2014V15.4322V15.0796V13.4925H45.9942C46.3469 13.4925 46.6114 13.7864 46.6114 14.1097C46.6114 14.4624 46.3175 14.7269 45.9942 14.7269H45.2595L44.3778 16.1964H44.7892H45.9648C46.3175 16.1964 46.582 16.4903 46.582 16.8136C46.6408 17.1956 46.3763 17.4602 46.0236 17.4602Z" fill="#E73137"/>
<path d="M56.9022 19.283C56.9022 19.6063 56.6377 19.8414 56.3144 19.8414C55.9911 19.8414 55.7266 19.5769 55.7266 19.283C55.7266 18.9597 55.9911 18.7246 56.3144 18.7246C56.667 18.7246 56.9022 18.9891 56.9022 19.283ZM55.9029 19.283C55.9029 19.5475 56.0792 19.7239 56.3438 19.7239C56.5789 19.7239 56.7846 19.5181 56.7846 19.283C56.7846 19.0185 56.6083 18.8422 56.3438 18.8422C56.0792 18.8422 55.9029 19.0479 55.9029 19.283ZM56.2556 19.5769H56.138V19.0185C56.1968 19.0185 56.2556 18.9891 56.3438 18.9891C56.4613 18.9891 56.4907 19.0185 56.5495 19.0185C56.5789 19.0479 56.6083 19.0773 56.6083 19.1361C56.6083 19.1949 56.5495 19.2536 56.4907 19.2536C56.5495 19.283 56.5789 19.3124 56.5789 19.4006C56.6083 19.4888 56.6083 19.5181 56.6083 19.5475H56.4613C56.4319 19.5181 56.4319 19.4888 56.4025 19.4006C56.4025 19.3418 56.3438 19.3124 56.285 19.3124H56.2556V19.5769ZM56.2556 19.283H56.3144C56.3731 19.283 56.4319 19.2536 56.4319 19.1949C56.4319 19.1361 56.4025 19.1067 56.3144 19.1067C56.285 19.1067 56.2556 19.1067 56.2556 19.1067V19.283Z" fill="#E73137"/>
</svg>
