<svg width="36" height="36" viewBox="0 0 36 36" fill="none" xmlns="http://www.w3.org/2000/svg">
<path d="M24.9002 8.73C23.8749 7.55943 23.3098 6.05615 23.3102 4.5H18.6752V23.1C18.6395 24.1065 18.2145 25.0599 17.4899 25.7594C16.7652 26.4589 15.7974 26.8499 14.7902 26.85C12.6602 26.85 10.8902 25.11 10.8902 22.95C10.8902 20.37 13.3802 18.435 15.9452 19.23V14.49C10.7702 13.8 6.24023 17.82 6.24023 22.95C6.24023 27.945 10.3802 31.5 14.7752 31.5C19.4852 31.5 23.3102 27.675 23.3102 22.95V13.515C25.1897 14.8648 27.4463 15.589 29.7602 15.585V10.95C29.7602 10.95 26.9402 11.085 24.9002 8.73Z" fill="#D9E1E1"/>
</svg>
