<svg width="178" height="171" viewBox="0 0 178 171" fill="none" xmlns="http://www.w3.org/2000/svg">
<g clip-path="url(#clip0_424_26035)">
<path d="M29.7384 157.983C29.7384 166.401 23.1286 171 12.8549 171C7.89669 171 3.40513 169.917 0 168.367L3.35773 158.658C5.73112 160 9.13989 161.499 13.4783 161.499C16.3694 161.499 16.8361 160.828 16.8361 160.31C16.8361 157.417 3.00045 160.259 3.00045 148.379C3.00045 140.425 9.24562 134.742 19.3152 134.742C23.187 134.742 27.7806 135.57 31.3972 136.756L28.0431 146.414C26.0306 145.381 22.312 144.346 18.7501 144.346C16.9454 144.346 15.6002 144.604 15.6002 145.535C15.6002 148.584 29.7457 145.688 29.7457 157.983H29.7384Z" fill="white"/>
<path d="M70.6253 135.413L65.7217 170.329H53.0199L54.8282 157.366H46.567L44.7623 170.329H32.0605L36.9677 135.413H49.6695L47.9123 147.964H56.1735L57.9271 135.413H70.6289H70.6253Z" fill="white"/>
<path d="M106.346 170.329H93.5423L92.8715 164.493H83.0608L80.7895 170.329H67.9346L84.4061 135.413H99.638L106.35 170.329H106.346ZM86.3128 156.33H91.8908L90.6002 145.585L86.3128 156.33Z" fill="white"/>
<path d="M134.277 157.469C137.427 162.272 140.471 161.601 142.64 161.601L141.506 169.968C139.647 170.537 137.478 171 134.485 171C129.475 171 126.843 168.367 123.074 159.38C122.866 159.431 122.662 159.431 122.454 159.431L120.904 170.329H108.563L113.416 135.774C116.307 135.26 121.936 134.742 126.322 134.742C135.152 134.742 143.617 136.912 143.617 145.33C143.617 152.406 139.487 155.711 134.273 157.469H134.277ZM130.974 147.241C130.974 144.71 128.032 144.141 125.965 144.141C125.396 144.141 124.882 144.192 124.517 144.243L123.537 151.217C123.846 151.268 124.207 151.268 124.619 151.268C126.84 151.268 130.97 150.699 130.97 147.238L130.974 147.241Z" fill="white"/>
<path d="M161.685 145.228L161.274 148.277H174.336L173.046 157.366H159.983L159.571 160.569H174.493L173.1 170.333H145.735L150.643 135.417H178.008L176.615 145.232H161.693L161.685 145.228Z" fill="white"/>
<path d="M45.7945 59.0504V60.6516C45.7945 72.4834 36.1952 82.0868 24.3684 82.0868C12.5416 82.0868 2.99707 72.4834 2.99707 60.6516C2.99707 48.8197 12.538 39.2164 24.3684 39.2164C30.2527 39.2164 35.5682 41.6163 39.4545 45.446L31.5105 53.3351C29.6803 51.6209 27.2814 50.4756 24.3684 50.4756C18.9983 50.4756 14.2551 54.7648 14.2551 60.6516C14.2551 66.5383 19.1113 70.8276 24.3684 70.8276C27.7408 70.8276 30.8834 69.168 32.6516 66.5967H24.3684V59.0504H45.7945Z" fill="white"/>
<path d="M68.1907 39.2153C80.0175 39.2153 89.6168 48.877 89.6168 60.7089C89.6168 72.5407 80.0175 82.0893 68.1907 82.0893C56.3639 82.0893 46.8193 72.5444 46.8193 60.7089C46.8193 48.8734 56.3603 39.2153 68.1907 39.2153ZM68.1907 50.4198C62.5908 50.4198 58.0191 54.9935 58.0191 60.6505C58.0191 66.3075 62.5908 70.8812 68.1907 70.8812C73.7906 70.8812 78.417 66.2491 78.417 60.6505C78.417 55.0519 73.8453 50.4198 68.1907 50.4198Z" fill="white"/>
<path d="M113.671 39.2155C125.498 39.2155 135.097 48.8772 135.097 60.7091C135.097 72.5409 125.498 82.0896 113.671 82.0896C101.844 82.0896 92.2998 72.5446 92.2998 60.7091C92.2998 48.8736 101.841 39.2155 113.671 39.2155ZM113.671 50.4201C108.071 50.4201 103.5 54.9938 103.5 60.6507C103.5 66.3077 108.071 70.8814 113.671 70.8814C119.271 70.8814 123.898 66.2493 123.898 60.6507C123.898 55.0521 119.326 50.4201 113.671 50.4201Z" fill="white"/>
<path d="M139.494 39.2156H155.379C167.205 39.2156 176.805 48.8189 176.805 60.6507C176.805 72.4826 167.205 82.0859 155.379 82.0859H139.494V39.2119V39.2156ZM150.694 70.9981H155.437C161.037 70.9981 165.609 66.4244 165.609 60.8222C165.609 55.2199 161.037 50.7046 155.437 50.7046H150.694V70.9981Z" fill="white"/>
<path d="M2.93072 8.42528C2.83957 8.42528 2.75207 8.3888 2.66093 8.31221C2.56979 8.23926 2.49687 8.13349 2.43489 7.99854C2.37656 7.86359 2.34375 7.72135 2.34375 7.57181V0.992079C2.34375 0.780536 2.40573 0.594523 2.52604 0.430395C2.64635 0.266266 2.78124 0.182378 2.93072 0.182378C16.1101 0.124022 23.1537 0.124022 24.0542 0.182378C24.2037 0.182378 24.3385 0.266266 24.4589 0.430395C24.5792 0.594523 24.6411 0.784183 24.6411 0.992079V7.56816C24.6411 7.7797 24.5792 7.96572 24.4589 8.12985C24.3385 8.29397 24.2037 8.39245 24.0542 8.42163C23.1828 8.45081 22.0126 8.42892 20.5397 8.35233C19.0668 8.27938 18.0752 8.23926 17.5684 8.23926C17.5684 11.0331 17.5392 14.8992 17.4772 19.8413C17.4153 24.7834 17.4007 28.3942 17.4299 30.6775C17.4299 30.9182 17.3387 31.1224 17.1601 31.2866C16.9814 31.4507 16.77 31.5346 16.5294 31.5346H9.90868C9.66806 31.5346 9.4566 31.4507 9.27796 31.2866C9.09568 31.1224 9.00818 30.9182 9.00818 30.6775C9.00818 29.627 8.97901 26.4138 8.91703 21.034C8.85506 15.6579 8.84047 11.3614 8.86964 8.14808C8.18059 8.14808 7.17437 8.19185 5.8546 8.28303C4.5312 8.37421 3.55778 8.41798 2.92707 8.41798L2.93072 8.42528Z" fill="white"/>
<path d="M26.3507 31.5382C26.1101 31.5382 25.8986 31.4543 25.72 31.2902C25.5413 31.1261 25.4502 30.9218 25.4502 30.6811V0.900883C25.4502 0.630983 25.5413 0.412145 25.72 0.248016C25.9023 0.0838879 26.1101 0 26.3507 0H33.15C33.3906 0 33.6021 0.0911825 33.7807 0.2699C33.963 0.448618 34.0505 0.660161 34.0505 0.900883L33.7807 11.5328H38.1046L37.8348 0.900883C37.8348 0.660161 37.915 0.452265 38.0827 0.2699C38.2468 0.0911825 38.4655 0 38.7353 0H45.5346C45.7752 0 45.9758 0.0838879 46.1435 0.248016C46.3075 0.412145 46.3914 0.630983 46.3914 0.900883V30.6811C46.3914 30.9218 46.3075 31.1261 46.1435 31.2902C45.9758 31.4543 45.7752 31.5382 45.5346 31.5382H38.7353C38.4655 31.5382 38.2468 31.447 38.0827 31.2683C37.915 31.0896 37.8348 30.878 37.8348 30.6373L38.1046 19.958H33.7807L34.0505 30.6373C34.0505 30.878 33.9594 31.0896 33.7807 31.2683C33.6021 31.447 33.3906 31.5382 33.15 31.5382H26.3507Z" fill="white"/>
<path d="M49.7243 31.5382C49.4837 31.5382 49.2759 31.4543 49.0936 31.2902C48.915 31.1261 48.8238 30.9218 48.8238 30.6811C48.5249 20.9209 48.5249 10.993 48.8238 0.900883C48.8238 0.630983 48.915 0.412145 49.0936 0.248016C49.2759 0.0838879 49.4837 0 49.7243 0H67.8291C68.0697 0 68.2775 0.0838879 68.4598 0.248016C68.6385 0.412145 68.7296 0.630983 68.7296 0.900883V8.02041C68.7296 8.26114 68.6385 8.47268 68.4598 8.6514C68.2775 8.83011 68.0697 8.9213 67.8291 8.9213L57.1544 8.29031V11.5328L63.2792 11.2629C63.5198 11.2629 63.7313 11.3468 63.9099 11.5109C64.0886 11.675 64.1797 11.8938 64.1797 12.1637V19.2833C64.1797 19.524 64.0886 19.7355 63.9099 19.9143C63.7313 20.093 63.5198 20.1842 63.2792 20.1842L57.1544 19.8705V22.9342L69.2692 22.347C69.5098 22.347 69.7103 22.4309 69.878 22.595C70.0421 22.7592 70.1259 22.9634 70.1259 23.2041V30.6847C70.1259 30.9255 70.0348 31.1297 69.8561 31.2938C69.6775 31.458 69.4661 31.5419 69.2254 31.5419C67.3953 31.633 64.8469 31.6768 61.5912 31.6768C58.3356 31.6768 55.5502 31.6476 53.2388 31.5856L49.7243 31.5419V31.5382Z" fill="white"/>
<path d="M7.62704 127.221C7.38642 126.2 7.1458 125.142 6.90883 124.045C6.66821 122.947 6.45675 121.958 6.27811 121.072C6.09582 120.186 5.89531 119.121 5.66927 117.873C5.44324 116.626 5.27189 115.66 5.15158 114.967C5.03127 114.277 4.85992 113.238 4.63388 111.859C4.40784 110.477 4.25108 109.532 4.15993 109.021C4.06879 108.511 3.91202 107.49 3.68599 105.958C3.45995 104.426 3.32506 103.51 3.28131 103.208C3.23756 102.909 3.09537 101.916 2.85475 100.235C2.61414 98.5537 2.47924 97.6382 2.45008 97.485C2.42091 97.2151 2.48653 96.9671 2.65059 96.741C2.81465 96.5148 3.0334 96.4054 3.30318 96.4054L9.33689 96.4966C9.57751 96.5258 9.77074 96.6461 9.92021 96.8577L13.7045 119.475L16.2711 101.814C16.3003 101.606 16.3987 101.424 16.5628 101.275C16.7268 101.125 16.931 101.048 17.1716 101.048L23.0267 101.005C23.4168 101.005 23.6866 101.202 23.836 101.592V101.636C23.8652 101.698 23.8798 101.756 23.8798 101.814L26.7162 119.161L30.1833 97.3537C30.2124 97.1422 30.3109 96.9635 30.4749 96.8139C30.639 96.6644 30.8286 96.5878 31.0364 96.5878L36.9352 96.5404C37.205 96.5404 37.4237 96.6461 37.5878 96.8577C37.7519 97.0692 37.8065 97.3063 37.7446 97.5762C35.9436 110.283 34.3941 119.985 33.1072 126.682C33.016 127.163 32.7608 127.404 32.3416 127.404L22.3449 127.944C22.1335 127.944 21.9548 127.874 21.8054 127.739C21.6559 127.604 21.5501 127.433 21.4918 127.221C21.0106 125.121 20.6205 123.107 20.3215 121.185C19.9023 123.198 19.5268 125.029 19.195 126.682C19.133 127.163 18.8778 127.404 18.4294 127.404L8.43275 127.944C8.25046 127.944 8.07911 127.874 7.91505 127.739C7.74735 127.604 7.65256 127.433 7.62339 127.221H7.62704Z" fill="white"/>
<path d="M39.9177 127.944C39.6771 127.944 39.4693 127.86 39.287 127.696C39.1083 127.531 39.0172 127.327 39.0172 127.087C38.7182 117.326 38.7182 107.398 39.0172 97.3063C39.0172 97.0364 39.1083 96.8176 39.287 96.6534C39.4693 96.4893 39.6771 96.4054 39.9177 96.4054H58.0225C58.2631 96.4054 58.4709 96.4893 58.6532 96.6534C58.8318 96.8176 58.923 97.0364 58.923 97.3063V104.426C58.923 104.667 58.8318 104.878 58.6532 105.057C58.4709 105.239 58.2631 105.327 58.0225 105.327L47.3477 104.696V107.938L53.4726 107.668C53.7132 107.668 53.9246 107.752 54.1033 107.916C54.2819 108.08 54.3731 108.299 54.3731 108.569V115.689C54.3731 115.929 54.2819 116.141 54.1033 116.32C53.9246 116.502 53.7132 116.59 53.4726 116.59L47.3477 116.276V119.34L59.4625 118.752C59.7032 118.752 59.9037 118.836 60.0714 119C60.2354 119.168 60.3193 119.369 60.3193 119.61V127.09C60.3193 127.331 60.2281 127.535 60.0495 127.699C59.8709 127.863 59.6594 127.947 59.4188 127.947C57.5886 128.038 55.0402 128.082 51.7846 128.082C48.5289 128.082 45.7436 128.053 43.4322 127.991L39.9177 127.947V127.944Z" fill="white"/>
<path d="M68.1897 39.2158C80.0165 39.2158 89.6158 48.8775 89.6158 60.7094C89.6158 72.5412 80.0165 82.0898 68.1897 82.0898C56.3629 82.0898 46.8184 72.5448 46.8184 60.7094C46.8184 48.8739 56.3593 39.2158 68.1897 39.2158ZM68.1897 50.4203C62.5899 50.4203 58.0181 54.994 58.0181 60.651C58.0181 66.308 62.5899 70.8817 68.1897 70.8817C73.7896 70.8817 78.4161 66.2496 78.4161 60.651C78.4161 55.0524 73.8443 50.4203 68.1897 50.4203Z" fill="white"/>
<path d="M113.67 39.2158C125.497 39.2158 135.096 48.8775 135.096 60.7094C135.096 72.5412 125.497 82.0898 113.67 82.0898C101.843 82.0898 92.2988 72.5448 92.2988 60.7094C92.2988 48.8739 101.84 39.2158 113.67 39.2158ZM113.67 50.4203C108.07 50.4203 103.499 54.994 103.499 60.651C103.499 66.308 108.07 70.8817 113.67 70.8817C119.27 70.8817 123.897 66.2496 123.897 60.651C123.897 55.0524 119.325 50.4203 113.67 50.4203Z" fill="white"/>
<path d="M140.536 93.7684L138.673 120.656C138.662 120.923 138.557 121.185 138.352 121.386C137.926 121.813 137.233 121.813 136.803 121.386L131.13 115.711C114.867 131.109 88.413 130.07 71.5259 113.176C70.2353 111.885 69.0431 110.539 67.9385 109.145C84.5048 116.797 104.115 114.5 117.411 101.982L111.764 96.3325C111.585 96.1501 111.465 95.9094 111.447 95.6322C111.407 95.0304 111.859 94.5052 112.464 94.465L139.355 92.6013C139.41 92.5976 139.468 92.5976 139.523 92.6013C140.124 92.6414 140.58 93.1666 140.54 93.7684H140.536Z" fill="white"/>
</g>
<defs>
<clipPath id="clip0_424_26035">
<rect width="178" height="171" fill="white"/>
</clipPath>
</defs>
</svg>
