<svg width="254" height="75" viewBox="0 0 254 75" fill="none" xmlns="http://www.w3.org/2000/svg">
<path d="M243.709 73.9511H9.54312C4.77135 73.9511 0.930664 70.1104 0.930664 65.3386V9.9396C0.930664 5.16784 4.77135 1.32715 9.54312 1.32715H243.709C248.481 1.32715 252.321 5.16784 252.321 9.9396V65.455C252.321 70.1104 248.481 73.9511 243.709 73.9511Z" fill="black"/>
<path d="M243.709 74.999H9.54353C4.30623 74.999 0 70.6927 0 65.4554V9.94001C0 4.70271 4.30623 0.396484 9.54353 0.396484H243.709C248.947 0.396484 253.253 4.70271 253.253 9.94001V65.4554C253.253 70.6927 248.947 74.999 243.709 74.999ZM9.54353 2.25864C5.35369 2.25864 1.86215 5.63379 1.86215 9.94001V65.4554C1.86215 69.6453 5.2373 73.1368 9.54353 73.1368H243.709C247.899 73.1368 251.391 69.7617 251.391 65.4554V9.94001C251.391 5.75017 248.015 2.25864 243.709 2.25864H9.54353Z" fill="#B2B2B2"/>
<path d="M84.2628 21.5804L83.2154 25.0719H80.8877L84.8448 12.8516H87.7544L91.7115 25.0719H89.2674L88.1035 21.5804H84.2628ZM87.8708 19.951L86.9397 16.925C86.7069 16.2267 86.4741 15.2956 86.3578 14.5973C86.125 15.2956 86.0086 16.1103 85.7758 16.925L84.8448 19.951H87.8708Z" fill="white"/>
<path d="M95.0858 16.2275L96.4825 20.7665C96.7152 21.5812 96.948 22.2795 97.0644 22.9778C97.1808 22.2795 97.4135 21.5812 97.6463 20.7665L99.0429 16.2275H101.371L97.9955 25.0728H95.7842L92.5254 16.2275H95.0858Z" fill="white"/>
<path d="M110.448 22.977C110.448 23.7917 110.448 24.6064 110.565 25.0719H108.586L108.47 24.1408C107.888 24.8391 107.073 25.3047 105.909 25.3047C104.164 25.3047 103.116 24.0244 103.116 22.6278C103.116 20.4165 105.095 19.2527 108.354 19.2527V19.1363C108.354 18.5544 108.121 17.6233 106.608 17.6233C105.793 17.6233 104.862 17.856 104.28 18.3216L103.582 16.8086C104.28 16.4594 105.328 15.9939 106.724 15.9939C109.517 15.9939 110.332 17.7397 110.332 19.7182V22.977H110.448ZM108.237 20.7657C106.608 20.7657 105.095 21.1148 105.095 22.395C105.095 23.2097 105.677 23.6753 106.375 23.6753C107.306 23.6753 107.888 23.0934 108.121 22.5114C108.121 22.395 108.121 22.1623 108.121 22.0459V20.7657H108.237Z" fill="white"/>
<path d="M114.64 14.9478C113.941 14.9478 113.359 14.3659 113.359 13.784C113.359 13.0857 113.825 12.6201 114.64 12.6201C115.454 12.6201 115.92 13.202 115.92 13.784C115.92 14.3659 115.454 14.9478 114.64 14.9478ZM113.592 25.0733V16.228H115.803V25.0733H113.592Z" fill="white"/>
<path d="M119.062 12.1533H121.273V25.072H119.062V12.1533Z" fill="white"/>
<path d="M131.399 22.977C131.399 23.7917 131.399 24.6064 131.515 25.072H129.536L129.42 24.1409C128.838 24.8392 128.023 25.3047 126.86 25.3047C125.114 25.3047 124.066 24.0245 124.066 22.6279C124.066 20.4166 126.045 19.2527 129.304 19.2527V19.1363C129.304 18.5544 129.071 17.6234 127.558 17.6234C126.743 17.6234 125.812 17.8561 125.23 18.3217L124.765 16.925C125.463 16.5759 126.51 16.1104 127.907 16.1104C130.7 16.1104 131.515 17.8561 131.515 19.8347V22.977H131.399ZM129.187 20.7657C127.558 20.7657 126.045 21.1149 126.045 22.3951C126.045 23.2098 126.627 23.6753 127.325 23.6753C128.256 23.6753 128.838 23.0934 129.071 22.5115C129.071 22.3951 129.071 22.1623 129.071 22.046V20.7657H129.187Z" fill="white"/>
<path d="M134.54 12.1531H136.751V17.3904C137.333 16.5757 138.264 15.9938 139.545 15.9938C141.756 15.9938 143.269 17.7395 143.269 20.5328C143.269 23.6751 141.29 25.3045 139.312 25.3045C138.148 25.3045 137.101 24.839 136.519 23.7915L136.402 25.0718H134.54C134.54 24.4898 134.656 23.4424 134.656 22.6277V12.1531H134.54ZM136.751 21.4638C136.751 21.6966 136.751 21.813 136.751 22.0458C136.984 22.9768 137.799 23.5588 138.73 23.5588C140.126 23.5588 140.941 22.3949 140.941 20.6491C140.941 19.1361 140.243 17.8559 138.73 17.8559C137.799 17.8559 136.984 18.5542 136.751 19.4853C136.751 19.6017 136.635 19.8345 136.635 20.0672V21.4638H136.751Z" fill="white"/>
<path d="M145.947 12.1533H148.159V25.072H145.947V12.1533Z" fill="white"/>
<path d="M153.045 21.2313C153.045 22.8607 154.326 23.559 155.722 23.559C156.77 23.559 157.468 23.4426 158.166 23.2098L158.515 24.7228C157.701 25.072 156.653 25.3047 155.373 25.3047C152.463 25.3047 150.834 23.559 150.834 20.8821C150.834 18.438 152.347 16.1104 155.14 16.1104C158.05 16.1104 158.981 18.438 158.981 20.4166C158.981 20.8821 158.981 21.1149 158.865 21.3477H153.045V21.2313ZM156.886 19.7183C156.886 18.9036 156.537 17.507 155.024 17.507C153.627 17.507 153.045 18.7872 152.929 19.7183H156.886Z" fill="white"/>
<path d="M170.039 25.3047C167.595 25.3047 165.616 23.559 165.616 20.7657C165.616 17.8561 167.478 16.1104 170.155 16.1104C172.832 16.1104 174.578 17.9725 174.578 20.6493C174.578 23.7917 172.25 25.3047 170.039 25.3047ZM170.039 23.6753C171.319 23.6753 172.25 22.3951 172.25 20.6493C172.25 19.2527 171.668 17.6234 170.155 17.6234C168.526 17.6234 167.944 19.1363 167.944 20.6493C167.828 22.3951 168.759 23.6753 170.039 23.6753Z" fill="white"/>
<path d="M177.137 18.9035C177.137 17.856 177.137 17.0414 177.021 16.2267H178.999L179.115 17.5069C179.465 16.8086 180.512 15.9939 181.909 15.9939C183.422 15.9939 185.051 17.0414 185.051 19.8346V25.0719H182.84V20.0674C182.84 18.7871 182.374 17.856 181.094 17.856C180.163 17.856 179.581 18.438 179.348 19.1363C179.232 19.369 179.232 19.6018 179.232 19.8346V25.0719H177.021V18.9035H177.137Z" fill="white"/>
<path d="M195.526 13.8994V16.2271H197.621V17.8565H195.526V21.6972C195.526 22.7446 195.758 23.3266 196.69 23.3266C197.039 23.3266 197.271 23.3266 197.504 23.2102V24.9559C197.155 25.0723 196.573 25.1887 195.875 25.1887C195.06 25.1887 194.362 24.9559 193.896 24.4904C193.431 24.0249 193.198 23.2102 193.198 22.0463V17.8565H192.034V16.2271H193.314V14.5977L195.526 13.8994Z" fill="white"/>
<path d="M200.066 12.1531H202.278V17.3904C202.51 16.9248 202.976 16.5757 203.442 16.3429C203.907 16.1101 204.373 15.9938 204.955 15.9938C206.468 15.9938 208.097 17.0412 208.097 19.8345V25.0718H205.886V20.0672C205.886 18.787 205.42 17.8559 204.14 17.8559C203.325 17.8559 202.627 18.4378 202.394 19.1361C202.278 19.3689 202.278 19.6017 202.278 19.8345V25.1881H200.066V12.1531Z" fill="white"/>
<path d="M212.867 21.2313C212.867 22.8607 214.147 23.559 215.543 23.559C216.591 23.559 217.289 23.4426 217.988 23.2098L218.337 24.7228C217.522 25.072 216.474 25.3047 215.194 25.3047C212.285 25.3047 210.655 23.559 210.655 20.8821C210.655 18.438 212.168 16.1104 214.961 16.1104C217.871 16.1104 218.802 18.438 218.802 20.4166C218.802 20.8821 218.802 21.1149 218.686 21.3477H212.867V21.2313ZM216.707 19.7183C216.707 18.9036 216.358 17.507 214.845 17.507C213.449 17.507 212.867 18.7872 212.75 19.7183H216.707Z" fill="white"/>
<path d="M56.5617 36.9432C56.5617 30.8912 61.5662 27.9816 61.799 27.7488C59.0058 23.559 54.5832 23.0934 52.9538 22.9771C49.2295 22.6279 45.6216 25.1884 43.7594 25.1884C41.7809 25.1884 38.9876 22.9771 35.8453 23.0934C31.7718 23.2098 28.0475 25.5375 25.9526 29.1454C21.6463 36.4777 24.9051 47.4178 28.9786 53.3534C31.0735 56.263 33.4012 59.5218 36.5436 59.4054C39.5696 59.289 40.7334 57.4269 44.3413 57.4269C47.9492 57.4269 49.1131 59.4054 52.2555 59.289C55.5142 59.289 57.6092 56.3794 59.5877 53.3534C61.9154 49.9783 62.8465 46.7195 62.9628 46.4867C62.8465 46.6031 56.5617 44.159 56.5617 36.9432Z" fill="white"/>
<path d="M50.5102 19.1365C52.1396 17.0415 53.3034 14.2483 52.9543 11.4551C50.6266 11.5715 47.6006 13.0845 45.8548 15.063C44.3418 16.8088 42.9452 19.7184 43.2944 22.5116C46.0876 22.7444 48.7644 21.115 50.5102 19.1365Z" fill="white"/>
<path d="M100.671 58.9397H96.3648L94.0372 51.6075H85.8902L83.7953 58.9397H79.6055L87.636 34.0334H92.6405L100.671 58.9397ZM93.3388 48.4651L91.2439 41.9476C91.0112 41.2493 90.5456 39.7363 89.9637 37.2922H89.8473C89.6145 38.3397 89.149 39.9691 88.6835 41.9476L86.5885 48.4651H93.3388Z" fill="white"/>
<path d="M121.387 49.7456C121.387 52.7716 120.572 55.2156 118.943 56.9614C117.43 58.5908 115.568 59.2891 113.473 59.2891C111.145 59.2891 109.399 58.4744 108.352 56.7287H108.236V66.1558H104.278V46.836C104.278 44.8574 104.278 42.9953 104.162 40.9003H107.654L107.886 43.6936H108.003C109.283 41.5987 111.378 40.4348 114.055 40.4348C116.15 40.4348 117.895 41.2495 119.408 42.9953C120.572 44.741 121.387 46.9523 121.387 49.7456ZM117.314 49.862C117.314 48.1162 116.964 46.7196 116.15 45.5557C115.335 44.3919 114.171 43.81 112.658 43.81C111.727 43.81 110.796 44.1591 109.981 44.741C109.167 45.4393 108.701 46.254 108.352 47.3015C108.236 47.767 108.119 48.2326 108.119 48.4653V51.4913C108.119 52.7716 108.468 53.9354 109.283 54.7501C110.098 55.6812 111.145 56.1467 112.425 56.1467C113.938 56.1467 115.102 55.5648 115.917 54.401C116.848 53.2371 117.314 51.7241 117.314 49.862Z" fill="white"/>
<path d="M141.989 49.7456C141.989 52.7716 141.174 55.2156 139.545 56.9614C138.032 58.5908 136.286 59.2891 134.074 59.2891C131.747 59.2891 130.001 58.4744 128.954 56.7287H128.837V66.1558H124.88V46.836C124.88 44.8574 124.88 42.9953 124.764 40.9003H128.255L128.488 43.6936H128.604C129.885 41.5987 131.98 40.4348 134.656 40.4348C136.751 40.4348 138.497 41.2495 140.01 42.9953C141.29 44.741 141.989 46.9523 141.989 49.7456ZM137.915 49.862C137.915 48.1162 137.566 46.7196 136.751 45.5557C135.937 44.3919 134.773 43.81 133.26 43.81C132.329 43.81 131.398 44.1591 130.583 44.741C129.768 45.4393 129.303 46.254 129.07 47.3015C128.954 47.767 128.837 48.2326 128.837 48.4653V51.4913C128.837 52.7716 129.186 53.9354 130.001 54.7501C130.816 55.6812 131.863 56.1467 133.143 56.1467C134.656 56.1467 135.82 55.5648 136.635 54.401C137.566 53.2371 137.915 51.7241 137.915 49.862Z" fill="white"/>
<path d="M165.149 51.957C165.149 54.0519 164.451 55.7977 162.938 57.1943C161.308 58.7073 159.097 59.4056 156.187 59.4056C153.511 59.4056 151.299 58.9401 149.67 57.8926L150.601 54.5175C152.347 55.5649 154.325 56.1469 156.42 56.1469C157.933 56.1469 159.097 55.7977 159.912 55.0994C160.726 54.4011 161.192 53.47 161.192 52.4226C161.192 51.3751 160.843 50.5604 160.145 49.8621C159.446 49.1638 158.282 48.5819 156.653 47.8836C152.23 46.2542 150.135 43.8101 150.135 40.7841C150.135 38.6892 150.95 37.0598 152.463 35.7796C153.976 34.4993 156.071 33.801 158.515 33.801C160.843 33.801 162.705 34.1502 164.218 34.9649L163.171 38.2236C161.774 37.4089 160.145 37.0598 158.399 37.0598C157.002 37.0598 155.838 37.4089 155.14 38.1073C154.442 38.6892 154.093 39.5039 154.093 40.3186C154.093 41.2496 154.442 42.0643 155.256 42.7626C155.955 43.3446 157.119 44.0429 158.864 44.7412C160.959 45.5559 162.589 46.6033 163.636 47.7672C164.684 48.6982 165.149 50.2112 165.149 51.957Z" fill="white"/>
<path d="M178.417 43.9274H173.994V52.6562C173.994 54.8675 174.809 56.0314 176.322 56.0314C177.02 56.0314 177.602 55.915 178.068 55.7986L178.184 58.8246C177.369 59.1737 176.322 59.2901 175.042 59.2901C173.412 59.2901 172.248 58.8246 171.317 57.8935C170.386 56.9624 170.037 55.3331 170.037 53.0054V43.9274H167.36V40.9014H170.037V37.6426L173.994 36.4788V40.9014H178.417V43.9274Z" fill="white"/>
<path d="M198.319 49.7464C198.319 52.5396 197.504 54.7509 195.991 56.6131C194.362 58.4752 192.151 59.4063 189.358 59.4063C186.681 59.4063 184.586 58.4752 183.073 56.7295C181.56 54.9837 180.745 52.7724 180.745 50.0955C180.745 47.3023 181.56 44.9746 183.189 43.2288C184.819 41.4831 187.03 40.552 189.707 40.552C192.384 40.552 194.478 41.4831 196.108 43.2288C197.504 44.8582 198.319 47.0695 198.319 49.7464ZM194.129 49.8628C194.129 48.2334 193.78 46.8368 193.082 45.5565C192.267 44.1599 191.103 43.3452 189.474 43.3452C187.845 43.3452 186.681 44.0435 185.866 45.5565C185.168 46.7204 184.819 48.2334 184.819 49.8628C184.819 51.4921 185.168 52.8888 185.866 54.169C186.681 55.5656 187.961 56.2639 189.474 56.2639C190.987 56.2639 192.151 55.5656 193.082 54.0526C193.78 53.0051 194.129 51.6085 194.129 49.8628Z" fill="white"/>
<path d="M211.236 44.3935C210.887 44.2771 210.421 44.2771 209.956 44.2771C208.559 44.2771 207.512 44.859 206.697 45.9065C205.999 46.8376 205.65 48.0014 205.65 49.5144V58.9416H201.693V46.6048C201.693 44.5099 201.693 42.6477 201.576 40.902H205.068L205.184 44.3935H205.3C205.766 43.2297 206.348 42.2986 207.279 41.6003C208.21 40.902 209.141 40.6692 210.189 40.6692C210.538 40.6692 210.887 40.6692 211.236 40.7856V44.3935Z" fill="white"/>
<path d="M229.16 49.0489C229.16 49.7472 229.161 50.3291 229.044 50.911H217.057C217.057 52.6568 217.638 54.0534 218.802 54.9845C219.85 55.7992 221.13 56.2647 222.759 56.2647C224.505 56.2647 226.135 56.0319 227.648 55.45L228.229 58.2433C226.484 58.9416 224.505 59.4071 222.177 59.4071C219.384 59.4071 217.173 58.5924 215.66 56.963C214.031 55.3336 213.216 53.1223 213.216 50.3291C213.216 47.6523 213.914 45.3246 215.427 43.5788C216.94 41.6003 219.035 40.6692 221.712 40.6692C224.272 40.6692 226.251 41.6003 227.648 43.5788C228.579 44.9754 229.16 46.8376 229.16 49.0489ZM225.32 48.0014C225.32 46.8376 225.087 45.7901 224.505 44.9754C223.807 43.8116 222.759 43.346 221.363 43.346C220.083 43.346 219.035 43.928 218.22 44.9754C217.522 45.7901 217.173 46.8376 217.057 48.1178H225.32V48.0014Z" fill="white"/>
</svg>
