<svg width="23" height="13" viewBox="0 0 23 13" fill="none" xmlns="http://www.w3.org/2000/svg">
<path d="M0.5 13C0.65 11.2166 1.196 9.57495 2.138 8.07495C3.08 6.57495 4.334 5.38328 5.9 4.49995L4.05 1.29995C3.95 1.14995 3.925 0.991618 3.975 0.824951C4.025 0.658284 4.13333 0.533284 4.3 0.449951C4.43333 0.366618 4.58333 0.349951 4.75 0.399951C4.91667 0.449951 5.05 0.549951 5.15 0.699951L7 3.89995C8.43333 3.29995 9.93333 2.99995 11.5 2.99995C13.0667 2.99995 14.5667 3.29995 16 3.89995L17.85 0.699951C17.95 0.549951 18.0833 0.449951 18.25 0.399951C18.4167 0.349951 18.5667 0.366618 18.7 0.449951C18.8667 0.533284 18.975 0.658284 19.025 0.824951C19.075 0.991618 19.05 1.14995 18.95 1.29995L17.1 4.49995C18.6667 5.38328 19.9207 6.57495 20.862 8.07495C21.8033 9.57495 22.3493 11.2166 22.5 13H0.5ZM6.5 10.25C6.85 10.25 7.146 10.129 7.388 9.88695C7.63 9.64495 7.75067 9.34929 7.75 8.99995C7.75 8.64995 7.629 8.35395 7.387 8.11195C7.145 7.86995 6.84933 7.74928 6.5 7.74995C6.15 7.74995 5.854 7.87095 5.612 8.11295C5.37 8.35495 5.24933 8.65062 5.25 8.99995C5.25 9.34995 5.371 9.64595 5.613 9.88795C5.855 10.13 6.15067 10.2506 6.5 10.25ZM16.5 10.25C16.85 10.25 17.146 10.129 17.388 9.88695C17.63 9.64495 17.7507 9.34929 17.75 8.99995C17.75 8.64995 17.629 8.35395 17.387 8.11195C17.145 7.86995 16.8493 7.74928 16.5 7.74995C16.15 7.74995 15.854 7.87095 15.612 8.11295C15.37 8.35495 15.2493 8.65062 15.25 8.99995C15.25 9.34995 15.371 9.64595 15.613 9.88795C15.855 10.13 16.1507 10.2506 16.5 10.25Z" fill="white"/>
</svg>
