<?xml version="1.0" encoding="utf-8"?>
<!-- Generator: Adobe Illustrator 27.4.0, SVG Export Plug-In . SVG Version: 6.00 Build 0)  -->
<svg version="1.1" id="Layer_1" xmlns="http://www.w3.org/2000/svg" xmlns:xlink="http://www.w3.org/1999/xlink" x="0px" y="0px"
	 viewBox="0 0 178 89" style="enable-background:new 0 0 178 89;" xml:space="preserve">
<style type="text/css">
	.st0{opacity:0.5;}
	.st1{fill:#222848;}
	.st2{fill:none;stroke:#00A3E0;stroke-width:0.5;}
	.st3{fill:#FFFFFF;stroke:#FFFFFF;stroke-width:10;stroke-miterlimit:10;}
	.st4{fill:#FFFFFF;}
	.st5{fill:#143453;}
	.st6{fill:#183257;}
	.st7{fill:none;stroke:#143453;stroke-width:6.526;stroke-linecap:round;stroke-linejoin:round;stroke-miterlimit:10;}
	.st8{fill:#003057;}
	.st9{fill:#0058A2;}
	.st10{fill:#E73137;}
</style>
<g class="st0">
	<path class="st1" d="M40,19h128c5.5,0,10,4.5,10,10v38c0,5.5-4.5,10-10,10H40c-5.5,0-10-4.5-10-10V29C30,23.5,34.5,19,40,19z"/>
	<path class="st2" d="M40,19.2h128c5.4,0,9.8,4.4,9.8,9.8v38c0,5.4-4.4,9.8-9.8,9.8H40c-5.4,0-9.8-4.4-9.8-9.8V29
		C30.2,23.6,34.6,19.2,40,19.2z"/>
</g>
<path class="st3" d="M71.3,22.8c0.5-2.6,0.1-6.2-1.2-11.2c-0.1-0.5-0.5-0.9-1-1.1c-0.5-0.1-1-0.1-1.4,0.2c-0.9,0.8-3,1.1-6.1,1.1h0
	c-0.8,0-2.5,0-4.9-0.1L41.2,11c0,0,0,0,0,0c-0.6,0-1.3,0-1.8,0c-0.3,0-0.5,0-0.8,0c-3.9-0.1-8.8,0.9-10.8,3.8
	c-1.3,1.9-1.7,4.8-1.4,8.3c-6.1,5.9-9.9,14.2-9.9,23.4C16.5,64.5,31,79,49,79c18,0,32.5-14.5,32.5-32.5
	C81.5,37.2,77.6,28.8,71.3,22.8z"/>
<path class="st4" d="M61.1,89H36.6c-1.1,0-2.1-0.9-2.1-2.1V68.8c0-1.1,0.9-2.1,2.1-2.1h24.5c1.1,0,2.1,0.9,2.1,2.1v18.1
	C63.2,88.1,62.3,89,61.1,89z"/>
<path class="st5" d="M49.1,79c18,0,32.5-14.6,32.5-32.5C81.6,28.5,67,14,49.1,14S16.5,28.5,16.5,46.5C16.5,64.5,31.1,79,49.1,79z"/>
<path class="st4" d="M74.4,33.9C74.4,33.9,74.4,33.9,74.4,33.9C74.4,33.9,74.4,34,74.4,33.9C74.4,34,74.4,34,74.4,33.9z"/>
<path class="st4" d="M44.9,56.3c-0.1,0-0.1,0.1-0.2,0.1c-0.1,0-0.1,0-0.1,0c0,0,0,0,0,0c0,0,0,0,0,0c0,0,0,0,0,0c0,0,0,0,0,0
	c0,0,0,0,0,0c0,0,0,0,0,0c0,0,0,0,0,0c-0.1-0.1-0.1-0.1-0.2-0.1c0,0-0.9-1.6-2.6-1.3c-0.1-0.1-0.3-0.1-0.4-0.2c-0.1,0-0.1,0-0.2,0
	c0,0-0.1-0.1-0.1-0.1c-0.1,0.1-0.2,0.1-0.2,0.1s0,0,0,0c0,0,0,0,0,0c0,0,0,0,0,0c0,0,0,0,0,0c0,0-0.1,0-0.1-0.2c0,0-0.1,0-0.1-0.1
	c0-0.1-0.1-0.1-0.1-0.2c0,0,0-0.1,0-0.1c-1.6-0.9-1.8-0.5-1.7-0.8C38.6,53.3,38,53,38,53c0,0,0-0.1,0-0.1c0-0.1,0-0.1,0-0.1s0,0,0,0
	c0,0,0,0,0,0c0,0,0-0.1,0.1-0.1c0.1-0.1,0.1-0.3,0.1-0.6c-0.1,0-0.1,0-0.1,0c0,0,0,0,0,0c0,0,0,0,0,0c0,0,0,0,0,0c0,0,0,0,0,0
	c0,0,0,0,0,0c0,0,0,0,0,0c0,0,0,0,0,0c0-0.1,0-0.2-0.1-0.2c-0.1-0.4-0.1-0.9-0.3-1.2c0,0-0.1,0-0.1,0.1c-0.1-0.2-0.7-0.8-0.7-0.8
	c-0.4-0.3-0.6-0.3-0.9-0.3c-0.5,0-0.7-0.1-0.8-0.2c0,0-0.6-1.1-1.1-1.4c-0.1-0.1-0.2-0.1-0.3-0.1c0-0.3-0.2-0.5-0.3-0.8
	c-0.1,0-0.1,0-0.4-0.1c0-0.1,0-0.1-0.1-0.2c0,0,0-0.1,0.1-0.1c0.1,0,0.2,0,0.3,0c-0.1-0.1-0.1-0.1-0.9-0.1c0,0,0.1,0.1,0.1,0.1
	c-0.1,0-0.1,0-0.2,0c-0.3,0.4-0.7-0.1-0.7-0.2c-0.9-0.2-0.9-0.2-0.8-0.3c-0.1-0.2-0.1-0.2-0.6-0.4c-0.1,0-0.1,0.1-0.2,0.1
	c-0.2-0.1-0.5,0.2-0.5,0.2c-0.1-0.1-0.1-0.1-0.1-0.5c0.3-0.1,0.3-0.1,0.4-0.2c0-0.1,0-0.2-0.2-0.2c-0.1,0-0.1,0-0.2,0.1
	c0,0-0.3,0.5-0.8,0.4c-0.1,0.1-0.1,0.1-0.1,0.3c0,0-0.1,0-0.1-0.1c0,0,0-0.1,0-0.1l-0.9,1.1c-0.1,0.1-0.1,0.1-0.1,0.4
	c-0.4-1-0.4-1-0.7-1.1c-0.1,0.1-0.1,0.1-0.1,0.3c0.1,0.1,0.1,0.3,0.3,0.4c0,0.1-0.1,0.1-0.1,0.2c0,0.5,0.3,0.9,0.3,0.9
	c0,0.1-0.1,0.1-0.1,0.2c0.1,0.2,0.1,0.2-0.1,0.4c0,0,0.1,0.1,0.1,0.1c-0.1,0.8-0.1,0.8,0,0.9c0,0.1,0,0.1-0.3,0.6c0,0,0,0,0,0
	s0,0,0,0c0,0,0,0,0,0c0,0,0,0,0,0c0,0,0,0,0,0c0,0,0,0,0,0c0,0,0,0,0,0c0,0,0,0,0,0c-0.1,0.1-0.1,0.1-0.1,0.4c0,0-0.1,0-0.1,0.1
	c0,0.2,0,0.2-0.1,0.3v0h0l0.3,0c0,0,0,0-0.3,0.1c-0.1,0.2,0,0.4-0.1,0.6c0,0,0,0-0.1,0c0,0,0,0.1-0.1,0.4c-0.1,0-0.1,0-0.1,0
	c0.1,0.2,0.1,0.3,0.1,0.6h0c0,0,0,0,0,0.1c0.1,0.1,0.2,0.2,0.3,0.4c0.1-0.1,0.1-0.1,0.1-0.2c0,0.1,0,0.2-0.1,0.3
	c-0.1,0.1-0.2,0.2-0.3,0.3c-0.1,0.2-0.1,0.2,0.1,1.1c0,0,0,0-0.1,0c0,0,0,0,0,0.1c0.2,0.1,0.4,0.4,0.5,0.6c0.1,0.2,0.1,0.4,0.3,0.6
	c0.1,0.2,0.2,0.5,0.2,0.5c0,0,0,0.1,0.1,0.1c0,0,0,0,0,0c0,0,0,0,0,0c0,0,0,0,0,0c0,0,0,0,0,0c0,0,0,0,0,0c0,0,0,0,0,0c0,0,0,0,0,0
	l0.4,1.1c0.2,0.1,0.2,0.4,0.4,0.6v0c0.2,0.5,0.6,0.9,0.7,1.4c0.3,0.2,1.6,1.4,1.6,1.4l0.7,1.1c0.2,0.4,0.2,0.9,0.3,1.4v0v0v0v0v0v0
	v0v0c0,0-0.1,0-0.1,0c0,0.1,0,0.1,0,0.2c0.1,0,0.1,0.1,0.1,0.1c0.1,0.2,0.1,0.4,0.2,0.7c0,0.1,0,0.1,0,0.1v0v0v0v0v0v0v0
	c0.1,0.2,0.1,0.4,0.1,0.6c-0.1,0.4,0.5,0.6,0.2,1.1c0.1,0.4,0.4,0.7,0.5,1.1v0v0v0v0v0v0v0v0c0,0.1,0,0.1,0.1,0.5
	c-0.1,0.1,0,0.6,0.1,0.7c0,0-0.1,0-0.1,0c0.2,0.3,1.4,2.1,1.4,2.1c0-0.1-0.1-0.2-0.3-0.4c0,0,0.1,0,0.1,0c0.1,0,0.1,0,0.1,0s0,0,0,0
	c0,0,0,0,0,0c0,0,0,0,0,0c0,0,0,0,0,0c0,0,0,0,0,0c0,0,0,0,0,0c0,0,0,0,0,0c0.1,0.1,0.2,0.2,0.3,0.3c0,0.4,0.5,0.6,0.5,1
	c-0.3-0.4-0.3-0.4-0.5-0.5c0.1,0.2,0.4,0.6,0.4,0.6c0,0,0,0.1-0.1,0.1c0,0,0.1,0.1,0.1,0.1c0,0,0.1,0,0.1,0c0.1,0,0.2,0.1,0.2,0.1
	c0,0.1,0.1,0.1,0.1,0.2c-0.1,0-0.1-0.1-0.2-0.1c0,0,0,0,0,0c0,0,0,0,0,0c0,0,0,0,0,0c0.1,0.3,0.4,0.5,0.6,0.6c0,0-0.1,0-0.1,0
	c0.1,0.1,0.1,0.1,0.2,0.2c0,0,0-0.1,0-0.1c0.1,0,0.1,0.1,0.1,0.1c0,0-0.1,0-0.1,0c0.2,0.2,0.2,0.2,0.3,0.2c0,0,0,0,0,0
	c0.2,0,0.3,0.1,0.4,0.3c0.1,0.1,0.1,0.1,0.2,0.2c-0.1,0-0.1,0-0.3-0.1c0.1,0.1,0.4,0.2,0.7,0.4c0,0,0,0,0,0s0,0,0.1,0.1
	c0.1,0.1,0.2,0.1,0.2,0.1c0,0,0,0-0.1-0.1c0.3,0.1,0.3,0.1,0.3,0.1c0.1,0.1,0.1,0.1,0.4,0.2c0,0-0.1,0-0.1-0.1c0,0,0.1,0,0.1,0
	s0,0,0,0c0.1,0.2,0.4,0.1,0.6,0.2c0,0-0.1-0.1-0.1-0.1c0,0,0,0,0,0c0.1,0,0.1,0,0.2,0c0,0-0.1,0-0.1-0.1c0,0,0.1,0,0.1,0
	c0,0,0,0,0,0c0.1,0,0.2,0,0.3,0c-0.1-0.1-1.1-0.5-1.6-0.7c0.1-0.1,0.3,0,0.3,0c-0.2-0.2-0.4-0.3-0.5-0.5c0,0,0.1-0.1,0.1-0.1
	c0,0,0,0-0.1-0.2c0.1-0.1,0.1-0.1,0.2-0.2c-0.1-0.4-1.1-0.3-0.9-0.8c0,0,0.1,0,0.1,0c0,0,0,0,0.1,0h0h0h0h0h0h0h0
	c0,0-0.1-0.1-0.1-0.1c0,0,0-0.1,0.1-0.1C36,71.6,36,71.6,36,71.5c0,0,0.1,0,0.1,0c0,0,0-0.1,0-0.1c-0.1,0-0.1,0-0.2-0.1
	c0,0,0,0,0.1-0.1c0.1,0,0.2,0.1,0.3,0.1c0,0,0-0.1,0-0.1c-0.1-0.1-0.1-0.1-0.2-0.1c0,0,0,0.1,0,0.1c-0.1,0-0.2,0-0.6-0.5
	c0,0,0-0.1,0-0.1c0.7,0.2,0.7,0.2,0.8,0.2c0,0,0-0.1,0-0.1c-0.1-0.1-0.1-0.4-0.3-0.5c0,0,0-0.1,0-0.1c0,0,0.1,0,0.1,0.1
	c0.4-0.1,0.8,0.1,1.1,0c0.1,0,0.1,0,0.4-0.5c-0.1-0.6-0.9-0.5-1-1.1c0,0,0.1,0,0.1,0c0.2,0.2,0.6,0.2,0.8,0.4c0.2,0,0.8-0.1,0.8-0.1
	c0,0,0-0.1,0-0.1c0,0,0.1-0.1,0.1-0.1c0,0,0.1,0,0.1,0c0-0.1,0-0.1,0.3-0.6c0,0,0.1,0,0.1,0c-0.1,0-0.1,0-0.2,0c0-0.1,0-0.1,0-0.2
	c0,0,0,0,0.2-0.4c0,0,0-0.1-0.1-0.1c0.1,0.1,0.1,0.1,0.3,0c0,0.1,0,0.1,0,0.1c0,0,0,0.1,0.1,0.1c0,0.1-0.1,0.1-0.1,0.1
	c0,0,0,0.1,0,0.1c0.1,0,0.1,0,0.2-0.1c0.2-0.3,0.3-0.7,0.6-1c-0.1-0.8-0.1-0.8-0.2-1c0-0.1,0.1-0.1,0.1-0.2c0,0,0-0.1-0.1-0.1
	c0,0,0.1,0,0.1,0.1c0.7-0.6,0.8-0.7,1.2-0.6c0,0,0-0.1-0.1-0.1c0.1-0.1,0.1-0.1,0.3-0.1c0,0,0-0.1,0-0.1c0,0,0.1-0.1,0.1-0.1
	c0,0,0,0.1,0.1,0.1c0,0,0.1,0,0.1-0.1c0.1,0,0.1,0,0.2,0.1c0.1,0,0.1,0,0.6,0c0-0.1,0-0.1,0-0.2c0.4-0.3,0.4-0.9,0.9-1.2
	c0-0.2,0-0.2,0-0.5c0.3-0.4,0.1-0.8,0.4-1.2c-0.2-1-0.2-1,0.4-1.7c0.4-0.9,1.3-1.3,1.4-2.3C45.4,57.8,45.4,56.6,44.9,56.3z
	 M36.8,74.1C36.8,74.1,36.8,74,36.8,74.1c0.3,0.1,0.3,0.1,0.5,0.2c0,0-0.1,0-0.1,0c0.1,0.1,0.1,0.1,0.4,0.2
	c-0.3-0.1-0.3-0.1-0.6-0.3c0,0,0.1,0.1,0.1,0.1c0,0,0,0-0.4-0.2c0.1,0,0.2,0.1,0.3,0.1C36.9,74.2,36.8,74.2,36.8,74.1z"/>
<path class="st4" d="M21.9,34.6c-0.1,0.1-0.1,0.1,0,0.1C21.9,34.6,21.9,34.6,21.9,34.6z"/>
<path class="st4" d="M21.6,35.5c0-0.1,0-0.1,0-0.1C21.6,35.5,21.6,35.5,21.6,35.5z"/>
<path class="st4" d="M35.7,73.6c-0.1,0-0.1-0.1-0.1-0.1c0,0,0,0,0,0L35.7,73.6C35.7,73.6,35.7,73.6,35.7,73.6L35.7,73.6
	C35.7,73.7,35.7,73.7,35.7,73.6C35.7,73.7,35.7,73.7,35.7,73.6c0.1,0.1,0.1,0.1,0.2,0.1C35.8,73.7,35.8,73.7,35.7,73.6
	C35.7,73.7,35.7,73.7,35.7,73.6z"/>
<path class="st4" d="M78.2,44L78.2,44L78.2,44L78.2,44v-0.1v0v0v0c0-0.1,0-0.1,0-0.1c0,0,0,0,0,0c0,0,0,0,0,0c0,0,0,0,0,0
	c0,0,0,0,0,0c0,0,0,0,0,0c0,0,0,0,0,0c0,0,0,0,0,0c0,0,0,0,0,0c-0.1-0.5-0.1-0.5-0.1-0.9v0c0,0-0.1,0-0.1,0C78,42.9,78,42.9,78,43
	c0,0.1-0.1,0.1-0.2,0.2c0,0,0,0.1-0.1,0.1c0,0,0,0,0,0c0,0.2-0.1,0.4-0.4,0.6c-0.1-0.1-0.1-0.1-0.3-0.4c0,0-0.1,0-0.1,0
	c-0.1-0.6-0.1-0.6-0.1-0.8c0,0,0,0-0.3-0.4c0,0,0,0,0,0C76.1,42,76.1,42,76,42c0-0.1-0.1-0.2-0.1-0.2c0,0,0,0.1,0,0.1
	c-1.2-2-1.2-2-1.2-2.2v0v0v0v0v0v0v0v0c-0.7-1.6-2.3-2.6-2.9-4.2c0.3,0.3,0.5,0.6,0.7,0.9c0,0,0.1-0.1,0.1-0.1
	c-0.1-0.2-0.1-0.5-0.2-0.7c0.1,0.1,0.1,0.1,0.2,0.5c0.5,0,1.9,2.2,2.6,3.5c0.3,0,0.4,0.3,0.4,0.3s1.3,3.1,1.5,3.3
	c0.3-0.2,0.6-1.1,0.6-1.1l0.1,0c0.1,0,0.2-0.7,0.2-0.7c0-0.1,0.1-0.3,0.1-0.4c0-0.2-0.1-0.4-0.1-0.5c0-0.2,0.1-0.3,0.2-0.5
	c0-0.1,0-0.7,0-0.7c0-0.1,0-0.1-0.1-0.3c0-0.1-0.1-0.2,0-0.4c-0.2-0.4-0.2-0.6-0.3-0.9c0,0,0,0.1,0,0.1c0-0.1-0.3-1.1-0.3-1.1
	c-0.1-0.2-0.2-0.3-0.3-0.4c-0.3-0.1-0.3-0.1-0.8-1.2c0,0,0.3,1.1,0.3,1.2c0,0,0,0,0,0c0,0.1,0,0.1,0,0.1c0,0.1-0.2,0.2-0.2,0.2
	c0,0-0.1-0.1-0.1-0.1c0,0,0,0,0,0c-0.1-0.1-0.1-0.1-0.4-0.8c0,0,0,0,0,0c0,0-0.1-0.1-0.1-0.1c0,0.1,0,0.1,0.2,0.7
	c0,0-0.1-0.1-0.4-0.6c-0.1-0.2-0.3-0.4-0.4-0.6c0,0,0,0,0,0c-0.1-0.1-0.3-0.4-0.4-0.5c-0.2-0.2-0.2-0.2-0.2-0.3c0,0,0-0.1,0-0.1
	c0-0.1,0-0.1-0.1-0.1c0,0,0,0,0-0.1c0,0,0,0,0.1,0c0,0,0-0.1,0-0.1c0,0,0.1,0,0.1,0c0,0,0,0,0-0.1c0.3,0.3,0.4,0.7,0.8,0.9
	c0.2-0.1,0.5,0.4,0.5,0.4c0,0,0,0,0,0s0,0,0.1,0c0,0,0,0,0-0.1s0-0.1,0-0.1c0,0,0,0.1,0.1,0.1c0-0.1,0-0.1,0-0.2c0,0,0,0,0,0.1
	c0-0.1,0-0.1-0.1-0.2c0,0,0,0,0.1,0c0.2,0.1,0.3,0.4,0.5,0.6c0,0,0,0,0,0.1c0-0.1,0-0.1,0.1-0.1c0,0,0.1,0.1,0.1,0.1
	c0,0,0-0.1,0.1-0.1c0,0,0-0.1,0-0.1c0,0,0,0,0,0c-1.2-2.9-2.8-2.1-4.8-4.4l-2.6,1.7c0,0,0.1,0,0.1,0c0.3,0.1,0.3,0.1,0.5,0.2
	c0.2-0.1,0.2-0.1,0.3-0.4c0.1,0,0.2,0,0.2,0c0,0,0-0.1,0-0.1c0,0,0.1,0,0.1,0.1c0.1,1,1.5,1.6,0.9,2.8c-0.1,0-0.2,0-0.2,0.1
	c-0.4-0.2-0.6-0.1-0.7,0.3c0,0-0.1,0-0.1,0.1c0,0-0.1,0-0.1-0.1c0,0,0,0,0,0c0,0-0.1,0-0.1,0c-0.1-0.1-0.1-0.1-0.6-0.1
	c0,0,0,0.1-0.1,0.1c-0.1-0.1-0.1-0.1-0.2-0.2c-0.2,0-0.4,0-0.6,0c-0.1-0.1-0.1-0.1-0.1-0.1v0v0v0v0v0v0v0c-0.4,0-0.9,0-0.8,0.6
	c0,0.1,0,0.1,0,0.1s0,0,0,0c0,0,0,0,0,0c0,0,0,0,0,0c0,0,0,0,0,0c0,0,0,0,0,0c0,0,0,0,0,0c0,0,0,0,0,0c0.2,0.2,0.1,0.5,0,0.6
	c-0.1,0-0.1,0-0.5-0.2c-0.1,0-0.1,0-0.1,0c-0.1,0-0.2-0.1-0.2-0.1s-0.1,0-0.1,0c-0.1,0-0.2,0-0.2,0c-0.2-0.1-0.2-0.2-0.3-0.4
	c-0.3,0.1-0.6,0.1-1,0.1L65,35.6l-0.1,0l-2,0.1l0-0.2c-0.8,0.5-1.7,0.7-2.6,0.8c-0.1,0-0.3,0-0.4,0c-1,0-1.8-0.3-2.4-0.7
	c-0.5,0.6-1,1.1-0.4,1.7c0,0.4,0,0.4-0.9,1.3l-0.8,1.8c-0.3,0.6-0.6,1.2-1.1,1.7c0,0.1,0,0.1,0,0.2c0.1,0.1,0.1,0.1,0.2,0.2
	c0.3,0.1,0.5,1.5,0.2,2.1c0,0,0,0,0,0c0,0,0,0,0,0c0,0,0,0,0,0c0,0,0,0,0,0c0,0,0,0,0,0c0,0,0,0,0,0c0,0,0,0,0,0c0,0,0,0,0,0
	c-0.1,0.3-0.3,1.1-0.3,1.1c0.1,0.1,0.2,0.2,0.3,0.6c0,0-0.1,0.1-0.1,0.1c0,0.3,0,0.3,0.3,0.9c0.1,0,0.1,0,0.4-0.1
	c0,0-0.1,0.1-0.1,0.1c0,0.2,0,0.2,0.3,0.6c0.9,0.7,0.9,0.9,1.1,1.7c0.9,0.4,1.5,1.3,2.4,1.6c0.2,0.1,0.2,0.1,1-0.4c0,0,0,0,0.1,0h0
	h0h0h0h0h0h0c0.3-0.3,0.6-0.1,0.9-0.2c0.1,0,0.1,0,0.1,0c0.4,0,0.4,0,0.5,0.1c0.3-0.1,1.1-0.7,1.1-0.7c0.1,0,0.1,0,0.1,0h0h0h0h0h0
	h0h0c0,0,0-0.1,0-0.1c0.4-0.2,0.4-0.3,1-0.3c0,0,0.1-0.1,0.1-0.1c0.1,0.1,0.1,0.1,0.1,0.1h0h0h0h0h0h0h0c0.5,0.2,0.3,0.9,0.8,1
	c0,0,0.7,0,1-0.4c0,0,0,0.1,0,0.1c0,0,0.1,0,0.1,0c0.1,0.3,0.1,0.3,0.2,0.3h0h0h0h0h0h0h0h0c0,0.1,0,0.1-0.1,0.1
	c0.1,0.2,0.1,0.2,0.2,0.3c0,0.1-0.1,0.2-0.1,0.2c0,0.7,0,0.7-0.1,1.1c0,0-0.1,0-0.1,0.1c0,0.1,0.1,0.1,0.1,0.2c0,0-0.1,0-0.1,0
	c0,0-0.1,0.5-0.2,0.6c0.2,0.7,0.6,1.4,0.9,1.5c0,0.1,0.1,0.2,0.5,1.1c0,0,0,0.1-0.1,0.1c0.2,0.4,0.2,0.4,0.2,0.4
	c0,0.8,0.2,1.6,0.1,2.4c-0.2,0.9-1.1,1.4-1.2,2.4c-0.1,1.1-0.2,1.7,0.3,2.7c-0.4,1-0.4,1.6-0.4,2.4c0.2,0.2,0.4,0.8-0.3,2.1
	c0,0,0.1,0,0.1,0c0,0,0,0.1,0,0.1c0,0,0.1,0,0.1,0c0,0,0,0.1,0,0.1c0.6,0,1-0.6,1.6-0.6c0.1,0,0.1,0,0.1,0c0.5,0,1.2-0.7,2.9-2.5
	c0.1-0.1,0.1-0.1,0.8-1.1v0v0v0v0v0v0v0v0c0,0-0.1,0.1-0.1,0.1l1.1-1.4c0.4-0.5,0.2-1.1,0.5-1.6c0.6-1.1,1.8-1.9,2.2-3.3
	c0,0,0,0,0,0c0,0,0.6-1.8,0.3-2.1c0-0.3,0-1,0.1-2c0,0,0,0.1,0.1,0.1c0-0.1,0-0.1,0-0.1c0-0.1,0-0.1,0-0.1c0,0,0,0,0,0
	c0.2-1.2,0.6-2.9,1.4-4.8c0-0.1,0-0.1,0-0.1c0-0.1,0.1-0.2,0.1-0.4v0c0.2-1,0.2-1.5,0.2-1.5v-0.1c0.1-1,0.1-2.4,0.1-2.5
	C78.2,44,78.2,44,78.2,44z M75.9,34.6C75.9,34.6,76,34.6,75.9,34.6C76,34.6,76,34.6,75.9,34.6c0.1,0.1,0.1,0.1,0.1,0.1
	C76,34.7,75.9,34.6,75.9,34.6z"/>
<path class="st4" d="M25.8,46.4C25.8,46.4,25.8,46.4,25.8,46.4L25.8,46.4c-0.1,0-0.1-0.1-0.1-0.1c0-0.1,0-0.1,0-0.1
	c-0.1,0-0.1-0.1-0.1-0.1c0,0,0,0,0.1-0.1c0,0-0.1,0-0.1,0C25.2,45,25.2,45,25.3,44c0,0,0,0.1,0,0.1c0,0,0.5-1.1,0.4-1.5
	c-0.1,0-0.1-0.1-0.2-0.1c0-0.1,0-0.1,0.1-0.1c-0.2-0.2-0.3-0.3-0.3-0.3c0,0-0.1,0-0.1,0c0,0-0.1-0.1-0.1-0.1c-0.1,0-0.1,0-0.1,0.1
	c-0.1,0-0.1,0-0.2,0c-0.1-0.1-0.1-0.1-0.2-0.2c0,0-0.1,0-0.1,0c0,0,0-0.1,0-0.1c0,0-0.1,0-0.1,0c0-0.1-0.1-0.1-0.1-0.2
	c0.1,0,0.1-0.1,0.2-0.1c0.1-0.3,0.3-0.7,0.4-1c0,0,0,0,0,0c0.1-0.1,0.1-0.4,0.3-0.6c0-0.1,0-0.1,0-0.1c0,0,0.1,0,0.1,0
	c0.1-0.3,0.4-0.5,0.4-0.9c-0.1,0-0.2,0.1-0.3-0.1c-0.1,0-0.1,0-0.1,0c-0.1,0-0.1,0-0.1,0c0,0-0.1,0.1-0.1,0.1s-0.1,0-0.1,0s0,0,0,0
	c0,0,0,0,0,0c0,0,0,0,0,0c0,0,0,0,0,0c0,0,0,0,0,0c0,0,0,0,0,0c0,0,0,0,0,0c-0.4,0.2-0.5,0.8-0.9,1.1c0,0,0,0,0,0
	c0,0.1-0.1,0.1-0.1,0.1c0,0-0.1,0-0.1,0c0,0,0-0.1,0-0.1c-0.2-0.1-0.4-0.1-0.6,0.1C23,40,23,40,23,39.9c-0.5-0.4,0-1.9,0-1.9
	c0,0-0.1,0.1-0.1,0.1c0.1-0.6,0.4-1.2,0.6-1.5c0-0.1,0-0.1,0-0.1c0,0,0,0,0-0.1c0,0,0,0,0-0.1c0,0,0,0,0-0.1c0,0,0,0,0-0.1
	c0,0,0,0,0-0.1c0,0,0,0,0-0.1c0,0,0,0,0-0.1c0,0,0.1,0,0.1,0c0.1-0.1,0.1-0.1,0.6-1.2c0,0,0,0.1,0,0.1c0,0,0,0,0,0c0,0,0,0,0,0
	c0,0,0,0,0,0c0,0,0,0,0,0c0,0,0,0,0,0c0,0,0,0,0,0c0,0,0,0,0,0c0,0,0,0,0,0c0,0,0.1,0,0.1,0c0,0,0-0.1,0-0.1c0,0,0.1,0,0.1,0
	c0-0.1,0-0.1,0.1-0.1c0,0,0,0.1,0,0.1c0.2,0,0.3-0.1,0.5-0.2c0-0.2,0-0.2,0.1-0.2c0,0.1,0,0.1-0.1,0.1c0.3-0.1,0.3-0.1,0.6,0.1
	c0,0,0.1,0,0.1-0.1c0,0,0.1,0,0.1,0c0,0,0,0.1,0,0.1c0,0,0,0,0.1,0.1c-0.1,0.1-0.1,0.1,0,0.2c0.1,0,0.1,0,0.2,0c0,0,0-0.1,0.1-0.1
	c0.1,0.2,0.1,0.2,0.1,0.2c0-0.1,0-0.1,0.1-0.1c0-0.1,0-0.1,0.1-0.1c0,0,0.1,0,0.1,0c0,0,0-0.1,0.1-0.1c0,0,0-0.1,0-0.1
	c0,0,0,0-0.1,0.1c0,0,0-0.1,0-0.1c0.2-0.1,0.3-0.1,0.5,0c0.1,0,0.1,0,0.1,0s0,0,0,0c0,0,0,0,0,0c0,0,0,0,0,0c0,0,0,0,0,0
	c0,0,0,0,0,0c0,0,0,0,0,0c0,0,0,0,0,0c0,0.1,0,0.1,0,0.1s0,0.1,0.1,0.1s0.1,0,0.1,0c0,0,0.1-0.1,0.1-0.1c0.1,0.1,0.1,0.1,0.2,0.1
	c0,0.1,0.1,0.3,0.1,0.4c0.1,0.1,0.3,0,0.4,0c0.1,0.1,0.1,0.2,0.1,0.3c0.1-0.4,0.4-0.8,0.8-1.2c0.5-0.4,1-0.7,1.6-0.7l0.5,0
	c0.1,0,0.2-0.1,0.3-0.2c-0.1-0.1-0.1-0.1,0-0.3c0,0,0.2,0.2,0.4-0.2c0,0,0,0,0-0.1c0.1-0.3,0.1-0.3,0.1-0.4c0.1-0.1,0.1-0.1,0.1-0.1
	c0.1-0.3,0.4-0.4,0.6-0.7c0,0,0.6-0.3,0.6-0.7c0.1,0,0.2-0.1,0.5-0.1l0.8-4.6c0.1-0.6,0.4-1.1,0.9-1.6c0,0,0.1-0.1,0.1-0.1
	c-0.1-0.1-0.1-0.1-0.1-0.1c-0.1,0-0.1,0-0.2,0c0-0.2-0.1-0.3-0.1-0.4c0-0.1,0-0.3,0-0.4c0,0-0.1,0-0.1-0.1c0,0,0-0.1,0-0.1
	c0-0.1,0-0.1,0-0.1c-0.1,0-0.2,0-0.4,0c0.2-0.2,0.4-0.4,0.5-0.6C35,22.8,35,22.8,35,22.8c0,0-0.1,0-0.1,0c0.1-0.4,1.4-0.9,1.7-1
	c0.2-0.1,0.2-0.1,0.3-0.1c0.4,0.2,2.1-0.7,2.2-0.8c0,0,0.1,0,0.1,0c0,0,0,0.1-0.1,0.1c0,0,0.1,0,0.1,0c-0.1,0,0.1,0.1,0.2-0.1
	c0,0,0,0.1,0,0.1c0.6,0,0.9-0.6,1.4-0.8c0-0.1,0-0.2,0.1-0.4c0-0.1,0.1-0.3,0.1-0.4c-0.1,0-0.1,0.1-0.2,0.1c0,0-0.1,0.1-0.1,0.1v0.3
	c0,0-0.1,0.2-0.1,0.2h0h0h0h0h0h0h0c-0.1,0-0.1,0.1-0.2,0.1s-0.1,0-0.1,0c-0.3,0.2-0.3,0-0.2-0.2c-0.1,0-0.1,0-0.2,0
	c0,0,0.1-0.1,0.1-0.1c0,0,0,0,0,0c0.1,0,0.1-0.1,0.1-0.2c0.1,0,0.1,0,0,0c0,0,0,0,0,0c0.3-0.4,0.7-0.4,1.1-0.6c0-0.1,0-0.1,0-0.2
	c-0.3,0.1-0.6,0.3-0.8,0.4c-0.1,0-0.1,0-0.1,0s-0.6,0.3-0.6,0.4c0,0,0,0.1,0,0.1c-0.2,0.1-0.2,0.1-0.2,0.1c-0.2,0.1-0.3,0-0.2,0
	c0.1-0.1,0.1-0.1,0.2-0.2c0,0,0-0.1,0-0.1c0,0-0.5,0-0.6,0.3c-0.1,0-0.1,0-0.3,0.1c0,0,0,0,0,0c0,0-0.1,0-0.1,0c0,0,0-0.1-0.1-0.1
	C38.2,20,38.2,20,38.2,20c0,0-0.1,0-0.1,0c0,0-0.1-0.1-0.1-0.1c0,0,0.1-0.1,0.1-0.1c0,0-0.1,0-0.1,0c0,0,0.1-0.1,0.1-0.1
	c0,0,0,0,0.3-0.2c-0.3-0.1-0.6,0-0.6,0c0,0,0,0,0,0c0,0-0.1,0-0.1,0c0,0,0,0,0,0c0,0-0.1,0-0.1,0c0-0.1,0-0.1,0-0.1
	c0.1-0.2,0.4-0.1,0.6-0.3c0,0,0-0.1-0.1-0.1c0.1,0,0.1,0,0.1,0c0,0,0.1,0,0.1-0.1c0,0,0,0,0,0c0.1,0,0.1,0,0.1,0
	c0.1,0,0.1-0.1,0.2-0.1c0,0,0.1-0.1,0.2-0.2c-0.1,0,0-0.1,0.2-0.2c-0.3,0-0.4,0-0.3,0c0,0,0,0-0.1,0s-0.1,0-0.1,0c0,0,0,0,0.1,0
	c-0.1,0-0.1,0-0.1,0c0,0,0,0,0.1,0c0,0,0,0,0,0c0,0,0.1,0,0.1,0c0,0,0,0-0.1,0c-6.2,2.4-11.5,6.8-15,12.3c-0.1,0.3-0.3,0.6-0.6,1.2
	l0,0.1c-0.4,0.8-0.4,0.8-0.4,0.8c0,0.1,0,0.1-0.4,0.8c0-0.1,0-0.1,0-0.1c-0.1,0.2-0.1,0.4-0.2,0.6h0c0,0.1,0,0.3-0.1,0.4
	c-0.1,0.2-0.2,0.4-0.3,0.6c0,0.1,0,0.2-0.1,0.3c0,0,0,0,0.1-0.1c-0.1,0.3-0.1,0.7-0.2,1c0-0.1,0.1-0.1,0.1-0.1c0,0,0.1-0.3,0.1-0.6
	c0,0,1-3.1,1.3-3.6c0,0,0,0,0,0c0.1-0.1,0.1-0.2,0.1-0.2c0,0,0.1,0,0.1,0.1c0,0.1-0.1,0.2-0.1,0.4l0,0c-0.1,0.2-0.5,1-0.5,1
	c0,0.1,0,0.1,0,0.1l-1.1,4.7c0,0-0.1,0-0.1,0c-0.1,0.5-0.2,0.8,0.1,1.6c0.2,0.1,0.5,1.2,0.5,1.3c0.1,0.1,0.2,0.4,0.4,0.6
	c0,0,0,0,0,0c0.1,0,0.1-0.1,0.3-0.1c0.1-0.1,0.1-0.1,0.3,0c0,0,0,0,0,0c0,0,0.1,0.1,0.1,0.1c0,0.4,0.3,0.8,0.3,1.3
	c0.4,0.2,0.4,0.2,0.4,0.4c0,0,0,0,0,0s0,0,0,0c0,0,0,0,0,0c0,0,0,0,0,0c0,0,0,0,0,0c0.1,0.2,0.4,0.2,0.5,0.3c0,0,0,0.1,0,0.1
	c0,0-0.1,0-0.1,0c0,0-0.1,0.1,0,0.1c0.1,0.3,0.3,0.9,0.3,0.9c0.2,0.3-0.1,0.6,0,0.9c0,0.1,0.1,0.1,0.1,0.2c0,0,0.1,0,0.1,0
	c0,0,0-0.1,0-0.1c0,0,0-0.1,0-0.1c0.2,0.3,0.1,0.7,0.4,1.1c0,0,0-0.1,0-0.1c0,0,0.1,0,0.1,0c0,0.1,0,0.2,0,0.3c0,0,0,0,0,0
	c0.3,0.1,0.4,0.2,0.5,0.5c0,0,0-0.1,0.1-0.1c0.1,0.1,0,0.2,0.1,0.3c0,0,0,0,0.3-0.1c0-0.2-0.1-0.4-0.1-0.5c0.1,0,0.1,0,0.3-0.3
	c0.1,0,0.1,0,0.2,0c0-0.1,0-0.2,0-0.3c0,0,0,0-0.1-0.1C26.3,46.1,26.1,46.3,25.8,46.4z"/>
<path class="st5" d="M38.9,84.4c0.6-0.8,0.9-1.2,0.9-1.6c0-0.5-0.4-0.8-0.9-0.8c-0.4,0-0.9,0.2-1.4,0.5v-1.2
	c0.4-0.2,0.8-0.5,1.5-0.5c1.1,0,2.1,0.7,2.1,1.8c0,0.6-0.3,1.3-0.9,2.1l-0.7,0.9v0h1.8v1.1h-4.2v0L38.9,84.4z"/>
<path class="st5" d="M44.3,86c-0.4-0.5-0.5-1.2-0.5-2.2c0-1,0.2-1.7,0.5-2.2c0.4-0.5,1-0.8,1.6-0.8c0.6,0,1.2,0.3,1.6,0.8
	c0.4,0.5,0.5,1.2,0.5,2.2c0,1-0.2,1.7-0.5,2.2c-0.4,0.5-1,0.8-1.6,0.8C45.2,86.8,44.7,86.5,44.3,86z M46.5,85.4
	c0.2-0.3,0.3-0.7,0.3-1.6c0-0.7-0.1-1.2-0.3-1.6c-0.1-0.2-0.3-0.3-0.6-0.3c-0.3,0-0.5,0.1-0.6,0.3c-0.2,0.3-0.3,0.8-0.3,1.6
	c0,0.8,0.1,1.3,0.3,1.6c0.1,0.2,0.3,0.3,0.6,0.3C46.2,85.6,46.4,85.5,46.5,85.4z"/>
<path class="st5" d="M52,84.4c0.6-0.8,0.9-1.2,0.9-1.6c0-0.5-0.4-0.8-0.9-0.8c-0.4,0-0.9,0.2-1.4,0.5v-1.2c0.4-0.2,0.8-0.5,1.5-0.5
	c1.1,0,2.1,0.7,2.1,1.8c0,0.6-0.3,1.3-0.9,2.1l-0.7,0.9v0h1.8v1.1h-4.2v0L52,84.4z"/>
<path class="st5" d="M56.8,85.1c0.5,0.3,1.1,0.6,1.6,0.6c0.6,0,0.9-0.3,0.9-0.7c0-0.4-0.3-0.7-1-0.7h-0.6v-1h0.6
	c0.6,0,0.9-0.3,0.9-0.7c0-0.4-0.4-0.7-0.9-0.7c-0.4,0-0.9,0.1-1.2,0.4v-1.1c0.4-0.2,0.8-0.3,1.3-0.3c1.2,0,2.1,0.7,2.1,1.6
	c0,0.6-0.3,1.1-0.9,1.3v0c0.6,0.2,1,0.8,1,1.4c0,1-0.9,1.7-2.1,1.7c-0.6,0-1.3-0.2-1.7-0.4L56.8,85.1L56.8,85.1z"/>
<path class="st4" d="M38.9,40.6c-1.6,0-2.9-0.6-3.6-1.7c-0.7-1.1-0.9-2.5-0.5-4.3c0.4-1.7,1.2-3.1,2.4-4.1c1.2-1.1,2.6-1.6,4.2-1.6
	c1.4,0,2.5,0.4,3.3,1l0,0c0.8,0.8,1.1,1.8,1,3l-0.1,0.6h-0.1L44,40.4h-1.1c-0.6,0-1-0.2-1.2-0.6c-0.2,0.2-0.5,0.3-0.8,0.4
	C40.2,40.5,39.6,40.6,38.9,40.6z M41.1,32.2c-0.6,0-1.2,0.2-1.7,0.7c-0.5,0.5-0.9,1.2-1.1,2.1c-0.2,0.9-0.2,1.5,0.1,1.9
	c0.1,0.2,0.4,0.5,1.2,0.5c0.5,0,0.9-0.1,1.3-0.4c0.1-0.1,0.2-0.1,0.3-0.2c-0.6,0-0.9-0.3-1.1-0.6c-0.2-0.3-0.4-0.7-0.3-1.3l0.3-1.2
	h3.2c-0.5-0.1-0.9-0.4-1.1-1c0-0.1-0.1-0.2-0.2-0.3C41.8,32.3,41.5,32.2,41.1,32.2z"/>
<path class="st6" d="M41.4,29.7c1.2,0,2.1,0.3,2.8,0.9c0.6,0.6,0.9,1.4,0.8,2.4h-1.4c-0.4,0-0.6-0.2-0.8-0.5
	c-0.1-0.2-0.2-0.4-0.4-0.6c-0.3-0.3-0.8-0.4-1.4-0.4c-0.8,0-1.5,0.3-2.1,0.9c-0.6,0.6-1.1,1.4-1.3,2.5c-0.3,1.1-0.2,1.9,0.1,2.5
	c0.3,0.6,0.9,0.9,1.8,0.9c0.6,0,1.2-0.2,1.7-0.5c0.5-0.4,0.9-0.9,1.2-1.5h-1.2c-0.3,0-0.5-0.1-0.6-0.3c-0.1-0.2-0.2-0.4-0.1-0.7
	l0.1-0.6h4.1l-1.3,5.2H43c-0.5,0-0.8-0.3-0.8-0.8v-0.4c-0.5,0.5-1,0.9-1.5,1.1c-0.6,0.2-1.1,0.3-1.7,0.3c-1.4,0-2.4-0.5-3-1.4
	c-0.6-0.9-0.7-2.1-0.4-3.7c0.4-1.6,1.1-2.8,2.1-3.7C38.7,30.2,40,29.7,41.4,29.7C41.4,29.7,41.4,29.7,41.4,29.7z M41.4,28.3
	c-1.8,0-3.4,0.6-4.7,1.8c-1.3,1.1-2.1,2.6-2.6,4.4c-0.5,2-0.3,3.6,0.6,4.8c0.6,0.9,1.8,2,4.2,2c0.8,0,1.5-0.1,2.2-0.4h0h0
	c0.1-0.1,0.3-0.1,0.4-0.2c0.4,0.2,0.8,0.4,1.3,0.4h0.6h1.1l0.3-1.1l1.3-5.2l0.1-0.3h0.1l0.1-1l0.1-0.5h-0.1c0.1-1.4-0.4-2.5-1.3-3.4
	l0,0l0,0C44.2,28.7,43,28.3,41.4,28.3z M40.6,33c0.1,0,0.3-0.1,0.5-0.1c0.3,0,0.4,0,0.5,0.1H40.6L40.6,33z M39.5,36.7
	c-0.2,0-0.4,0-0.5-0.1c-0.1-0.3-0.1-0.8,0-1.4c0,0,0-0.1,0-0.1C39,35.6,39.1,36.2,39.5,36.7C39.5,36.7,39.5,36.7,39.5,36.7z"/>
<path class="st4" d="M46,29.3h1.6c0.6,0,1,0.3,1.2,0.5c0.2,0.3,0.4,0.7,0.3,1.3l-2.2,9.3h-3.5L46,29.3z"/>
<path class="st6" d="M47.6,30c0.3,0,0.5,0.1,0.6,0.3c0.1,0.2,0.2,0.4,0.1,0.6l-2.1,8.7h-2l2.3-9.6L47.6,30z M47.6,28.6h-1h-1.1
	l-0.3,1.1l-2.3,9.6l-0.4,1.8h1.8h2h1.1l0.3-1.1l2.1-8.7c0.2-0.7,0-1.4-0.4-1.9C48.9,28.9,48.3,28.6,47.6,28.6z"/>
<path class="st4" d="M50.1,40.5c-0.4,0-0.7,0-1-0.1c-0.8-0.2-1.3-0.5-1.7-0.9c-0.4-0.4-0.7-1.1-0.7-1.8c0-0.6,0-1.3,0.2-2
	c0.1-0.6,0.4-1.1,0.6-1.7c0.3-0.6,0.7-1.1,1.1-1.5c0.7-0.6,1.6-1.1,2.5-1.2c0.3,0,0.6-0.1,0.8-0.1c0.6,0,1.1,0.1,1.6,0.3
	c0.9,0.4,1.5,1,1.7,1.9c0.2,0.7,0.2,1.6,0,2.5c-0.1,0.6-0.4,1.2-0.6,1.7c-0.3,0.5-0.6,0.9-0.9,1.2c-0.7,0.7-1.5,1.2-2.4,1.4
	C50.9,40.4,50.5,40.5,50.1,40.5z M50.2,37.4c0,0,0.1,0,0.1,0.1c0.1,0,0.1,0,0.2,0c0.1,0,0.1,0,0.2,0c0.2-0.1,0.4-0.2,0.6-0.4
	c0.1-0.2,0.4-0.5,0.6-1.3c0.2-0.7,0.1-1,0.1-1.1c0-0.1-0.1-0.2-0.2-0.2c-0.1,0-0.1,0-0.2,0c-0.1,0-0.1,0-0.2,0
	c-0.3,0.1-0.4,0.1-0.4,0.2c-0.4,0.3-0.6,0.8-0.7,1.5C50,37.1,50.2,37.4,50.2,37.4z"/>
<path class="st6" d="M52,32c0.5,0,0.9,0.1,1.4,0.2c0.6,0.3,1.1,0.8,1.3,1.4c0.2,0.6,0.2,1.3,0,2.1c-0.1,0.6-0.3,1.1-0.6,1.5
	c-0.2,0.4-0.5,0.8-0.8,1.1c-0.6,0.6-1.3,1-2,1.1c-0.4,0.1-0.7,0.1-1.1,0.1c-0.3,0-0.6,0-0.9-0.1c-0.6-0.1-1.1-0.4-1.4-0.7
	c-0.3-0.3-0.5-0.8-0.5-1.4c0-0.6,0-1.2,0.2-1.8c0.1-0.5,0.3-1,0.6-1.5c0.3-0.5,0.6-0.9,1-1.3c0.6-0.6,1.4-0.9,2.1-1
	C51.5,32,51.8,32,52,32z M50.5,38.2c0.1,0,0.3,0,0.4-0.1c0.3-0.1,0.6-0.3,0.9-0.6c0.3-0.3,0.6-0.9,0.8-1.6c0.2-0.7,0.2-1.2,0-1.5
	c-0.1-0.3-0.4-0.6-0.6-0.6c-0.1-0.1-0.3-0.1-0.4-0.1c-0.1,0-0.3,0-0.4,0.1c-0.3,0.1-0.5,0.2-0.7,0.3c-0.5,0.4-0.9,1.1-1,1.9
	c-0.2,0.9-0.1,1.4,0.1,1.8c0.1,0.1,0.2,0.3,0.5,0.4C50.2,38.2,50.4,38.2,50.5,38.2z M52,30.6c-0.3,0-0.6,0-0.9,0.1
	C50,30.8,49,31.2,48.2,32c-0.5,0.4-0.9,1-1.3,1.7c-0.3,0.6-0.6,1.2-0.7,1.9C46,36.3,45.9,37,46,37.7c0.1,0.9,0.4,1.7,0.9,2.2
	c0.5,0.6,1.2,0.9,2.1,1.1c0.4,0.1,0.8,0.1,1.1,0.1c0.4,0,0.9-0.1,1.4-0.2c1-0.2,1.9-0.7,2.7-1.6c0.4-0.4,0.7-0.9,1-1.4
	s0.5-1.2,0.7-1.9c0.3-1.1,0.3-2,0-2.9c-0.3-1.1-1-1.9-2.1-2.4h0h0C53.3,30.7,52.7,30.6,52,30.6z M50.9,36.5c0-0.1,0-0.1,0-0.2
	c0.1-0.4,0.2-0.7,0.4-0.9c0,0.1,0,0.1-0.1,0.2C51.1,36.1,50.9,36.3,50.9,36.5z"/>
<path class="st4" d="M57.9,40.5c-1.1,0-2-0.3-2.8-0.8c-0.9-0.6-1.2-1.8-0.8-3.4l1.7-7h1.5c0.5,0,0.9,0.2,1.2,0.6
	c0.2,0.3,0.4,0.7,0.3,1.3l-0.1,0.4c0.4-0.1,0.9-0.2,1.3-0.2c1.2,0,2.1,0.5,2.6,1.5c0.5,0.9,0.6,2,0.2,3.4c-0.3,1.3-0.9,2.4-1.7,3.2
	c-0.5,0.4-1,0.8-1.6,0.9C59,40.4,58.4,40.5,57.9,40.5z M59.3,34.4c-0.4,0-0.6,0.1-0.9,0.4c-0.3,0.3-0.5,0.7-0.6,1.3
	c-0.2,0.9-0.1,1.2-0.1,1.2c0.1,0.1,0.1,0.2,0.4,0.2c0.4,0,0.6-0.1,0.9-0.4c0.3-0.3,0.5-0.8,0.6-1.4c0.1-0.6,0.1-0.9,0-1.1
	C59.6,34.5,59.6,34.4,59.3,34.4z"/>
<path class="st6" d="M57.5,30c0.3,0,0.5,0.1,0.6,0.3c0.1,0.2,0.2,0.4,0.1,0.7l-0.5,2.2c0.3-0.4,0.7-0.6,1.1-0.9
	c0.4-0.2,0.8-0.3,1.3-0.3c0.9,0,1.5,0.4,1.9,1.1c0.4,0.7,0.4,1.7,0.2,2.8C62,37,61.5,38,60.8,38.7c-0.4,0.4-0.8,0.6-1.4,0.8
	c-0.5,0.1-1,0.2-1.5,0.2c-0.9,0-1.7-0.2-2.4-0.7c-0.7-0.5-0.9-1.4-0.5-2.7l1.6-6.4L57.5,30z M58.1,38.2c0.5,0,1-0.2,1.4-0.6
	c0.4-0.4,0.6-1,0.9-1.7c0.2-0.7,0.1-1.2-0.1-1.6c-0.2-0.4-0.5-0.6-1-0.6c-0.5,0-1,0.2-1.4,0.6c-0.4,0.4-0.6,0.9-0.8,1.6
	c-0.2,0.8-0.2,1.4,0,1.7C57.3,37.9,57.6,38.2,58.1,38.2z M57.5,28.5h-1h-1.1l-0.3,1.1L53.6,36c-0.6,2.4,0.3,3.6,1.1,4.2
	c0.9,0.6,2,0.9,3.2,0.9c0.6,0,1.3-0.1,1.9-0.3c0.7-0.2,1.4-0.6,1.9-1.1c0.9-0.9,1.6-2.1,1.9-3.5c0.4-1.5,0.3-2.8-0.3-3.9
	c-0.6-1.2-1.8-1.9-3.2-1.9c-0.1,0-0.3,0-0.4,0c0-0.4-0.2-0.9-0.4-1.2C58.9,28.8,58.2,28.5,57.5,28.5z M58.9,35.3
	C58.9,35.2,59,35.2,58.9,35.3c0.1,0,0.1,0.1,0,0.3c-0.1,0.6-0.4,0.9-0.5,1.1c0,0-0.1,0.1-0.1,0.1c0-0.1,0-0.3,0.1-0.4
	C58.6,35.8,58.7,35.5,58.9,35.3z"/>
<path class="st4" d="M64.3,40.5c-0.9,0-1.6-0.2-2.1-0.7c-0.4-0.4-0.9-1.1-0.6-2.5c0.2-1,0.7-1.7,1.4-2.1c0.2-0.1,0.4-0.2,0.6-0.3
	h-1.4l0.4-1c0.3-0.7,0.7-1.3,1.4-1.8c0.7-0.5,1.7-0.8,2.8-0.8c1.3,0,2.1,0.2,2.7,0.7c0.5,0.4,1,1.1,0.7,2.3l-0.6,2.6
	c-0.2,0.9-0.6,1.6-1,2.1c-0.4,0.5-0.9,0.9-1.4,1.1c-0.5,0.2-1,0.4-1.6,0.4C65.1,40.5,64.7,40.5,64.3,40.5z M64.9,37.5
	C64.9,37.5,65,37.5,64.9,37.5c0.5,0,0.8-0.1,1-0.3c0.1-0.1,0.2-0.2,0.3-0.3l-0.6,0.1c-0.3,0.1-0.4,0.1-0.5,0.2
	C65,37.4,64.9,37.4,64.9,37.5z"/>
<path class="st6" d="M66.9,32c1.1,0,1.8,0.2,2.3,0.5c0.5,0.4,0.6,0.9,0.4,1.6L69,36.7c-0.2,0.7-0.5,1.3-0.8,1.8
	c-0.4,0.4-0.8,0.7-1.2,0.9c-0.4,0.2-0.9,0.3-1.4,0.4c-0.5,0.1-0.9,0.1-1.2,0.1c-0.7,0-1.2-0.2-1.7-0.5c-0.4-0.4-0.5-1-0.3-1.8
	c0.2-0.8,0.6-1.4,1.1-1.7s1.2-0.6,1.9-0.7c0.1,0,0.2,0,0.4,0c0.1,0,0.3-0.1,0.5-0.1c0.9-0.1,1.4-0.4,1.4-0.7c0.1-0.3,0-0.5-0.3-0.6
	c-0.3-0.1-0.5-0.1-0.8-0.1c-0.3,0-0.5,0-0.7,0.1c-0.2,0.1-0.4,0.2-0.6,0.4h-1.9c0.2-0.6,0.6-1.1,1.1-1.4C65.1,32.2,65.9,32,66.9,32
	C66.8,32,66.8,32,66.9,32z M67.3,35.9c-0.3,0.1-0.7,0.3-1.2,0.4l-0.7,0.1c-0.4,0.1-0.6,0.2-0.8,0.4c-0.2,0.2-0.3,0.4-0.4,0.6
	c-0.1,0.3,0,0.5,0.1,0.7c0.1,0.1,0.4,0.2,0.7,0.2c0.5,0,1-0.1,1.4-0.4c0.4-0.3,0.6-0.7,0.8-1.2L67.3,35.9z M66.9,30.6
	c-1.3,0-2.3,0.3-3.2,0.9c-0.8,0.5-1.4,1.3-1.7,2.1l-0.7,1.9h0.4c-0.3,0.4-0.5,1-0.7,1.6c-0.4,1.8,0.2,2.7,0.8,3.2
	c0.7,0.6,1.6,0.9,2.6,0.9c0.4,0,0.9,0,1.4-0.1c0.6-0.1,1.2-0.2,1.8-0.5c0.6-0.3,1.2-0.7,1.7-1.3c0.5-0.6,0.9-1.4,1.2-2.4l0.6-2.6
	c0.3-1.2,0-2.3-0.9-3C69.3,30.8,68.3,30.6,66.9,30.6z"/>
<path class="st4" d="M70.6,29.3h1.6c0.6,0,1,0.3,1.2,0.5c0.3,0.4,0.4,0.8,0.3,1.3l-2.2,9.3h-3.5L70.6,29.3z"/>
<path class="st6" d="M72.2,30c0.3,0,0.5,0.1,0.6,0.3c0.1,0.2,0.2,0.4,0.1,0.6l-2.1,8.7h-2l2.3-9.6L72.2,30z M72.2,28.5h-1h-1.1
	l-0.3,1.1l-2.3,9.6L67,41.1h1.8h2H72l0.3-1.1l2.1-8.7c0.2-0.7,0-1.4-0.4-1.9C73.5,28.8,72.9,28.5,72.2,28.5z"/>
<path class="st4" d="M27.3,39.7c0.1-0.4,0.4-0.8,0.7-1.1c0.4-0.3,0.8-0.4,1.2-0.4H33c1.3,0,2.2,0.3,2.7,0.9c0.6,0.6,0.7,1.6,0.5,2.7
	c-0.2,0.7-0.5,1.3-0.9,1.8c-0.1,0.2-0.3,0.3-0.5,0.5c0.1,0.1,0.1,0.2,0.1,0.3c0.1,0.4,0.1,1,0,1.8l-0.2,1.2l-0.1,0.4
	c0,0.1,0,0.2,0,0.2c0,0,0,0.1,0,0.1l2,1.2h-5.3l-0.1-0.5c-0.1-0.3-0.1-0.6-0.1-0.9c0.1-0.4,0.1-0.6,0.1-0.7l0.2-1
	c0.1-0.3,0.1-0.5,0-0.6c-0.1,0-0.2,0-0.4,0h-1.6l-0.9,3.8h-3.5L27.3,39.7z"/>
<path class="st6" d="M33.1,38.9c1.1,0,1.8,0.2,2.2,0.7c0.4,0.5,0.5,1.1,0.3,2.1c-0.1,0.6-0.4,1.1-0.8,1.5c-0.3,0.4-0.7,0.6-1.3,0.8
	c0.4,0.1,0.6,0.4,0.8,0.7c0.1,0.3,0.1,0.8,0,1.4L34,47.2c0,0.1-0.1,0.2-0.1,0.4c0,0.1-0.1,0.3-0.1,0.4c0,0.3,0,0.6,0.2,0.6h-2.2
	c-0.1-0.2-0.1-0.4,0-0.6c0-0.3,0.1-0.5,0.1-0.6l0.2-1c0.1-0.6,0.1-1-0.1-1.2c-0.1-0.2-0.5-0.3-1-0.3h-2.1L28,48.6h-2l2.1-8.6
	c0.1-0.3,0.2-0.5,0.5-0.7c0.2-0.2,0.5-0.3,0.8-0.3L33.1,38.9z M29.3,43.1h2.4c0.5,0,0.9-0.1,1.2-0.3c0.3-0.2,0.5-0.5,0.6-0.9
	c0.1-0.4,0.1-0.7-0.1-0.9c-0.2-0.2-0.5-0.3-0.9-0.3h-2.5L29.3,43.1z M33.1,37.4h-3.8c-0.6,0-1.2,0.2-1.7,0.6c-0.5,0.4-0.8,0.9-1,1.5
	l-2.1,8.6L24.1,50h1.8h2h1.1l0.3-1.1l0.6-2.6h0.6l-0.2,0.8c0,0.2-0.1,0.4-0.1,0.7c-0.1,0.4,0,0.8,0.1,1.1l0.3,1.1h1.1H34h5l-3.7-2.3
	v0l0-0.1v0v0l0.2-1.1c0.1-0.9,0.2-1.5,0-2c0.1-0.1,0.1-0.1,0.2-0.2c0.5-0.6,0.9-1.3,1.1-2.1c0.4-1.7-0.1-2.8-0.6-3.4
	C35.6,37.8,34.6,37.4,33.1,37.4z"/>
<path class="st4" d="M37.1,49.4c-0.9,0-1.6-0.2-2.1-0.7c-0.4-0.4-0.9-1.1-0.6-2.5c0.2-1,0.7-1.7,1.4-2.1c0.2-0.1,0.4-0.2,0.6-0.3
	h-1.4l0.4-1c0.3-0.7,0.7-1.3,1.4-1.8c0.7-0.5,1.7-0.8,2.8-0.8c1.3,0,2.1,0.2,2.7,0.7c0.5,0.4,1,1.1,0.7,2.3l-0.6,2.6
	c-0.2,0.9-0.5,1.6-1,2.1c-0.4,0.5-0.9,0.9-1.4,1.1c-0.5,0.2-1,0.4-1.6,0.4C37.9,49.4,37.5,49.4,37.1,49.4z M37.7,46.4
	C37.7,46.4,37.7,46.4,37.7,46.4c0.5,0,0.8-0.1,1-0.3c0.1-0.1,0.2-0.2,0.3-0.3l-0.6,0.1c-0.3,0.1-0.4,0.1-0.5,0.2
	C37.7,46.3,37.7,46.4,37.7,46.4z"/>
<path class="st6" d="M39.6,40.9c1.1,0,1.8,0.2,2.3,0.5c0.5,0.4,0.6,0.9,0.4,1.6l-0.6,2.6c-0.2,0.7-0.5,1.3-0.8,1.8
	c-0.4,0.4-0.8,0.7-1.2,0.9c-0.4,0.2-0.9,0.3-1.4,0.4c-0.5,0.1-0.9,0.1-1.2,0.1c-0.7,0-1.2-0.2-1.7-0.5c-0.4-0.4-0.5-1-0.3-1.8
	c0.2-0.8,0.6-1.4,1.1-1.7c0.6-0.3,1.2-0.6,1.9-0.7c0.1,0,0.2,0,0.4,0c0.1,0,0.3-0.1,0.5-0.1c0.9-0.1,1.4-0.4,1.4-0.7
	c0.1-0.3,0-0.5-0.3-0.6c-0.3-0.1-0.5-0.1-0.8-0.1s-0.5,0-0.7,0.1c-0.2,0.1-0.4,0.2-0.6,0.4h-1.9c0.2-0.6,0.6-1.1,1.1-1.4
	C37.9,41.1,38.6,40.9,39.6,40.9z M40,44.8c-0.3,0.1-0.7,0.3-1.2,0.4l-0.7,0.1c-0.4,0.1-0.6,0.2-0.8,0.4C37.1,45.8,37,46,37,46.2
	c-0.1,0.3,0,0.5,0.1,0.7c0.1,0.1,0.4,0.2,0.7,0.2c0.5,0,1-0.1,1.4-0.4c0.4-0.3,0.6-0.7,0.8-1.2L40,44.8z M39.6,39.4
	c-1.3,0-2.3,0.3-3.2,0.9c-0.8,0.5-1.4,1.2-1.7,2.1L34,44.4h0.4c-0.3,0.4-0.5,1-0.7,1.6c-0.4,1.8,0.2,2.7,0.8,3.2
	c0.7,0.6,1.6,0.9,2.6,0.9c0.4,0,0.9,0,1.4-0.1c0.6-0.1,1.2-0.2,1.8-0.5c0.6-0.3,1.2-0.7,1.7-1.3c0.5-0.6,0.9-1.4,1.2-2.4l0.6-2.6
	c0.3-1.2,0-2.3-0.9-3C42,39.7,41,39.4,39.6,39.4z"/>
<path class="st4" d="M44.8,49.4c-1.4,0-2.3-0.5-2.9-1.4c-0.6-0.8-0.7-2-0.3-3.4c0.3-1.3,0.9-2.4,1.8-3.2c0.9-0.8,2-1.2,3.3-1.2
	c1.4,0,2.4,0.4,3,1.3l0,0c0.3,0.5,0.5,1.1,0.5,1.8l0,0.7h-3.3l-0.1-0.5c0-0.1-0.1-0.2-0.1-0.2c-0.1-0.1-0.2-0.1-0.4-0.1
	c-0.3,0-0.5,0.1-0.7,0.2c-0.3,0.3-0.5,0.7-0.7,1.5c-0.2,0.9-0.1,1.2,0,1.2l0,0l0,0c0,0.1,0.2,0.1,0.4,0.1c0.2,0,0.4,0,0.6-0.1l0.1,0
	h0l0.1-0.1c0.1-0.1,0.2-0.2,0.4-0.3c0.3-0.2,0.6-0.3,0.9-0.3H50l-0.5,1.1c-0.5,0.9-1.1,1.6-1.9,2.1C46.7,49.1,45.8,49.4,44.8,49.4z"
	/>
<path class="st6" d="M46.6,40.9c1.1,0,1.9,0.3,2.4,1c0.2,0.4,0.4,0.9,0.4,1.4h-2c-0.1-0.2-0.1-0.3-0.2-0.4c-0.2-0.3-0.5-0.4-1-0.4
	c-0.4,0-0.8,0.1-1.1,0.4c-0.4,0.4-0.8,1-1,1.9c-0.2,0.9-0.2,1.5,0.1,1.8c0.2,0.3,0.5,0.4,1,0.4c0.3,0,0.6-0.1,0.9-0.2
	c0.1,0,0.1-0.1,0.2-0.1c0.1-0.1,0.1-0.1,0.2-0.1c0.1-0.1,0.1-0.1,0.3-0.2c0.1-0.1,0.3-0.1,0.6-0.1h1.4c-0.4,0.8-0.9,1.4-1.6,1.8
	c-0.7,0.4-1.5,0.6-2.4,0.6c-1.1,0-1.9-0.4-2.3-1c-0.4-0.7-0.5-1.6-0.2-2.9c0.3-1.2,0.8-2.1,1.6-2.8C44.6,41.2,45.5,40.9,46.6,40.9z
	 M46.6,39.4c-1.5,0-2.7,0.5-3.8,1.4c-1,0.9-1.6,2.1-2,3.5c-0.4,1.6-0.3,3,0.4,4c0.5,0.8,1.5,1.7,3.5,1.7c1.2,0,2.2-0.3,3.1-0.9
	c0.9-0.6,1.6-1.4,2.2-2.4l1.1-2.1h-2.4h-1.4c-0.5,0-1,0.1-1.4,0.4c-0.2,0.1-0.3,0.2-0.4,0.3l0,0h0c0-0.1,0-0.3,0.1-0.4
	c0.2-0.7,0.4-1,0.5-1.1l0,0l0.2,0.8h1.1h2h1.5l-0.1-1.5c0-0.8-0.2-1.5-0.6-2.1l0,0l0,0C49.7,40.3,48.7,39.4,46.6,39.4z"/>
<path class="st4" d="M52,49.4c-1.4,0-2.3-0.5-2.9-1.4c-0.6-0.8-0.7-2-0.3-3.4c0.3-1.3,0.9-2.4,1.8-3.2c0.9-0.8,2-1.2,3.3-1.2
	c1.4,0,2.4,0.4,3,1.3c0.6,0.9,0.7,2,0.3,3.5l-0.1,0.3c0,0.1-0.1,0.2-0.1,0.2h0.2l-0.5,1.1c-0.5,0.9-1.1,1.6-1.9,2.1
	C54,49.1,53.1,49.4,52,49.4z M52.1,46c0,0.1,0,0.1,0.1,0.1l0,0l0,0c0,0.1,0.2,0.1,0.4,0.1s0.4,0,0.6-0.1l0.1,0h0l0.1-0.1
	c0,0,0,0,0.1-0.1H52.1z"/>
<path class="st6" d="M53.9,40.9c1.1,0,1.9,0.3,2.4,1c0.4,0.7,0.5,1.6,0.2,2.9c0,0.1,0,0.1-0.1,0.2c0,0.1,0,0.1,0,0.1
	c0,0.1-0.1,0.1-0.1,0.2h-4.9c-0.1,0.6-0.1,1,0.1,1.3c0.2,0.3,0.5,0.4,1,0.4c0.3,0,0.6-0.1,0.9-0.2c0.1,0,0.1-0.1,0.2-0.1
	c0.1-0.1,0.1-0.1,0.2-0.1c0-0.1,0.1-0.1,0.3-0.2c0.1-0.1,0.3-0.1,0.6-0.1h1.4c-0.4,0.8-0.9,1.4-1.6,1.8c-0.7,0.4-1.5,0.6-2.4,0.6
	c-1.1,0-1.9-0.4-2.3-1c-0.4-0.7-0.5-1.6-0.2-2.9c0.3-1.2,0.8-2.1,1.6-2.8C51.9,41.2,52.8,40.9,53.9,40.9z M51.7,44h2.9
	c0.1-0.5,0-0.9-0.1-1.1c-0.2-0.3-0.5-0.4-1-0.4c-0.4,0-0.8,0.1-1.1,0.4C52.1,43.2,51.9,43.5,51.7,44z M53.9,39.4
	c-1.5,0-2.7,0.5-3.8,1.4c-1,0.9-1.6,2.1-2,3.5c-0.4,1.6-0.3,3,0.4,4c0.5,0.8,1.5,1.7,3.5,1.7c1.2,0,2.2-0.3,3.1-0.9
	c0.9-0.6,1.6-1.4,2.2-2.4l1.1-2.1H58c0.3-1.5,0.1-2.7-0.5-3.6v0l0,0C57,40.3,55.9,39.4,53.9,39.4z"/>
<path class="st4" d="M42.1,38.5c-0.5,0.5-1,0.9-1.5,1.1c-0.6,0.2-1.1,0.3-1.7,0.3c-1.4,0-2.4-0.4-3-1.4c-0.6-0.9-0.7-2.1-0.4-3.7
	c0.4-1.6,1.1-2.8,2.1-3.7c1.1-0.9,2.3-1.4,3.7-1.4c1.2,0,2.1,0.3,2.8,0.9c0.6,0.6,0.9,1.4,0.8,2.4h-1.4c-0.4,0-0.6-0.2-0.8-0.5
	c-0.1-0.2-0.2-0.4-0.4-0.6c-0.3-0.3-0.8-0.4-1.4-0.4c-0.8,0-1.5,0.3-2.1,0.9c-0.6,0.6-1.1,1.4-1.3,2.5c-0.3,1.1-0.2,1.9,0.1,2.5
	c0.3,0.6,0.9,0.9,1.8,0.9c0.6,0,1.2-0.2,1.7-0.5c0.5-0.4,0.9-0.9,1.2-1.5h-1.2c-0.3,0-0.5-0.1-0.6-0.3c-0.1-0.2-0.2-0.4-0.1-0.7
	l0.1-0.6h4.1l-1.3,5.2H43c-0.5,0-0.8-0.3-0.8-0.8V38.5z"/>
<path class="st4" d="M46.6,30h1c0.3,0,0.5,0.1,0.6,0.3c0.1,0.2,0.2,0.4,0.1,0.6l-2.1,8.7h-2L46.6,30z"/>
<path class="st4" d="M47.9,39c-0.3-0.3-0.5-0.8-0.5-1.4c0-0.6,0-1.2,0.2-1.8c0.1-0.5,0.3-1,0.6-1.5s0.6-0.9,1-1.3
	c0.6-0.6,1.4-0.9,2.1-1c0.8-0.1,1.5-0.1,2.1,0.2c0.6,0.3,1.1,0.8,1.3,1.4c0.2,0.6,0.2,1.3,0,2.1c-0.1,0.6-0.3,1.1-0.6,1.5
	c-0.2,0.4-0.5,0.8-0.8,1.1c-0.6,0.6-1.3,1-2,1.1c-0.7,0.2-1.3,0.2-1.9,0.1C48.7,39.6,48.2,39.3,47.9,39z M50.5,34
	c-0.5,0.4-0.9,1.1-1,1.9c-0.2,0.9-0.1,1.4,0.1,1.8c0.1,0.1,0.2,0.3,0.5,0.4c0.3,0.1,0.6,0.1,0.9,0c0.3-0.1,0.6-0.3,0.9-0.6
	c0.3-0.3,0.6-0.9,0.8-1.6c0.2-0.7,0.2-1.2,0-1.5c-0.1-0.3-0.4-0.6-0.6-0.6c-0.3-0.1-0.6-0.1-0.9,0C50.9,33.8,50.7,33.9,50.5,34z"/>
<path class="st4" d="M58.3,30.9l-0.5,2.2c0.3-0.4,0.7-0.6,1.1-0.9c0.4-0.2,0.8-0.3,1.3-0.3c0.9,0,1.5,0.4,1.9,1.1
	c0.4,0.7,0.4,1.7,0.2,2.8C62,37,61.5,38,60.8,38.7c-0.4,0.4-0.8,0.6-1.4,0.8c-0.5,0.1-1,0.2-1.5,0.2c-0.9,0-1.7-0.2-2.4-0.7
	c-0.7-0.5-0.9-1.4-0.5-2.7l1.6-6.4h1c0.3,0,0.5,0.1,0.6,0.3C58.3,30.5,58.3,30.7,58.3,30.9z M60.3,35.9c0.2-0.7,0.1-1.2-0.1-1.6
	c-0.2-0.4-0.5-0.6-1-0.6c-0.5,0-1,0.2-1.4,0.6c-0.4,0.4-0.6,0.9-0.8,1.6c-0.2,0.8-0.2,1.4,0,1.7c0.2,0.4,0.6,0.6,1.1,0.6
	c0.5,0,1-0.2,1.4-0.6S60.1,36.6,60.3,35.9z"/>
<path class="st4" d="M66.9,39.3c-0.4,0.2-0.9,0.3-1.4,0.4c-0.5,0.1-0.9,0.1-1.2,0.1c-0.7,0-1.2-0.2-1.7-0.5c-0.4-0.4-0.5-1-0.3-1.8
	c0.2-0.8,0.6-1.4,1.1-1.7c0.6-0.3,1.2-0.6,1.9-0.7c0.1,0,0.2,0,0.4,0c0.1,0,0.3-0.1,0.5-0.1c0.9-0.1,1.4-0.4,1.4-0.7
	c0.1-0.3,0-0.5-0.3-0.6c-0.3-0.1-0.5-0.1-0.8-0.1c-0.3,0-0.5,0-0.7,0.1c-0.2,0.1-0.4,0.2-0.6,0.4h-1.9c0.2-0.6,0.6-1.1,1.1-1.4
	c0.6-0.4,1.4-0.6,2.4-0.6c1.1,0,1.8,0.2,2.3,0.5c0.5,0.4,0.6,0.9,0.4,1.6l-0.6,2.6c-0.2,0.7-0.5,1.3-0.8,1.8
	C67.8,38.8,67.3,39.1,66.9,39.3z M67.3,35.9c-0.3,0.1-0.7,0.3-1.2,0.4l-0.7,0.1c-0.4,0.1-0.6,0.2-0.8,0.4c-0.2,0.2-0.3,0.4-0.4,0.6
	c-0.1,0.3,0,0.5,0.1,0.7c0.1,0.1,0.4,0.2,0.7,0.2c0.5,0,1-0.1,1.4-0.4c0.4-0.3,0.6-0.7,0.8-1.2L67.3,35.9z"/>
<path class="st4" d="M71.2,30h1c0.3,0,0.5,0.1,0.6,0.3c0.1,0.2,0.2,0.4,0.1,0.6l-2.1,8.7h-2L71.2,30z"/>
<path class="st4" d="M26,48.5l2.1-8.6c0.1-0.3,0.2-0.5,0.5-0.7c0.2-0.2,0.5-0.3,0.8-0.3H33c1.1,0,1.8,0.2,2.2,0.7
	c0.4,0.5,0.5,1.1,0.3,2.1c-0.1,0.6-0.4,1.1-0.8,1.5c-0.3,0.4-0.7,0.6-1.3,0.8c0.4,0.1,0.6,0.4,0.8,0.7c0.1,0.3,0.1,0.8,0,1.4
	L34,47.2c0,0.1-0.1,0.2-0.1,0.4c0,0.1-0.1,0.3-0.1,0.4c0,0.3,0,0.6,0.2,0.6h-2.2c-0.1-0.2-0.1-0.4,0-0.6c0-0.3,0.1-0.5,0.1-0.6
	l0.2-1c0.1-0.6,0.1-1-0.1-1.2c-0.1-0.2-0.5-0.3-1-0.3h-2.1L28,48.6L26,48.5z M29.3,43.1h2.4c0.5,0,0.9-0.1,1.2-0.3s0.5-0.5,0.6-0.9
	c0.1-0.4,0.1-0.7-0.1-0.9c-0.2-0.2-0.5-0.3-0.9-0.3h-2.5L29.3,43.1z"/>
<path class="st4" d="M39.7,48.2c-0.4,0.2-0.9,0.3-1.4,0.4c-0.5,0.1-0.9,0.1-1.2,0.1c-0.7,0-1.2-0.2-1.7-0.5c-0.4-0.4-0.5-1-0.3-1.8
	c0.2-0.8,0.6-1.4,1.1-1.7s1.2-0.6,1.9-0.7c0.1,0,0.2,0,0.4,0c0.1,0,0.3-0.1,0.5-0.1c0.9-0.1,1.4-0.4,1.4-0.7c0.1-0.3,0-0.5-0.3-0.6
	c-0.3-0.1-0.5-0.1-0.8-0.1c-0.3,0-0.5,0-0.7,0.1c-0.2,0.1-0.4,0.2-0.6,0.4h-1.9c0.2-0.6,0.6-1.1,1.1-1.4c0.6-0.4,1.4-0.6,2.4-0.6
	c1.1,0,1.8,0.2,2.3,0.5c0.5,0.4,0.6,0.9,0.4,1.6l-0.6,2.6c-0.2,0.7-0.5,1.3-0.8,1.8C40.5,47.7,40.1,48,39.7,48.2z M40,44.8
	c-0.3,0.1-0.7,0.3-1.2,0.4l-0.7,0.1c-0.4,0.1-0.6,0.2-0.8,0.4C37.1,45.8,37,46,37,46.2c-0.1,0.3,0,0.5,0.1,0.7
	c0.1,0.1,0.4,0.2,0.7,0.2c0.5,0,1-0.1,1.4-0.4c0.4-0.3,0.6-0.7,0.8-1.2L40,44.8z"/>
<path class="st4" d="M47.4,46.2h1.4c-0.4,0.8-0.9,1.4-1.6,1.8c-0.7,0.4-1.5,0.6-2.4,0.6c-1.1,0-1.9-0.4-2.3-1
	C42,46.9,42,46,42.3,44.7c0.3-1.2,0.8-2.1,1.6-2.8c0.8-0.7,1.7-1,2.8-1c1.1,0,1.9,0.3,2.4,1c0.2,0.4,0.4,0.9,0.4,1.4h-2
	c-0.1-0.2-0.1-0.3-0.2-0.4c-0.2-0.3-0.5-0.4-1-0.4c-0.4,0-0.8,0.1-1.1,0.4c-0.4,0.4-0.8,1-1,1.9c-0.2,0.9-0.2,1.5,0.1,1.8
	c0.2,0.3,0.5,0.4,1,0.4c0.3,0,0.6-0.1,0.9-0.2c0.1,0,0.1-0.1,0.2-0.1c0.1-0.1,0.1-0.1,0.2-0.1c0.1-0.1,0.1-0.1,0.3-0.2
	C46.9,46.3,47.1,46.2,47.4,46.2z"/>
<path class="st4" d="M54.6,46.2h1.4c-0.4,0.8-0.9,1.4-1.6,1.8c-0.7,0.4-1.5,0.6-2.4,0.6c-1.1,0-1.9-0.4-2.3-1
	c-0.4-0.7-0.5-1.6-0.2-2.9c0.3-1.2,0.8-2.1,1.6-2.8c0.8-0.7,1.7-1,2.8-1c1.1,0,1.9,0.3,2.4,1c0.4,0.7,0.5,1.6,0.2,2.9
	c0,0.1,0,0.1-0.1,0.2c0,0.1,0,0.1,0,0.1c0,0.1-0.1,0.1-0.1,0.2h-4.9c-0.1,0.6-0.1,1,0.1,1.3c0.2,0.3,0.5,0.4,1,0.4
	c0.3,0,0.6-0.1,0.9-0.2c0.1,0,0.1-0.1,0.2-0.1c0.1-0.1,0.1-0.1,0.2-0.1c0-0.1,0.1-0.1,0.3-0.2C54.2,46.2,54.4,46.2,54.6,46.2z
	 M51.7,44h2.9c0.1-0.5,0-0.9-0.1-1.1c-0.2-0.3-0.5-0.4-1-0.4c-0.4,0-0.8,0.1-1.1,0.4C52.1,43.2,51.9,43.5,51.7,44z"/>
<path class="st4" d="M64.9,73.4c-5.1,3.3-11.4,4.8-17.4,4.6l-1.2,0h1.2c4.4,0,8.8-1,12.9-2.8c1.4-0.6,2.9-1.4,4.1-2.4
	C64.9,72.5,65.3,73.1,64.9,73.4z"/>
<path class="st4" d="M62.3,72.3C57,75.7,50.7,77.2,44.5,77l-1.2,0h1.2c4.5,0,9-1,13.1-2.9c1.5-0.7,2.9-1.5,4.2-2.4
	C62.2,71.4,62.7,72,62.3,72.3z"/>
<path class="st4" d="M59.1,71.3c-5.2,3.4-11.5,4.8-17.6,4.7l-1.2,0h1.2c4.5,0,8.9-1,13-2.8c1.5-0.7,2.9-1.4,4.2-2.4
	C59.1,70.5,59.6,71,59.1,71.3z"/>
<path class="st7" d="M55.5,68.1c-0.6,0.4-1.1,0.4-1.2,0c-0.1-0.3-0.4-3-0.5-3.3c-0.3-0.7-1.1-1.5-1.1-1.9c-0.1-0.4,0.2-1,0.2-1
	l1.2-1c0,0,0.1,0,0.5-0.2c0.4-0.3,0.2-0.9-0.1-0.8c-0.3,0.1-0.5,0.6-0.5,0.6L53,60.8c0,0,0.1-0.6,0.2-1.1s-0.1-0.6-0.4-0.9
	c-0.2-0.3-0.3-0.4-0.2-0.6c0.1-0.2,0.3-0.2,0.4-0.3c0.2-0.1,0.2-0.3,0.2-1c-0.1-0.8-0.5-0.8-0.7-0.8c-0.2,0.1-0.9,0.3-0.9,1
	c0,0.7,0.5,0.9,0.1,1.2c-0.1,0.1-1,0.7-1.2,0.9c-0.4,0.5-1,1.5-1.2,1.9c-0.2,0.4-0.2,0.6,0,0.7c0.1,0.1,1.5,0.6,1.5,0.6
	s-0.2,0.6-0.3,1.3c0,0.6-0.2,1.8-0.2,2.3c0,0.1-0.1,0.3-0.2,0.3c-0.4-0.1-1,0.1-1.8,0.4c-0.1,0-0.1,0-0.2-0.1l-0.3-0.3
	c-0.1-0.1-0.2,0-0.3,0.1c-0.3,0.4-0.8,1.2-0.9,1.6c-0.2,0.4,0.1,0.4,0.3,0.2c0.2-0.2,0.5-0.6,0.9-0.7c0.6-0.3,2.5,0,2.7,0
	s0.4-0.2,0.5-0.4c0.1-0.2,1-2,1-2l0.8,0.6c0.1,0.1,0.1,0.1,0.1,0.2c0,0.3,0,0.8,0.1,1c0.1,0.2,0.7,1.4,0.7,1.9
	c0.1,0.6,0.2,0.7,0.2,0.7c0.1,0,1.3-0.9,1.6-1.2C55.9,68.1,55.7,68,55.5,68.1z M50.1,61.3l0.6-0.7l0.3,1.4L50.1,61.3z"/>
<path class="st7" d="M61.7,66.3c0-0.1-0.2,0-0.4,0.2c-0.3,0.2-0.6,0.2-0.9,0.1C60.1,66.5,60,64.4,60,64c0-0.4-0.2-0.7-0.5-1
	c-0.2-0.3-1-0.7-1-0.7l0.2-1.1c0,0,1.1-1.1,1.2-1.3c0.1-0.2,0.4-0.4,0.6-0.6c0.2-0.3-0.1-0.7-0.2-0.6c-0.1,0.1-0.2,0.1-0.3,0.3
	c-0.1,0.2-0.1,0.4-0.4,0.7c-0.2,0.3-0.6,0.5-0.6,0.5s0.1-0.5,0.1-1c0-0.5-0.5-0.6-0.4-0.8c0.1-0.2,0.3-0.3,0.4-0.4
	c0.1-0.1,0.2-0.5,0.1-1c0-0.4-0.2-0.9-0.8-0.8c-0.5,0.1-1,0.6-1.1,1c0,0.1-0.1,0.1-0.1,0.1c-0.1,0-0.1,0-0.2-0.1
	c-0.1-0.1-0.4,0-0.4,0.1c0.2-0.1,0.3,0.2,0.5,0.2c0.1,0,0,0,0,0c-0.1,0-0.2-0.1-0.4-0.1c-0.1,0-0.2,0-0.4,0.1
	c-0.1,0.1-0.3,0.3-0.2,0.4c0.1-0.2,0.2-0.3,0.4-0.2c0.1,0,0.2,0.2,0.4,0.3c0.2,0.1,0.4,0,0.5-0.1c0.1-0.1,0.2-0.1,0.3-0.1
	c0.1,0.1,0.1,0.1,0.2,0.1c0.1,0.1,0.3,0.1,0.2,0.2c0,0.1-0.3,0.3-0.6,0.5c-0.4,0.2-0.9,0.6-1.3,0.9s-0.6,0.5-0.6,0.8
	c-0.1,0.2-0.5,1.4-0.5,1.5c0,0.1-0.4,0.9-0.3,1.1c0.1,0.2,0.3,0.1,0.4,0c0.1-0.1,0.3-0.1,0.3-0.4c0-0.3-0.1-0.6,0-0.8
	c0.1-0.1,0.4-0.9,0.6-1.2c0.1-0.3,0.3-0.4,0.4-0.4c0.1,0,0.3-0.1,0.5-0.2c0.2-0.1,0.3,0,0.3,0.2c0,0.1,0.1,0.9,0.1,1.3
	c-0.1,0.4-0.2,0.5-0.5,1.1s-0.3,1.3-0.4,1.7c-0.2,0.4-0.3,1.1-0.4,1.3c-0.1,0.3-0.6,0.3-0.9,0.5c-0.4,0.2-1.5,1.1-1.6,1.3
	c-0.2,0.1-0.6,0-0.7,0c-0.1,0-0.2,0.1-0.2,0.2c0,0-0.2,1.4-0.2,1.8c0,0.4,0.3,0.3,0.4-0.1c0.1-0.2,0.2-0.6,0.4-0.9
	c0.2-0.4,1-0.8,1.5-1.1c0.5-0.3,1.7-0.8,1.9-0.9c0.2-0.1,0.4-0.4,0.7-0.9c0.3-0.4,0.7-1.3,0.7-1.3s1.1,0.3,1.3,0.4
	c0.2,0,0.2,0.3,0.2,0.7c0,0.4,0.4,1.2,0.5,1.5c0.1,0.3,0.1,0.5,0.1,0.6c0,0.1,0.1,0.6,0.1,0.6c0.1,0.1,0.2,0.1,0.3,0
	c0.1-0.1,1.1-1,1.3-1.2C61.8,66.5,61.8,66.4,61.7,66.3z"/>
<path class="st7" d="M66.5,61.9c0,0,0.6-0.2,0.4-0.4s-0.2-0.4-0.4-0.2c-0.2,0.2-0.1,0.4-0.4,0.6c-0.2,0.2-0.5,0.3-0.7,0.6
	c0,0,0-0.6-0.1-1.3c0,0-0.1-0.1,0.1-0.2c0,0,0.1,0.2,0.2,0.1c0.1-0.1,0.5-0.4,0.6-1.1c0.1-0.7-1-0.7-1.3-0.2c0,0-0.1,0.1-0.1,0.8
	c0,0,0,0.2-0.1,0.2c-0.1,0-1.4,0.1-1.5,0.1c-0.1,0.1-0.2,0-0.4,0.3c-0.1,0.3-0.4,0.6-0.4,1.3c0,0-0.4,0.3-0.3,0.4
	c0.1,0.1,0.3,0.2,0.3,0.2c0,0,0.2-0.1,0.2-0.2c0-0.1,0.1-0.7,0.2-0.8c0.1-0.1,0.4-0.7,0.5-0.7c0,0,0.6,0,0.6,0c0,0-0.1,0.2-0.4,1.8
	c0,0-0.6,0.6-0.5,1.4c0,0-0.1,1.1-0.3,1.4c-0.1,0.4-0.2,0.4-0.2,0.4s-0.4,0.2-0.7,0.9c-0.1,0.1-0.4,0.5-0.6,0.7
	c-0.1,0.2-0.6,0.3-0.5,0.5c0.2,0.2,0.7,0.6,1,0.8c0.1,0.1,0.4,0.1,0.3-0.1c-0.1-0.3-0.5-0.7-0.5-0.9c0-0.2,1.2-1.3,1.3-1.4
	c0.1-0.1,0.3-0.2,0.4-0.3c0.1-0.1,0.5-0.6,0.8-1.4c0,0,0.7,0.2,1,0.3c0.1,0,0.3,0.1,0,0.3c-0.2,0.1-0.4,0.3-0.7,0.8
	c0,0-0.3,0.3-0.4,0.4c-0.1,0.1-0.6,0.2-0.5,0.4c0.2,0.2,0.9,0.8,1,0.9c0.1,0.1,0.3,0.1,0.2-0.2c-0.1-0.2-0.3-0.4-0.4-0.7
	c0,0,0-0.2,0.2-0.4c0.2-0.1,1.3-1,1.4-1.2c0.1-0.2,0.2-0.4,0-0.7c-0.2-0.3-0.6-0.4-1.3-1c0,0,0-0.7,0.3-1.1c0,0,0.1,0.1,0.3,0
	c0.1-0.1,0.4-0.1,0.9-0.7C66.2,62.2,66.4,61.9,66.5,61.9z"/>
<path class="st7" d="M50,68.4c-0.5,0.3-1,0.3-1,0c-0.1-0.3-0.4-2.6-0.5-2.7c-0.5-0.5-1.4-0.4-1.4-1.3c0-0.4,0.2-1,0.2-1l0.8,0.9
	c0,0,0.1,0.3,0.4,0.4s0.5-0.3,0.4-0.5c-0.1-0.1-0.5-0.3-0.5-0.3l-0.8-1.3c0,0,0.1-0.3,0.1-0.8c0.1-0.5-0.1-0.6-0.3-0.8
	c-0.2-0.2-0.3-0.3-0.2-0.4c0.1-0.2,0.4-0.2,0.4-0.2c0.2-0.1,0.2-0.3,0.2-0.9c-0.1-0.7-0.5-0.7-0.7-0.7c-0.1,0-0.8,0.2-0.8,0.8
	c-0.1,0-0.1,0.1-0.2,0.1c-0.1,0-0.2-0.1-0.4,0.1c-0.1,0.1,0,0.4-0.2,0.6c-0.2,0.2-0.4,0.3-0.4,0.3c0,0,0.4,0.2,0.7,0
	c0.3-0.2,0.1-0.5,0.2-0.6c0.1-0.1,0.2-0.1,0.2-0.1c0.1,0.5,0.4,0.6,0.1,0.9c-0.1,0.1-0.7,0.3-0.9,0.4c-0.4,0.4-0.7,0.9-0.9,1.3
	c-0.2,0.3-0.4,0.8-0.2,0.8c0.1,0.1,1.2,0.5,1.2,0.5s-0.1,0.4-0.3,0.9c-0.1,0.4,0,1.4,0,1.9c0,0.1-0.1,0.2-0.2,0.2
	c-0.3,0-0.8,0.1-1.5,0.3c-0.1,0-0.1,0-0.2-0.1L43,66.8c-0.1-0.1-0.1,0-0.2,0.1c-0.2,0.4-0.7,1.1-0.8,1.3c-0.1,0.3,0.1,0.3,0.3,0.1
	c0.1-0.2,0.5-0.5,0.7-0.6c0.5-0.2,2.1,0,2.3,0c0.2,0,0.3-0.1,0.4-0.3c0.1-0.1,0.9-1.7,0.9-1.7l1.2,0.6c0.1,0,0.1,0.1,0.1,0.2
	c0,0.2,0,0.6,0.1,0.9c0.1,0.2,0.6,1.1,0.6,1.6c0.1,0.6,0.2,0.6,0.2,0.6c0.1,0,1.1-0.7,1.4-1C50.4,68.4,50.2,68.3,50,68.4z
	 M44.9,62.9l0.6-0.9v1.3L44.9,62.9z"/>
<path class="st4" d="M55.5,68.1c-0.6,0.4-1.1,0.4-1.2,0c-0.1-0.3-0.4-3-0.5-3.3c-0.3-0.7-1.1-1.5-1.1-1.9c-0.1-0.4,0.2-1,0.2-1
	l1.2-1c0,0,0.1,0,0.5-0.2c0.4-0.3,0.2-0.9-0.1-0.8c-0.3,0.1-0.5,0.6-0.5,0.6L53,60.8c0,0,0.1-0.6,0.2-1.1s-0.1-0.6-0.4-0.9
	c-0.2-0.3-0.3-0.4-0.2-0.6c0.1-0.2,0.3-0.2,0.4-0.3c0.2-0.1,0.2-0.3,0.2-1c-0.1-0.8-0.5-0.8-0.7-0.8c-0.2,0.1-0.9,0.3-0.9,1
	c0,0.7,0.5,0.9,0.1,1.2c-0.1,0.1-1,0.7-1.2,0.9c-0.4,0.5-1,1.5-1.2,1.9c-0.2,0.4-0.2,0.6,0,0.7c0.1,0.1,1.5,0.6,1.5,0.6
	s-0.2,0.6-0.3,1.3c0,0.6-0.2,1.8-0.2,2.3c0,0.1-0.1,0.3-0.2,0.3c-0.4-0.1-1,0.1-1.8,0.4c-0.1,0-0.1,0-0.2-0.1l-0.3-0.3
	c-0.1-0.1-0.2,0-0.3,0.1c-0.3,0.4-0.8,1.2-0.9,1.6c-0.2,0.4,0.1,0.4,0.3,0.2c0.2-0.2,0.5-0.6,0.9-0.7c0.6-0.3,2.5,0,2.7,0
	s0.4-0.2,0.5-0.4c0.1-0.2,1-2,1-2l0.8,0.6c0.1,0.1,0.1,0.1,0.1,0.2c0,0.3,0,0.8,0.1,1c0.1,0.2,0.7,1.4,0.7,1.9
	c0.1,0.6,0.2,0.7,0.2,0.7c0.1,0,1.3-0.9,1.6-1.2C55.9,68.1,55.7,68,55.5,68.1z M50.1,61.3l0.6-0.7l0.3,1.4L50.1,61.3z"/>
<path class="st4" d="M61.7,66.3c0-0.1-0.2,0-0.4,0.2c-0.3,0.2-0.6,0.2-0.9,0.1C60.1,66.5,60,64.4,60,64c0-0.4-0.2-0.7-0.5-1
	c-0.2-0.3-1-0.7-1-0.7l0.2-1.1c0,0,1.1-1.1,1.2-1.3c0.1-0.2,0.4-0.4,0.6-0.6c0.2-0.3-0.1-0.7-0.2-0.6c-0.1,0.1-0.2,0.1-0.3,0.3
	c-0.1,0.2-0.1,0.4-0.4,0.7c-0.2,0.3-0.6,0.5-0.6,0.5s0.1-0.5,0.1-1c0-0.5-0.5-0.6-0.4-0.8c0.1-0.2,0.3-0.3,0.4-0.4
	c0.1-0.1,0.2-0.5,0.1-1c0-0.4-0.2-0.9-0.8-0.8c-0.5,0.1-1,0.6-1.1,1c0,0.1-0.1,0.1-0.1,0.1c-0.1,0-0.1,0-0.2-0.1
	c-0.1-0.1-0.4,0-0.4,0.1c0.2-0.1,0.3,0.2,0.5,0.2c0.1,0,0,0,0,0c-0.1,0-0.2-0.1-0.4-0.1c-0.1,0-0.2,0-0.4,0.1
	c-0.1,0.1-0.3,0.3-0.2,0.4c0.1-0.2,0.2-0.3,0.4-0.2c0.1,0,0.2,0.2,0.4,0.3c0.2,0.1,0.4,0,0.5-0.1c0.1-0.1,0.2-0.1,0.3-0.1
	c0.1,0.1,0.1,0.1,0.2,0.1c0.1,0.1,0.3,0.1,0.2,0.2c0,0.1-0.3,0.3-0.6,0.5c-0.4,0.2-0.9,0.6-1.3,0.9s-0.6,0.5-0.6,0.8
	c-0.1,0.2-0.5,1.4-0.5,1.5c0,0.1-0.4,0.9-0.3,1.1c0.1,0.2,0.3,0.1,0.4,0c0.1-0.1,0.3-0.1,0.3-0.4c0-0.3-0.1-0.6,0-0.8
	c0.1-0.1,0.4-0.9,0.6-1.2c0.1-0.3,0.3-0.4,0.4-0.4c0.1,0,0.3-0.1,0.5-0.2c0.2-0.1,0.3,0,0.3,0.2c0,0.1,0.1,0.9,0.1,1.3
	c-0.1,0.4-0.2,0.5-0.5,1.1s-0.3,1.3-0.4,1.7c-0.2,0.4-0.3,1.1-0.4,1.3c-0.1,0.3-0.6,0.3-0.9,0.5c-0.4,0.2-1.5,1.1-1.6,1.3
	c-0.2,0.1-0.6,0-0.7,0c-0.1,0-0.2,0.1-0.2,0.2c0,0-0.2,1.4-0.2,1.8c0,0.4,0.3,0.3,0.4-0.1c0.1-0.2,0.2-0.6,0.4-0.9
	c0.2-0.4,1-0.8,1.5-1.1c0.5-0.3,1.7-0.8,1.9-0.9c0.2-0.1,0.4-0.4,0.7-0.9c0.3-0.4,0.7-1.3,0.7-1.3s1.1,0.3,1.3,0.4
	c0.2,0,0.2,0.3,0.2,0.7c0,0.4,0.4,1.2,0.5,1.5c0.1,0.3,0.1,0.5,0.1,0.6c0,0.1,0.1,0.6,0.1,0.6c0.1,0.1,0.2,0.1,0.3,0
	c0.1-0.1,1.1-1,1.3-1.2C61.8,66.5,61.8,66.4,61.7,66.3z"/>
<path class="st4" d="M66.5,61.9c0,0,0.6-0.2,0.4-0.4s-0.2-0.4-0.4-0.2c-0.2,0.2-0.1,0.4-0.4,0.6c-0.2,0.2-0.5,0.3-0.7,0.6
	c0,0,0-0.6-0.1-1.3c0,0-0.1-0.1,0.1-0.2c0,0,0.1,0.2,0.2,0.1c0.1-0.1,0.5-0.4,0.6-1.1c0.1-0.7-1-0.7-1.3-0.2c0,0-0.1,0.1-0.1,0.8
	c0,0,0,0.2-0.1,0.2c-0.1,0-1.4,0.1-1.5,0.1c-0.1,0.1-0.2,0-0.4,0.3c-0.1,0.3-0.4,0.6-0.4,1.3c0,0-0.4,0.3-0.3,0.4
	c0.1,0.1,0.3,0.2,0.3,0.2c0,0,0.2-0.1,0.2-0.2c0-0.1,0.1-0.7,0.2-0.8c0.1-0.1,0.4-0.7,0.5-0.7c0,0,0.6,0,0.6,0c0,0-0.1,0.2-0.4,1.8
	c0,0-0.6,0.6-0.5,1.4c0,0-0.1,1.1-0.3,1.4c-0.1,0.4-0.2,0.4-0.2,0.4s-0.4,0.2-0.7,0.9c-0.1,0.1-0.4,0.5-0.6,0.7
	c-0.1,0.2-0.6,0.3-0.5,0.5c0.2,0.2,0.7,0.6,1,0.8c0.1,0.1,0.4,0.1,0.3-0.1c-0.1-0.3-0.5-0.7-0.5-0.9c0-0.2,1.2-1.3,1.3-1.4
	c0.1-0.1,0.3-0.2,0.4-0.3c0.1-0.1,0.5-0.6,0.8-1.4c0,0,0.7,0.2,1,0.3c0.1,0,0.3,0.1,0,0.3c-0.2,0.1-0.4,0.3-0.7,0.8
	c0,0-0.3,0.3-0.4,0.4c-0.1,0.1-0.6,0.2-0.5,0.4c0.2,0.2,0.9,0.8,1,0.9c0.1,0.1,0.3,0.1,0.2-0.2c-0.1-0.2-0.3-0.4-0.4-0.7
	c0,0,0-0.2,0.2-0.4c0.2-0.1,1.3-1,1.4-1.2c0.1-0.2,0.2-0.4,0-0.7c-0.2-0.3-0.6-0.4-1.3-1c0,0,0-0.7,0.3-1.1c0,0,0.1,0.1,0.3,0
	c0.1-0.1,0.4-0.1,0.9-0.7C66.2,62.2,66.4,61.9,66.5,61.9z"/>
<path class="st4" d="M50,68.4c-0.5,0.3-1,0.3-1,0c-0.1-0.3-0.4-2.6-0.5-2.7c-0.5-0.5-1.4-0.4-1.4-1.3c0-0.4,0.2-1,0.2-1l0.8,0.9
	c0,0,0.1,0.3,0.4,0.4s0.5-0.3,0.4-0.5c-0.1-0.1-0.5-0.3-0.5-0.3l-0.8-1.3c0,0,0.1-0.3,0.1-0.8c0.1-0.5-0.1-0.6-0.3-0.8
	c-0.2-0.2-0.3-0.3-0.2-0.4c0.1-0.2,0.4-0.2,0.4-0.2c0.2-0.1,0.2-0.3,0.2-0.9c-0.1-0.7-0.5-0.7-0.7-0.7c-0.1,0-0.8,0.2-0.8,0.8
	c-0.1,0-0.1,0.1-0.2,0.1c-0.1,0-0.2-0.1-0.4,0.1c-0.1,0.1,0,0.4-0.2,0.6c-0.2,0.2-0.4,0.3-0.4,0.3c0,0,0.4,0.2,0.7,0
	c0.3-0.2,0.1-0.5,0.2-0.6c0.1-0.1,0.2-0.1,0.2-0.1c0.1,0.5,0.4,0.6,0.1,0.9c-0.1,0.1-0.7,0.3-0.9,0.4c-0.4,0.4-0.7,0.9-0.9,1.3
	c-0.2,0.3-0.4,0.8-0.2,0.8c0.1,0.1,1.2,0.5,1.2,0.5s-0.1,0.4-0.3,0.9c-0.1,0.4,0,1.4,0,1.9c0,0.1-0.1,0.2-0.2,0.2
	c-0.3,0-0.8,0.1-1.5,0.3c-0.1,0-0.1,0-0.2-0.1L43,66.8c-0.1-0.1-0.1,0-0.2,0.1c-0.2,0.4-0.7,1.1-0.8,1.3c-0.1,0.3,0.1,0.3,0.3,0.1
	c0.1-0.2,0.5-0.5,0.7-0.6c0.5-0.2,2.1,0,2.3,0c0.2,0,0.3-0.1,0.4-0.3c0.1-0.1,0.9-1.7,0.9-1.7l1.2,0.6c0.1,0,0.1,0.1,0.1,0.2
	c0,0.2,0,0.6,0.1,0.9c0.1,0.2,0.6,1.1,0.6,1.6c0.1,0.6,0.2,0.6,0.2,0.6c0.1,0,1.1-0.7,1.4-1C50.4,68.4,50.2,68.3,50,68.4z
	 M44.9,62.9l0.6-0.9v1.3L44.9,62.9z"/>
<path class="st8" d="M70.1,11.6c-0.1-0.5-0.5-0.9-1-1.1c-0.5-0.1-1-0.1-1.4,0.2c-0.9,0.8-3,1.1-6.1,1.1h0c-0.8,0-2.5,0-4.9-0.1
	L41.3,11c0,0,0,0,0,0c-0.6,0-1.3,0-1.8,0c-0.3,0-0.5,0-0.8,0c-3.9-0.1-8.8,0.9-10.8,3.9c-2,2.9-2,8.3-0.1,14.5
	c0.1,0.4,0.5,0.8,0.9,1c0.2,0.1,0.4,0.1,0.5,0.1c0.3,0,0.6-0.1,0.8-0.2c2.1-1.4,5.5-1.3,7.5-1.3c0.4,0,0.7,0,1,0c0.8,0,5,0.2,9,0.4
	c5.1,0.3,10.4,0.6,11.7,0.6c4-0.1,8.5-0.6,10.8-3.9C72,23.2,72,18.9,70.1,11.6z"/>
<path class="st4" d="M41.2,12.5c-0.9,0-1.8,0-2.6-0.1c-3.7-0.1-7.9,0.8-9.6,3.2c-1.6,2.4-1.8,7.2,0.1,13.2c2.9-1.9,7.4-1.5,9.3-1.6
	c1.9,0,18.4,1.1,20.7,1c3.8-0.1,7.7-0.6,9.6-3.3c1.2-1.7,1.9-4.7-0.2-13c-1.5,1.2-4.4,1.5-7,1.5c-0.9,0-2.8,0-5-0.1L41.2,12.5z"/>
<path class="st9" d="M29.6,16.4c1.5-2.7,6.3-3.2,9.1-3.1c2.9,0.1,20.5,1.1,22.9,1c2.6,0,5.4-0.3,6.8-1.2c-1.3,1.9-4.7,2.3-7.5,2.4
	c-2.1,0-20.6-1-22.5-1C36.9,14.4,32.1,14.6,29.6,16.4z"/>
<path class="st9" d="M29.5,27.8c1.8-2.4,6.4-2.4,9.1-2.4c2.9,0.1,18.8,1,21.2,0.9c2.6,0,6.6-0.3,8.5-1.9c-2.2,3-6.3,3-9.1,3.1
	c-2.4,0.1-18.8-1.1-20.7-1C36.6,26.5,32.1,26.3,29.5,27.8z"/>
<path class="st10" d="M37.7,20.4c0.4-0.4,0.8-0.9,0.8-1.5v-0.6c0-1-0.8-1.9-1.9-1.9h-5.1v3.9v3.9h5.1c1,0,1.9-0.8,1.9-1.9v-0.5
	C38.5,21.3,38.2,20.8,37.7,20.4z M34.5,21.2h1.2c0.4,0,0.6,0.3,0.6,0.6c0,0.4-0.3,0.6-0.6,0.6h-1.8v-2.4v-1.6h1.8
	c0.4,0,0.6,0.3,0.6,0.6c0,0.4-0.3,0.6-0.6,0.6h-0.7L34,21.2L34.5,21.2L34.5,21.2z"/>
<path class="st10" d="M51.5,16.5h-2.7c-0.6,0-1,0.5-1.2,1.3L47,20.9l-0.6-3.1c-0.2-0.8-0.5-1.3-1.2-1.3h-2.7v7.8h2.2v-5.4l1.2,5.4
	h2.2l1.2-5.4v5.4h2.2L51.5,16.5z"/>
<path class="st10" d="M64.3,16.3c1.5,0,2.7,1.2,2.7,2.8v2.6c0,1.5-1.2,2.8-2.7,2.8h-1.6c-1.5,0-2.7-1.2-2.7-2.8v-2.6
	c0-1.5,1.2-2.8,2.7-2.8H64.3z M63.1,18.3c-0.5,0-0.9,0.4-0.9,0.9v2.2c0,0.5,0.4,0.9,0.9,0.9h0.8c0.5,0,0.9-0.4,0.9-0.9v-2.2
	c0-0.5-0.4-0.9-0.9-0.9H63.1z"/>
<path class="st10" d="M41.5,16.5h-2.2v7.8h2.2V16.5z"/>
<path class="st10" d="M59.4,18.9v-0.6c0-1-0.8-1.8-1.9-1.8h-5.1v3.9v3.9h5.1c1,0,1.9-0.8,1.9-1.9v-0.5c0-0.6-0.3-1.1-0.8-1.5v0
	C59.1,20.1,59.4,19.6,59.4,18.9z M56.5,22.5h-1.8v-2v-0.4v-1.6h1.8c0.4,0,0.6,0.3,0.6,0.6c0,0.4-0.3,0.6-0.6,0.6h-0.7l-0.9,1.5h0.4
	h1.2c0.4,0,0.6,0.3,0.6,0.6C57.1,22.2,56.8,22.5,56.5,22.5z"/>
<path class="st10" d="M67.4,24.3c0,0.3-0.3,0.6-0.6,0.6c-0.3,0-0.6-0.3-0.6-0.6c0-0.3,0.3-0.6,0.6-0.6C67.1,23.7,67.4,24,67.4,24.3z
	 M66.4,24.3c0,0.3,0.2,0.4,0.4,0.4c0.2,0,0.4-0.2,0.4-0.4c0-0.3-0.2-0.4-0.4-0.4S66.4,24,66.4,24.3z M66.7,24.6h-0.1V24
	c0.1,0,0.1,0,0.2,0c0.1,0,0.1,0,0.2,0c0,0,0.1,0.1,0.1,0.1c0,0.1-0.1,0.1-0.1,0.1c0.1,0,0.1,0.1,0.1,0.1c0,0.1,0,0.1,0,0.1h-0.1
	c0,0,0-0.1-0.1-0.1c0-0.1-0.1-0.1-0.1-0.1h0V24.6z M66.7,24.3L66.7,24.3c0.1,0,0.2,0,0.2-0.1c0-0.1,0-0.1-0.1-0.1c0,0-0.1,0-0.1,0
	V24.3z"/>
</svg>
