<svg width="254" height="75" viewBox="0 0 254 75" fill="none" xmlns="http://www.w3.org/2000/svg">
<path d="M243.709 73.5546H9.54312C4.77135 73.5546 0.930664 69.7139 0.930664 64.9422V9.54312C0.930664 4.77136 4.77135 0.930664 9.54312 0.930664H243.709C248.481 0.930664 252.321 4.77136 252.321 9.54312V65.0585C252.321 69.7139 248.481 73.5546 243.709 73.5546Z" fill="black"/>
<path d="M243.709 74.4861H9.54353C4.30623 74.4861 0 70.1799 0 64.9426V9.54353C0 4.30622 4.30623 0 9.54353 0H243.709C248.947 0 253.253 4.30622 253.253 9.54353V65.059C253.253 70.2963 248.947 74.4861 243.709 74.4861ZM9.54353 1.86215C5.35369 1.86215 1.86215 5.2373 1.86215 9.54353V65.059C1.86215 69.2488 5.2373 72.7403 9.54353 72.7403H243.709C247.899 72.7403 251.391 69.3652 251.391 65.059V9.54353C251.391 5.35369 248.015 1.86215 243.709 1.86215H9.54353Z" fill="#B2B2B2"/>
<path d="M127.791 40.7353C123.368 40.7353 119.76 44.1104 119.76 48.6494C119.76 53.1884 123.368 56.5636 127.791 56.5636C132.213 56.5636 135.821 53.1884 135.821 48.6494C135.705 44.1104 132.213 40.7353 127.791 40.7353ZM127.791 53.5376C125.347 53.5376 123.252 51.559 123.252 48.7658C123.252 45.8562 125.347 43.994 127.791 43.994C130.235 43.994 132.33 45.9726 132.33 48.7658C132.213 51.559 130.119 53.5376 127.791 53.5376ZM110.333 40.7353C105.911 40.7353 102.303 44.1104 102.303 48.6494C102.303 53.1884 105.911 56.5636 110.333 56.5636C114.756 56.5636 118.364 53.1884 118.364 48.6494C118.364 44.1104 114.756 40.7353 110.333 40.7353ZM110.333 53.5376C107.889 53.5376 105.794 51.559 105.794 48.7658C105.794 45.8562 107.889 43.994 110.333 43.994C112.777 43.994 114.872 45.9726 114.872 48.7658C114.872 51.559 112.777 53.5376 110.333 53.5376ZM89.6168 43.1793V46.5545H97.6473C97.4145 48.4166 96.7162 49.8132 95.7851 50.8607C94.6213 52.0246 92.7591 53.3048 89.5004 53.3048C84.4958 53.3048 80.6551 49.3477 80.6551 44.3432C80.6551 39.3386 84.4958 35.3816 89.5004 35.3816C92.1772 35.3816 94.1557 36.429 95.5524 37.8256L97.88 35.498C95.9015 33.5194 93.2247 32.1228 89.384 32.1228C82.5173 32.1228 76.8145 37.7093 76.8145 44.4596C76.8145 51.3262 82.5173 56.7963 89.384 56.7963C93.1083 56.7963 95.7851 55.6325 97.9964 53.3048C100.208 51.0935 100.906 47.9511 100.906 45.3906C100.906 44.5759 100.79 43.8776 100.673 43.2957H89.6168V43.1793ZM174.461 45.8562C173.763 44.1104 171.784 40.7353 167.594 40.7353C163.521 40.7353 160.029 43.994 160.029 48.6494C160.029 53.072 163.405 56.5636 167.944 56.5636C171.551 56.5636 173.646 54.3522 174.577 53.072L171.901 51.2099C170.97 52.4901 169.806 53.4212 167.944 53.4212C166.198 53.4212 164.918 52.6065 164.103 50.9771L174.694 46.5545L174.461 45.8562ZM163.521 48.533C163.405 45.507 165.849 43.8776 167.711 43.8776C169.107 43.8776 170.271 44.5759 170.62 45.6234L163.521 48.533ZM154.908 56.2144H158.4V32.8211H154.908V56.2144ZM149.206 42.481H149.089C148.275 41.55 146.762 40.7353 144.899 40.7353C140.942 40.7353 137.218 44.2268 137.218 48.7658C137.218 53.1884 140.826 56.6799 144.899 56.6799C146.762 56.6799 148.275 55.8652 149.089 54.8178H149.206V55.9816C149.206 59.0076 147.576 60.637 144.899 60.637C142.804 60.637 141.408 59.124 140.942 57.8438L137.916 59.124C138.847 61.2189 141.059 63.7794 145.016 63.7794C149.089 63.7794 152.581 61.3353 152.581 55.5161V41.2008H149.206V42.481ZM145.132 53.5376C142.688 53.5376 140.71 51.559 140.71 48.7658C140.71 45.9726 142.688 43.8776 145.132 43.8776C147.46 43.8776 149.438 45.9726 149.438 48.7658C149.438 51.559 147.576 53.5376 145.132 53.5376ZM190.755 32.8211H182.375V56.2144H185.867V47.3692H190.755C194.596 47.3692 198.436 44.5759 198.436 40.1533C198.436 35.6143 194.712 32.8211 190.755 32.8211ZM190.871 44.1104H185.867V36.0799H190.871C193.432 36.0799 194.945 38.2912 194.945 40.0369C194.945 41.8991 193.548 44.1104 190.871 44.1104ZM212.519 40.7353C209.958 40.7353 207.398 41.8991 206.234 44.3432L209.376 45.6234C210.075 44.3432 211.239 43.8776 212.519 43.8776C214.381 43.8776 216.127 44.9251 216.243 46.9036V47.1364C215.661 46.7873 214.265 46.2053 212.635 46.2053C209.26 46.2053 205.885 48.0675 205.885 51.4426C205.885 54.585 208.678 56.5636 211.704 56.5636C214.032 56.5636 215.312 55.5161 216.127 54.2359H216.243V56.098H219.618V47.1364C219.618 43.063 216.476 40.7353 212.519 40.7353ZM212.053 53.5376C210.889 53.5376 209.26 52.9556 209.26 51.559C209.26 49.6969 211.239 49.1149 212.984 49.1149C214.497 49.1149 215.196 49.4641 216.127 49.9296C215.894 52.0246 214.032 53.5376 212.053 53.5376ZM231.839 41.2008L227.882 51.3263H227.765L223.575 41.2008H219.851L226.136 55.3997L222.528 63.3139H226.136L235.796 41.2008H231.839ZM200.415 56.2144H203.906V32.8211H200.415V56.2144Z" fill="white"/>
<path d="M19.7864 14.1972C19.2044 14.7791 18.9717 15.7102 18.9717 16.874V58.1905C18.9717 59.3544 19.3208 60.2855 19.7864 60.8674L19.9028 60.9838L43.0633 37.7069V37.4741V37.2413L19.9028 14.0808L19.7864 14.1972Z" fill="#70C9F3"/>
<path d="M50.7458 45.506L43.0645 37.8246V37.4754V37.2427L50.7458 29.5613L50.8622 29.6777L60.0566 34.915C62.6171 36.428 62.6171 38.872 60.0566 40.2687L50.8622 45.506H50.7458Z" fill="url(#paint0_linear_5_2081)"/>
<path d="M50.9782 45.3895L43.064 37.4753L19.7871 60.7523C20.6018 61.6833 22.1148 61.7997 23.6278 60.8686L50.9782 45.3895Z" fill="url(#paint1_linear_5_2081)"/>
<path d="M50.9782 29.5602L23.6278 14.0811C21.9984 13.15 20.6018 13.2664 19.7871 14.1975L43.064 37.4744L50.9782 29.5602Z" fill="url(#paint2_linear_5_2081)"/>
<path d="M86.0104 15.4794C85.3121 14.8975 84.381 14.4319 83.3335 14.4319C81.0058 14.4319 79.2601 16.2941 79.2601 18.6218C79.2601 20.9495 81.0058 22.8116 83.3335 22.8116C85.3121 22.8116 86.7087 21.6478 86.8251 19.7856H83.7991V18.5054H88.5708C88.5708 22.3461 86.4759 24.2082 83.3335 24.2082C80.1911 24.2082 77.7471 21.6478 77.7471 18.6218C77.7471 15.4794 80.1911 12.9189 83.3335 12.9189C84.7301 12.9189 86.1268 13.5009 87.0578 14.3156L86.0104 15.4794Z" fill="white"/>
<path d="M97.1844 13.1514V14.548H92.1798V18.0395H96.6024V19.4361H92.1798V22.8113H97.4171V24.2079H90.7832V13.1514H97.1844Z" fill="white"/>
<path d="M106.844 13.1514V14.548H103.469V24.2079H101.956V14.548H98.5811V13.1514H106.844Z" fill="white"/>
<path d="M113.943 13.1514V24.2079H112.43V13.1514H113.943Z" fill="white"/>
<path d="M124.068 13.1514V14.548H120.693V24.2079H119.18V14.548H115.805V13.1514H124.068Z" fill="white"/>
<path d="M134.544 13.0332C137.687 13.0332 140.131 15.5937 140.131 18.736C140.131 21.8784 137.687 24.3225 134.544 24.3225C131.402 24.3225 128.958 21.762 128.958 18.736C128.958 15.5937 131.402 13.0332 134.544 13.0332ZM134.544 22.9259C136.872 22.9259 138.618 21.0637 138.618 18.736C138.618 16.4084 136.872 14.5462 134.544 14.5462C132.217 14.5462 130.471 16.4084 130.471 18.736C130.471 21.0637 132.217 22.9259 134.544 22.9259Z" fill="white"/>
<path d="M148.975 24.2079L143.97 15.9446V24.2079H142.457V13.1514H143.97L148.975 21.4147V13.1514H150.488V24.2079H148.975Z" fill="white"/>
<defs>
<linearGradient id="paint0_linear_5_2081" x1="58.4158" y1="37.4783" x2="13.159" y2="37.4783" gradientUnits="userSpaceOnUse">
<stop stop-color="#FFE000"/>
<stop offset="0.1941" stop-color="#FED000"/>
<stop offset="0.5469" stop-color="#F9B400"/>
<stop offset="0.8279" stop-color="#F6A200"/>
<stop offset="1" stop-color="#F59B00"/>
</linearGradient>
<linearGradient id="paint1_linear_5_2081" x1="46.6707" y1="41.7703" x2="4.10463" y2="84.3363" gradientUnits="userSpaceOnUse">
<stop stop-color="#E7383D"/>
<stop offset="1" stop-color="#C81166"/>
</linearGradient>
<linearGradient id="paint2_linear_5_2081" x1="3.91494" y1="-9.57176" x2="38.669" y2="25.1823" gradientUnits="userSpaceOnUse">
<stop stop-color="#229966"/>
<stop offset="0.3168" stop-color="#4EA663"/>
<stop offset="0.7398" stop-color="#70B65D"/>
<stop offset="1" stop-color="#7CBC5B"/>
</linearGradient>
</defs>
</svg>
